solid OpenSCAD_Model
  facet normal 0.988831 0.149043 0
    outer loop
      vertex 6.5 0 95
      vertex 6.21122 1.91591 0
      vertex 6.21122 1.91591 95
    endloop
  endfacet
  facet normal 0.988831 0.149043 0
    outer loop
      vertex 6.21122 1.91591 0
      vertex 6.5 0 95
      vertex 6.5 0 0
    endloop
  endfacet
  facet normal -1 0 0
    outer loop
      vertex -6.4274 -0.968774 0
      vertex -6.4274 0.968774 95
      vertex -6.4274 0.968774 0
    endloop
  endfacet
  facet normal -1 -0 0
    outer loop
      vertex -6.4274 0.968774 95
      vertex -6.4274 -0.968774 0
      vertex -6.4274 -0.968774 95
    endloop
  endfacet
  facet normal -0.0747298 0.997204 0
    outer loop
      vertex 0.485745 6.48182 0
      vertex -1.44639 6.33703 95
      vertex 0.485745 6.48182 95
    endloop
  endfacet
  facet normal -0.0747298 0.997204 0
    outer loop
      vertex -1.44639 6.33703 95
      vertex 0.485745 6.48182 0
      vertex -1.44639 6.33703 0
    endloop
  endfacet
  facet normal 0.222521 -0.974928 0
    outer loop
      vertex 0.485745 -6.48182 0
      vertex 2.37472 -6.05068 95
      vertex 0.485745 -6.48182 95
    endloop
  endfacet
  facet normal 0.222521 -0.974928 0
    outer loop
      vertex 2.37472 -6.05068 95
      vertex 0.485745 -6.48182 0
      vertex 2.37472 -6.05068 0
    endloop
  endfacet
  facet normal 0.5 -0.866025 0
    outer loop
      vertex 2.37472 -6.05068 0
      vertex 4.05268 -5.0819 95
      vertex 2.37472 -6.05068 95
    endloop
  endfacet
  facet normal 0.5 -0.866025 0
    outer loop
      vertex 4.05268 -5.0819 95
      vertex 2.37472 -6.05068 0
      vertex 4.05268 -5.0819 0
    endloop
  endfacet
  facet normal 0.733052 0.680173 0
    outer loop
      vertex 5.37055 3.66158 95
      vertex 4.05268 5.0819 0
      vertex 4.05268 5.0819 95
    endloop
  endfacet
  facet normal 0.733052 0.680173 0
    outer loop
      vertex 4.05268 5.0819 0
      vertex 5.37055 3.66158 95
      vertex 5.37055 3.66158 0
    endloop
  endfacet
  facet normal 0.900969 0.433884 0
    outer loop
      vertex 6.21122 1.91591 95
      vertex 5.37055 3.66158 0
      vertex 5.37055 3.66158 95
    endloop
  endfacet
  facet normal 0.900969 0.433884 0
    outer loop
      vertex 5.37055 3.66158 0
      vertex 6.21122 1.91591 95
      vertex 6.21122 1.91591 0
    endloop
  endfacet
  facet normal 0.5 0.866025 -0
    outer loop
      vertex 4.05268 5.0819 0
      vertex 2.37472 6.05068 95
      vertex 4.05268 5.0819 95
    endloop
  endfacet
  facet normal 0.5 0.866025 0
    outer loop
      vertex 2.37472 6.05068 95
      vertex 4.05268 5.0819 0
      vertex 2.37472 6.05068 0
    endloop
  endfacet
  facet normal -0.826239 0.56332 0
    outer loop
      vertex -5.8563 2.82024 0
      vertex -4.76484 4.42112 95
      vertex -4.76484 4.42112 0
    endloop
  endfacet
  facet normal -0.826239 0.56332 0
    outer loop
      vertex -4.76484 4.42112 95
      vertex -5.8563 2.82024 0
      vertex -5.8563 2.82024 95
    endloop
  endfacet
  facet normal -0.955573 0.294755 0
    outer loop
      vertex -6.4274 0.968774 0
      vertex -5.8563 2.82024 95
      vertex -5.8563 2.82024 0
    endloop
  endfacet
  facet normal -0.955573 0.294755 0
    outer loop
      vertex -5.8563 2.82024 95
      vertex -6.4274 0.968774 0
      vertex -6.4274 0.968774 95
    endloop
  endfacet
  facet normal 0 0 1
    outer loop
      vertex 4.5 0 95
      vertex 6.5 0 95
      vertex 6.21122 1.91591 95
    endloop
  endfacet
  facet normal 0 0 1
    outer loop
      vertex 4.11095 1.83031 95
      vertex 6.21122 1.91591 95
      vertex 5.37055 3.66158 95
    endloop
  endfacet
  facet normal 0 0 1
    outer loop
      vertex 6.5 0 95
      vertex 4.5 0 95
      vertex 6.21122 -1.91591 95
    endloop
  endfacet
  facet normal -0 0 1
    outer loop
      vertex 4.11095 -1.83031 95
      vertex 6.21122 -1.91591 95
      vertex 4.5 0 95
    endloop
  endfacet
  facet normal 0 0 1
    outer loop
      vertex 6.21122 1.91591 95
      vertex 4.11095 1.83031 95
      vertex 4.5 0 95
    endloop
  endfacet
  facet normal 0 0 1
    outer loop
      vertex 3.01109 3.34415 95
      vertex 5.37055 3.66158 95
      vertex 4.05268 5.0819 95
    endloop
  endfacet
  facet normal 0 0 1
    outer loop
      vertex 5.37055 3.66158 95
      vertex 3.01109 3.34415 95
      vertex 4.11095 1.83031 95
    endloop
  endfacet
  facet normal 0 0 1
    outer loop
      vertex 2.37472 6.05068 95
      vertex 3.01109 3.34415 95
      vertex 4.05268 5.0819 95
    endloop
  endfacet
  facet normal 0 0 1
    outer loop
      vertex 2.37472 6.05068 95
      vertex 1.39058 4.27975 95
      vertex 3.01109 3.34415 95
    endloop
  endfacet
  facet normal 0 0 1
    outer loop
      vertex 0.485745 6.48182 95
      vertex 1.39058 4.27975 95
      vertex 2.37472 6.05068 95
    endloop
  endfacet
  facet normal 0 0 1
    outer loop
      vertex 0.485745 6.48182 95
      vertex -0.470378 4.47535 95
      vertex 1.39058 4.27975 95
    endloop
  endfacet
  facet normal -0 0 1
    outer loop
      vertex -1.44639 6.33703 95
      vertex -0.470378 4.47535 95
      vertex 0.485745 6.48182 95
    endloop
  endfacet
  facet normal 0 0 1
    outer loop
      vertex -1.44639 6.33703 95
      vertex -2.25 3.89711 95
      vertex -0.470378 4.47535 95
    endloop
  endfacet
  facet normal -0 0 1
    outer loop
      vertex -3.25 5.62916 95
      vertex -2.25 3.89711 95
      vertex -1.44639 6.33703 95
    endloop
  endfacet
  facet normal -0 0 1
    outer loop
      vertex -4.76484 4.42112 95
      vertex -2.25 3.89711 95
      vertex -3.25 5.62916 95
    endloop
  endfacet
  facet normal 0 0 1
    outer loop
      vertex -2.25 3.89711 95
      vertex -4.76484 4.42112 95
      vertex -3.64058 2.64503 95
    endloop
  endfacet
  facet normal 0 0 1
    outer loop
      vertex -3.64058 2.64503 95
      vertex -5.8563 2.82024 95
      vertex -4.40166 0.935602 95
    endloop
  endfacet
  facet normal -0 0 1
    outer loop
      vertex -5.8563 2.82024 95
      vertex -3.64058 2.64503 95
      vertex -4.76484 4.42112 95
    endloop
  endfacet
  facet normal 0 0 1
    outer loop
      vertex 6.21122 -1.91591 95
      vertex 4.11095 -1.83031 95
      vertex 5.37055 -3.66158 95
    endloop
  endfacet
  facet normal -0 0 1
    outer loop
      vertex 3.01109 -3.34415 95
      vertex 5.37055 -3.66158 95
      vertex 4.11095 -1.83031 95
    endloop
  endfacet
  facet normal 0 0 1
    outer loop
      vertex 5.37055 -3.66158 95
      vertex 3.01109 -3.34415 95
      vertex 4.05268 -5.0819 95
    endloop
  endfacet
  facet normal 0 0 1
    outer loop
      vertex 3.01109 -3.34415 95
      vertex 2.37472 -6.05068 95
      vertex 4.05268 -5.0819 95
    endloop
  endfacet
  facet normal -0 0 1
    outer loop
      vertex 1.39058 -4.27975 95
      vertex 2.37472 -6.05068 95
      vertex 3.01109 -3.34415 95
    endloop
  endfacet
  facet normal 0 0 1
    outer loop
      vertex 1.39058 -4.27975 95
      vertex 0.485745 -6.48182 95
      vertex 2.37472 -6.05068 95
    endloop
  endfacet
  facet normal -0 0 1
    outer loop
      vertex -0.470378 -4.47535 95
      vertex 0.485745 -6.48182 95
      vertex 1.39058 -4.27975 95
    endloop
  endfacet
  facet normal 0 0 1
    outer loop
      vertex -0.470378 -4.47535 95
      vertex -1.44639 -6.33703 95
      vertex 0.485745 -6.48182 95
    endloop
  endfacet
  facet normal 0 0 1
    outer loop
      vertex -2.25 -3.89711 95
      vertex -1.44639 -6.33703 95
      vertex -0.470378 -4.47535 95
    endloop
  endfacet
  facet normal 0 0 1
    outer loop
      vertex -2.25 -3.89711 95
      vertex -3.25 -5.62916 95
      vertex -1.44639 -6.33703 95
    endloop
  endfacet
  facet normal 0 0 1
    outer loop
      vertex -4.76484 -4.42112 95
      vertex -2.25 -3.89711 95
      vertex -3.64058 -2.64503 95
    endloop
  endfacet
  facet normal 0 0 1
    outer loop
      vertex -5.8563 -2.82024 95
      vertex -3.64058 -2.64503 95
      vertex -4.40166 -0.935602 95
    endloop
  endfacet
  facet normal 0 0 1
    outer loop
      vertex -2.25 -3.89711 95
      vertex -4.76484 -4.42112 95
      vertex -3.25 -5.62916 95
    endloop
  endfacet
  facet normal -0 0 1
    outer loop
      vertex -6.4274 0.968774 95
      vertex -4.40166 0.935602 95
      vertex -5.8563 2.82024 95
    endloop
  endfacet
  facet normal 0 0 1
    outer loop
      vertex -4.40166 0.935602 95
      vertex -6.4274 0.968774 95
      vertex -4.40166 -0.935602 95
    endloop
  endfacet
  facet normal 0 0 1
    outer loop
      vertex -3.64058 -2.64503 95
      vertex -5.8563 -2.82024 95
      vertex -4.76484 -4.42112 95
    endloop
  endfacet
  facet normal 0 0 1
    outer loop
      vertex -6.4274 -0.968774 95
      vertex -4.40166 -0.935602 95
      vertex -6.4274 0.968774 95
    endloop
  endfacet
  facet normal 0 0 1
    outer loop
      vertex -4.40166 -0.935602 95
      vertex -6.4274 -0.968774 95
      vertex -5.8563 -2.82024 95
    endloop
  endfacet
  facet normal -0.62349 0.781832 0
    outer loop
      vertex -3.25 5.62916 0
      vertex -4.76484 4.42112 95
      vertex -3.25 5.62916 95
    endloop
  endfacet
  facet normal -0.62349 0.781832 0
    outer loop
      vertex -4.76484 4.42112 95
      vertex -3.25 5.62916 0
      vertex -4.76484 4.42112 0
    endloop
  endfacet
  facet normal 0 0 -1
    outer loop
      vertex 4.5 0 0
      vertex 6.5 0 0
      vertex 6.21122 -1.91591 0
    endloop
  endfacet
  facet normal 0 0 -1
    outer loop
      vertex 4.11095 -1.83031 0
      vertex 6.21122 -1.91591 0
      vertex 5.37055 -3.66158 0
    endloop
  endfacet
  facet normal 0 0 -1
    outer loop
      vertex 6.5 0 0
      vertex 4.5 0 0
      vertex 6.21122 1.91591 0
    endloop
  endfacet
  facet normal 0 0 -1
    outer loop
      vertex 4.11095 1.83031 0
      vertex 6.21122 1.91591 0
      vertex 4.5 0 0
    endloop
  endfacet
  facet normal 0 0 -1
    outer loop
      vertex 6.21122 -1.91591 0
      vertex 4.11095 -1.83031 0
      vertex 4.5 0 0
    endloop
  endfacet
  facet normal 0 0 -1
    outer loop
      vertex 3.01109 -3.34415 0
      vertex 5.37055 -3.66158 0
      vertex 4.05268 -5.0819 0
    endloop
  endfacet
  facet normal 0 0 -1
    outer loop
      vertex 5.37055 -3.66158 0
      vertex 3.01109 -3.34415 0
      vertex 4.11095 -1.83031 0
    endloop
  endfacet
  facet normal 0 0 -1
    outer loop
      vertex 2.37472 -6.05068 0
      vertex 3.01109 -3.34415 0
      vertex 4.05268 -5.0819 0
    endloop
  endfacet
  facet normal 0 0 -1
    outer loop
      vertex 2.37472 -6.05068 0
      vertex 1.39058 -4.27975 0
      vertex 3.01109 -3.34415 0
    endloop
  endfacet
  facet normal 0 0 -1
    outer loop
      vertex 0.485745 -6.48182 0
      vertex 1.39058 -4.27975 0
      vertex 2.37472 -6.05068 0
    endloop
  endfacet
  facet normal 0 0 -1
    outer loop
      vertex 0.485745 -6.48182 0
      vertex -0.470378 -4.47535 0
      vertex 1.39058 -4.27975 0
    endloop
  endfacet
  facet normal 0 0 -1
    outer loop
      vertex -1.44639 -6.33703 0
      vertex -0.470378 -4.47535 0
      vertex 0.485745 -6.48182 0
    endloop
  endfacet
  facet normal 0 0 -1
    outer loop
      vertex -1.44639 -6.33703 0
      vertex -2.25 -3.89711 0
      vertex -0.470378 -4.47535 0
    endloop
  endfacet
  facet normal 0 0 -1
    outer loop
      vertex -3.25 -5.62916 0
      vertex -2.25 -3.89711 0
      vertex -1.44639 -6.33703 0
    endloop
  endfacet
  facet normal 0 0 -1
    outer loop
      vertex -4.76484 -4.42112 0
      vertex -2.25 -3.89711 0
      vertex -3.25 -5.62916 0
    endloop
  endfacet
  facet normal -0 0 -1
    outer loop
      vertex -2.25 -3.89711 0
      vertex -4.76484 -4.42112 0
      vertex -3.64058 -2.64503 0
    endloop
  endfacet
  facet normal -0 0 -1
    outer loop
      vertex -3.64058 -2.64503 0
      vertex -5.8563 -2.82024 0
      vertex -4.40166 -0.935602 0
    endloop
  endfacet
  facet normal 0 0 -1
    outer loop
      vertex -5.8563 -2.82024 0
      vertex -3.64058 -2.64503 0
      vertex -4.76484 -4.42112 0
    endloop
  endfacet
  facet normal -0 0 -1
    outer loop
      vertex 6.21122 1.91591 0
      vertex 4.11095 1.83031 0
      vertex 5.37055 3.66158 0
    endloop
  endfacet
  facet normal 0 0 -1
    outer loop
      vertex 3.01109 3.34415 0
      vertex 5.37055 3.66158 0
      vertex 4.11095 1.83031 0
    endloop
  endfacet
  facet normal -0 0 -1
    outer loop
      vertex 5.37055 3.66158 0
      vertex 3.01109 3.34415 0
      vertex 4.05268 5.0819 0
    endloop
  endfacet
  facet normal 0 0 -1
    outer loop
      vertex 3.01109 3.34415 0
      vertex 2.37472 6.05068 0
      vertex 4.05268 5.0819 0
    endloop
  endfacet
  facet normal 0 0 -1
    outer loop
      vertex 1.39058 4.27975 0
      vertex 2.37472 6.05068 0
      vertex 3.01109 3.34415 0
    endloop
  endfacet
  facet normal 0 0 -1
    outer loop
      vertex 1.39058 4.27975 0
      vertex 0.485745 6.48182 0
      vertex 2.37472 6.05068 0
    endloop
  endfacet
  facet normal 0 0 -1
    outer loop
      vertex -0.470378 4.47535 0
      vertex 0.485745 6.48182 0
      vertex 1.39058 4.27975 0
    endloop
  endfacet
  facet normal 0 0 -1
    outer loop
      vertex -0.470378 4.47535 0
      vertex -1.44639 6.33703 0
      vertex 0.485745 6.48182 0
    endloop
  endfacet
  facet normal 0 0 -1
    outer loop
      vertex -2.25 3.89711 0
      vertex -1.44639 6.33703 0
      vertex -0.470378 4.47535 0
    endloop
  endfacet
  facet normal 0 0 -1
    outer loop
      vertex -2.25 3.89711 0
      vertex -3.25 5.62916 0
      vertex -1.44639 6.33703 0
    endloop
  endfacet
  facet normal 0 0 -1
    outer loop
      vertex -4.76484 4.42112 0
      vertex -2.25 3.89711 0
      vertex -3.64058 2.64503 0
    endloop
  endfacet
  facet normal 0 0 -1
    outer loop
      vertex -5.8563 2.82024 0
      vertex -3.64058 2.64503 0
      vertex -4.40166 0.935602 0
    endloop
  endfacet
  facet normal 0 0 -1
    outer loop
      vertex -2.25 3.89711 0
      vertex -4.76484 4.42112 0
      vertex -3.25 5.62916 0
    endloop
  endfacet
  facet normal 0 0 -1
    outer loop
      vertex -6.4274 -0.968774 0
      vertex -4.40166 -0.935602 0
      vertex -5.8563 -2.82024 0
    endloop
  endfacet
  facet normal -0 0 -1
    outer loop
      vertex -4.40166 -0.935602 0
      vertex -6.4274 -0.968774 0
      vertex -4.40166 0.935602 0
    endloop
  endfacet
  facet normal 0 0 -1
    outer loop
      vertex -3.64058 2.64503 0
      vertex -5.8563 2.82024 0
      vertex -4.76484 4.42112 0
    endloop
  endfacet
  facet normal 0 0 -1
    outer loop
      vertex -6.4274 0.968774 0
      vertex -4.40166 0.935602 0
      vertex -6.4274 -0.968774 0
    endloop
  endfacet
  facet normal 0 0 -1
    outer loop
      vertex -4.40166 0.935602 0
      vertex -6.4274 0.968774 0
      vertex -5.8563 2.82024 0
    endloop
  endfacet
  facet normal 0.222521 0.974928 -0
    outer loop
      vertex 2.37472 6.05068 0
      vertex 0.485745 6.48182 95
      vertex 2.37472 6.05068 95
    endloop
  endfacet
  facet normal 0.222521 0.974928 0
    outer loop
      vertex 0.485745 6.48182 95
      vertex 2.37472 6.05068 0
      vertex 0.485745 6.48182 0
    endloop
  endfacet
  facet normal -0.365341 0.930874 0
    outer loop
      vertex -1.44639 6.33703 0
      vertex -3.25 5.62916 95
      vertex -1.44639 6.33703 95
    endloop
  endfacet
  facet normal -0.365341 0.930874 0
    outer loop
      vertex -3.25 5.62916 95
      vertex -1.44639 6.33703 0
      vertex -3.25 5.62916 0
    endloop
  endfacet
  facet normal 0.988831 -0.149043 0
    outer loop
      vertex 6.21122 -1.91591 95
      vertex 6.5 0 0
      vertex 6.5 0 95
    endloop
  endfacet
  facet normal 0.988831 -0.149043 0
    outer loop
      vertex 6.5 0 0
      vertex 6.21122 -1.91591 95
      vertex 6.21122 -1.91591 0
    endloop
  endfacet
  facet normal 0.733052 -0.680173 0
    outer loop
      vertex 4.05268 -5.0819 95
      vertex 5.37055 -3.66158 0
      vertex 5.37055 -3.66158 95
    endloop
  endfacet
  facet normal 0.733052 -0.680173 0
    outer loop
      vertex 5.37055 -3.66158 0
      vertex 4.05268 -5.0819 95
      vertex 4.05268 -5.0819 0
    endloop
  endfacet
  facet normal 0.900969 -0.433884 0
    outer loop
      vertex 5.37055 -3.66158 95
      vertex 6.21122 -1.91591 0
      vertex 6.21122 -1.91591 95
    endloop
  endfacet
  facet normal 0.900969 -0.433884 0
    outer loop
      vertex 6.21122 -1.91591 0
      vertex 5.37055 -3.66158 95
      vertex 5.37055 -3.66158 0
    endloop
  endfacet
  facet normal -0.365341 -0.930874 0
    outer loop
      vertex -3.25 -5.62916 0
      vertex -1.44639 -6.33703 95
      vertex -3.25 -5.62916 95
    endloop
  endfacet
  facet normal -0.365341 -0.930874 -0
    outer loop
      vertex -1.44639 -6.33703 95
      vertex -3.25 -5.62916 0
      vertex -1.44639 -6.33703 0
    endloop
  endfacet
  facet normal -0.826239 -0.56332 0
    outer loop
      vertex -4.76484 -4.42112 0
      vertex -5.8563 -2.82024 95
      vertex -5.8563 -2.82024 0
    endloop
  endfacet
  facet normal -0.826239 -0.56332 0
    outer loop
      vertex -5.8563 -2.82024 95
      vertex -4.76484 -4.42112 0
      vertex -4.76484 -4.42112 95
    endloop
  endfacet
  facet normal -0.955573 -0.294755 0
    outer loop
      vertex -5.8563 -2.82024 0
      vertex -6.4274 -0.968774 95
      vertex -6.4274 -0.968774 0
    endloop
  endfacet
  facet normal -0.955573 -0.294755 0
    outer loop
      vertex -6.4274 -0.968774 95
      vertex -5.8563 -2.82024 0
      vertex -5.8563 -2.82024 95
    endloop
  endfacet
  facet normal -0.62349 -0.781831 0
    outer loop
      vertex -4.76484 -4.42112 0
      vertex -3.25 -5.62916 95
      vertex -4.76484 -4.42112 95
    endloop
  endfacet
  facet normal -0.62349 -0.781831 -0
    outer loop
      vertex -3.25 -5.62916 95
      vertex -4.76484 -4.42112 0
      vertex -3.25 -5.62916 0
    endloop
  endfacet
  facet normal -0.0747298 -0.997204 0
    outer loop
      vertex -1.44639 -6.33703 0
      vertex 0.485745 -6.48182 95
      vertex -1.44639 -6.33703 95
    endloop
  endfacet
  facet normal -0.0747298 -0.997204 -0
    outer loop
      vertex 0.485745 -6.48182 95
      vertex -1.44639 -6.33703 0
      vertex 0.485745 -6.48182 0
    endloop
  endfacet
  facet normal -0.978148 -0.207912 0
    outer loop
      vertex 4.5 0 0
      vertex 4.11095 1.83031 95
      vertex 4.11095 1.83031 0
    endloop
  endfacet
  facet normal -0.978148 -0.207912 0
    outer loop
      vertex 4.11095 1.83031 95
      vertex 4.5 0 0
      vertex 4.5 0 95
    endloop
  endfacet
  facet normal 1 -0 0
    outer loop
      vertex -4.40166 -0.935602 95
      vertex -4.40166 0.935602 0
      vertex -4.40166 0.935602 95
    endloop
  endfacet
  facet normal 1 0 0
    outer loop
      vertex -4.40166 0.935602 0
      vertex -4.40166 -0.935602 95
      vertex -4.40166 -0.935602 0
    endloop
  endfacet
  facet normal -0.104529 -0.994522 0
    outer loop
      vertex -0.470378 4.47535 0
      vertex 1.39058 4.27975 95
      vertex -0.470378 4.47535 95
    endloop
  endfacet
  facet normal -0.104529 -0.994522 -0
    outer loop
      vertex 1.39058 4.27975 95
      vertex -0.470378 4.47535 0
      vertex 1.39058 4.27975 0
    endloop
  endfacet
  facet normal -0.809017 -0.587785 0
    outer loop
      vertex 4.11095 1.83031 0
      vertex 3.01109 3.34415 95
      vertex 3.01109 3.34415 0
    endloop
  endfacet
  facet normal -0.809017 -0.587785 0
    outer loop
      vertex 3.01109 3.34415 95
      vertex 4.11095 1.83031 0
      vertex 4.11095 1.83031 95
    endloop
  endfacet
  facet normal -0.104529 0.994522 0
    outer loop
      vertex 1.39058 -4.27975 0
      vertex -0.470378 -4.47535 95
      vertex 1.39058 -4.27975 95
    endloop
  endfacet
  facet normal -0.104529 0.994522 0
    outer loop
      vertex -0.470378 -4.47535 95
      vertex 1.39058 -4.27975 0
      vertex -0.470378 -4.47535 0
    endloop
  endfacet
  facet normal -0.5 0.866025 0
    outer loop
      vertex 3.01109 -3.34415 0
      vertex 1.39058 -4.27975 95
      vertex 3.01109 -3.34415 95
    endloop
  endfacet
  facet normal -0.5 0.866025 0
    outer loop
      vertex 1.39058 -4.27975 95
      vertex 3.01109 -3.34415 0
      vertex 1.39058 -4.27975 0
    endloop
  endfacet
  facet normal -0.5 -0.866025 0
    outer loop
      vertex 1.39058 4.27975 0
      vertex 3.01109 3.34415 95
      vertex 1.39058 4.27975 95
    endloop
  endfacet
  facet normal -0.5 -0.866025 -0
    outer loop
      vertex 3.01109 3.34415 95
      vertex 1.39058 4.27975 0
      vertex 3.01109 3.34415 0
    endloop
  endfacet
  facet normal 0.66913 -0.743145 0
    outer loop
      vertex -3.64058 2.64503 0
      vertex -2.25 3.89711 95
      vertex -3.64058 2.64503 95
    endloop
  endfacet
  facet normal 0.66913 -0.743145 0
    outer loop
      vertex -2.25 3.89711 95
      vertex -3.64058 2.64503 0
      vertex -2.25 3.89711 0
    endloop
  endfacet
  facet normal 0.913545 -0.406737 0
    outer loop
      vertex -4.40166 0.935602 95
      vertex -3.64058 2.64503 0
      vertex -3.64058 2.64503 95
    endloop
  endfacet
  facet normal 0.913545 -0.406737 0
    outer loop
      vertex -3.64058 2.64503 0
      vertex -4.40166 0.935602 95
      vertex -4.40166 0.935602 0
    endloop
  endfacet
  facet normal 0.309017 -0.951056 0
    outer loop
      vertex -2.25 3.89711 0
      vertex -0.470378 4.47535 95
      vertex -2.25 3.89711 95
    endloop
  endfacet
  facet normal 0.309017 -0.951056 0
    outer loop
      vertex -0.470378 4.47535 95
      vertex -2.25 3.89711 0
      vertex -0.470378 4.47535 0
    endloop
  endfacet
  facet normal -0.978148 0.207912 0
    outer loop
      vertex 4.11095 -1.83031 0
      vertex 4.5 0 95
      vertex 4.5 0 0
    endloop
  endfacet
  facet normal -0.978148 0.207912 0
    outer loop
      vertex 4.5 0 95
      vertex 4.11095 -1.83031 0
      vertex 4.11095 -1.83031 95
    endloop
  endfacet
  facet normal 0.309017 0.951056 -0
    outer loop
      vertex -0.470378 -4.47535 0
      vertex -2.25 -3.89711 95
      vertex -0.470378 -4.47535 95
    endloop
  endfacet
  facet normal 0.309017 0.951056 0
    outer loop
      vertex -2.25 -3.89711 95
      vertex -0.470378 -4.47535 0
      vertex -2.25 -3.89711 0
    endloop
  endfacet
  facet normal -0.809017 0.587785 0
    outer loop
      vertex 3.01109 -3.34415 0
      vertex 4.11095 -1.83031 95
      vertex 4.11095 -1.83031 0
    endloop
  endfacet
  facet normal -0.809017 0.587785 0
    outer loop
      vertex 4.11095 -1.83031 95
      vertex 3.01109 -3.34415 0
      vertex 3.01109 -3.34415 95
    endloop
  endfacet
  facet normal 0.669131 0.743145 -0
    outer loop
      vertex -2.25 -3.89711 0
      vertex -3.64058 -2.64503 95
      vertex -2.25 -3.89711 95
    endloop
  endfacet
  facet normal 0.669131 0.743145 0
    outer loop
      vertex -3.64058 -2.64503 95
      vertex -2.25 -3.89711 0
      vertex -3.64058 -2.64503 0
    endloop
  endfacet
  facet normal 0.913545 0.406737 0
    outer loop
      vertex -3.64058 -2.64503 95
      vertex -4.40166 -0.935602 0
      vertex -4.40166 -0.935602 95
    endloop
  endfacet
  facet normal 0.913545 0.406737 0
    outer loop
      vertex -4.40166 -0.935602 0
      vertex -3.64058 -2.64503 95
      vertex -3.64058 -2.64503 0
    endloop
  endfacet
endsolid OpenSCAD_Model
