solid OpenSCAD_Model
  facet normal 0.974928 0.222521 0
    outer loop
      vertex 4.25 0 80
      vertex 3.82912 1.84401 60
      vertex 3.82912 1.84401 80
    endloop
  endfacet
  facet normal 0.974928 0.222521 0
    outer loop
      vertex 3.82912 1.84401 60
      vertex 4.25 0 80
      vertex 4.25 0 60
    endloop
  endfacet
  facet normal -0.974928 0.222521 0
    outer loop
      vertex -4.25 0 60
      vertex -3.82912 1.84401 80
      vertex -3.82912 1.84401 60
    endloop
  endfacet
  facet normal -0.974928 0.222521 0
    outer loop
      vertex -3.82912 1.84401 80
      vertex -4.25 0 60
      vertex -4.25 0 80
    endloop
  endfacet
  facet normal 0 1 -0
    outer loop
      vertex 0.945713 4.14344 60
      vertex -0.945713 4.14344 80
      vertex 0.945713 4.14344 80
    endloop
  endfacet
  facet normal 0 1 0
    outer loop
      vertex -0.945713 4.14344 80
      vertex 0.945713 4.14344 60
      vertex -0.945713 4.14344 60
    endloop
  endfacet
  facet normal 0.781831 0.62349 0
    outer loop
      vertex 3.82912 1.84401 80
      vertex 2.64983 3.32278 60
      vertex 2.64983 3.32278 80
    endloop
  endfacet
  facet normal 0.781831 0.62349 0
    outer loop
      vertex 2.64983 3.32278 60
      vertex 3.82912 1.84401 80
      vertex 3.82912 1.84401 60
    endloop
  endfacet
  facet normal -0.433884 0.900969 0
    outer loop
      vertex -0.945713 4.14344 60
      vertex -2.64983 3.32278 80
      vertex -0.945713 4.14344 80
    endloop
  endfacet
  facet normal -0.433884 0.900969 0
    outer loop
      vertex -2.64983 3.32278 80
      vertex -0.945713 4.14344 60
      vertex -2.64983 3.32278 60
    endloop
  endfacet
  facet normal 0 -1 0
    outer loop
      vertex -0.945713 -4.14344 60
      vertex 0.945713 -4.14344 80
      vertex -0.945713 -4.14344 80
    endloop
  endfacet
  facet normal 0 -1 -0
    outer loop
      vertex 0.945713 -4.14344 80
      vertex -0.945713 -4.14344 60
      vertex 0.945713 -4.14344 60
    endloop
  endfacet
  facet normal 0.433884 -0.900969 0
    outer loop
      vertex 0.945713 -4.14344 60
      vertex 2.64983 -3.32278 80
      vertex 0.945713 -4.14344 80
    endloop
  endfacet
  facet normal 0.433884 -0.900969 0
    outer loop
      vertex 2.64983 -3.32278 80
      vertex 0.945713 -4.14344 60
      vertex 2.64983 -3.32278 60
    endloop
  endfacet
  facet normal 0.433884 0.900969 -0
    outer loop
      vertex 2.64983 3.32278 60
      vertex 0.945713 4.14344 80
      vertex 2.64983 3.32278 80
    endloop
  endfacet
  facet normal 0.433884 0.900969 0
    outer loop
      vertex 0.945713 4.14344 80
      vertex 2.64983 3.32278 60
      vertex 0.945713 4.14344 60
    endloop
  endfacet
  facet normal -0.781831 0.62349 0
    outer loop
      vertex -3.82912 1.84401 60
      vertex -2.64983 3.32278 80
      vertex -2.64983 3.32278 60
    endloop
  endfacet
  facet normal -0.781831 0.62349 0
    outer loop
      vertex -2.64983 3.32278 80
      vertex -3.82912 1.84401 60
      vertex -3.82912 1.84401 80
    endloop
  endfacet
  facet normal 0 0 1
    outer loop
      vertex 3.5 0 80
      vertex 4.25 0 80
      vertex 3.82912 1.84401 80
    endloop
  endfacet
  facet normal 0 0 1
    outer loop
      vertex 4.25 0 80
      vertex 3.5 0 80
      vertex 3.82912 -1.84401 80
    endloop
  endfacet
  facet normal 0 0 1
    outer loop
      vertex 3.82912 1.84401 80
      vertex 2.94439 1.89224 80
      vertex 3.5 0 80
    endloop
  endfacet
  facet normal 0 0 1
    outer loop
      vertex 2.64983 3.32278 80
      vertex 2.94439 1.89224 80
      vertex 3.82912 1.84401 80
    endloop
  endfacet
  facet normal 0 0 1
    outer loop
      vertex 2.64983 3.32278 80
      vertex 1.45395 3.18371 80
      vertex 2.94439 1.89224 80
    endloop
  endfacet
  facet normal 0 0 1
    outer loop
      vertex 0.945713 4.14344 80
      vertex 1.45395 3.18371 80
      vertex 2.64983 3.32278 80
    endloop
  endfacet
  facet normal 0 0 1
    outer loop
      vertex 0.945713 4.14344 80
      vertex -0.498101 3.46437 80
      vertex 1.45395 3.18371 80
    endloop
  endfacet
  facet normal -0 0 1
    outer loop
      vertex -0.945713 4.14344 80
      vertex -0.498101 3.46437 80
      vertex 0.945713 4.14344 80
    endloop
  endfacet
  facet normal 0 0 1
    outer loop
      vertex -0.945713 4.14344 80
      vertex -2.29201 2.64512 80
      vertex -0.498101 3.46437 80
    endloop
  endfacet
  facet normal -0 0 1
    outer loop
      vertex -2.64983 3.32278 80
      vertex -2.29201 2.64512 80
      vertex -0.945713 4.14344 80
    endloop
  endfacet
  facet normal 0 0 1
    outer loop
      vertex -3.82912 1.84401 80
      vertex -2.29201 2.64512 80
      vertex -2.64983 3.32278 80
    endloop
  endfacet
  facet normal 0 0 1
    outer loop
      vertex -4.25 0 80
      vertex -3.35822 0.986063 80
      vertex -3.82912 1.84401 80
    endloop
  endfacet
  facet normal 0 0 1
    outer loop
      vertex -2.29201 2.64512 80
      vertex -3.82912 1.84401 80
      vertex -3.35822 0.986063 80
    endloop
  endfacet
  facet normal 0 0 1
    outer loop
      vertex 2.94439 -1.89224 80
      vertex 3.82912 -1.84401 80
      vertex 3.5 0 80
    endloop
  endfacet
  facet normal -0 0 1
    outer loop
      vertex 2.94439 -1.89224 80
      vertex 2.64983 -3.32278 80
      vertex 3.82912 -1.84401 80
    endloop
  endfacet
  facet normal -0 0 1
    outer loop
      vertex 1.45395 -3.18371 80
      vertex 2.64983 -3.32278 80
      vertex 2.94439 -1.89224 80
    endloop
  endfacet
  facet normal 0 0 1
    outer loop
      vertex 1.45395 -3.18371 80
      vertex 0.945713 -4.14344 80
      vertex 2.64983 -3.32278 80
    endloop
  endfacet
  facet normal -0 0 1
    outer loop
      vertex -0.498101 -3.46437 80
      vertex 0.945713 -4.14344 80
      vertex 1.45395 -3.18371 80
    endloop
  endfacet
  facet normal 0 0 1
    outer loop
      vertex -0.498101 -3.46437 80
      vertex -0.945713 -4.14344 80
      vertex 0.945713 -4.14344 80
    endloop
  endfacet
  facet normal 0 0 1
    outer loop
      vertex -2.29201 -2.64512 80
      vertex -0.945713 -4.14344 80
      vertex -0.498101 -3.46437 80
    endloop
  endfacet
  facet normal 0 0 1
    outer loop
      vertex -2.29201 -2.64512 80
      vertex -2.64983 -3.32278 80
      vertex -0.945713 -4.14344 80
    endloop
  endfacet
  facet normal -0 0 1
    outer loop
      vertex -3.82912 -1.84401 80
      vertex -2.29201 -2.64512 80
      vertex -3.35822 -0.986063 80
    endloop
  endfacet
  facet normal 0 0 1
    outer loop
      vertex -2.29201 -2.64512 80
      vertex -3.82912 -1.84401 80
      vertex -2.64983 -3.32278 80
    endloop
  endfacet
  facet normal 0 0 1
    outer loop
      vertex -3.35822 0.986063 80
      vertex -4.25 0 80
      vertex -3.35822 -0.986063 80
    endloop
  endfacet
  facet normal 0 0 1
    outer loop
      vertex -3.35822 -0.986063 80
      vertex -4.25 0 80
      vertex -3.82912 -1.84401 80
    endloop
  endfacet
  facet normal 0.974928 -0.222521 0
    outer loop
      vertex 3.82912 -1.84401 80
      vertex 4.25 0 60
      vertex 4.25 0 80
    endloop
  endfacet
  facet normal 0.974928 -0.222521 0
    outer loop
      vertex 4.25 0 60
      vertex 3.82912 -1.84401 80
      vertex 3.82912 -1.84401 60
    endloop
  endfacet
  facet normal 0 0 -1
    outer loop
      vertex 3.5 0 60
      vertex 4.25 0 60
      vertex 3.82912 -1.84401 60
    endloop
  endfacet
  facet normal 0 0 -1
    outer loop
      vertex 4.25 0 60
      vertex 3.5 0 60
      vertex 3.82912 1.84401 60
    endloop
  endfacet
  facet normal -0 0 -1
    outer loop
      vertex 3.82912 -1.84401 60
      vertex 2.94439 -1.89224 60
      vertex 3.5 0 60
    endloop
  endfacet
  facet normal 0 0 -1
    outer loop
      vertex 2.64983 -3.32278 60
      vertex 2.94439 -1.89224 60
      vertex 3.82912 -1.84401 60
    endloop
  endfacet
  facet normal 0 0 -1
    outer loop
      vertex 2.64983 -3.32278 60
      vertex 1.45395 -3.18371 60
      vertex 2.94439 -1.89224 60
    endloop
  endfacet
  facet normal 0 0 -1
    outer loop
      vertex 0.945713 -4.14344 60
      vertex 1.45395 -3.18371 60
      vertex 2.64983 -3.32278 60
    endloop
  endfacet
  facet normal 0 0 -1
    outer loop
      vertex 0.945713 -4.14344 60
      vertex -0.498101 -3.46437 60
      vertex 1.45395 -3.18371 60
    endloop
  endfacet
  facet normal 0 0 -1
    outer loop
      vertex -0.945713 -4.14344 60
      vertex -0.498101 -3.46437 60
      vertex 0.945713 -4.14344 60
    endloop
  endfacet
  facet normal 0 0 -1
    outer loop
      vertex -0.945713 -4.14344 60
      vertex -2.29201 -2.64512 60
      vertex -0.498101 -3.46437 60
    endloop
  endfacet
  facet normal 0 0 -1
    outer loop
      vertex -2.64983 -3.32278 60
      vertex -2.29201 -2.64512 60
      vertex -0.945713 -4.14344 60
    endloop
  endfacet
  facet normal 0 0 -1
    outer loop
      vertex -3.82912 -1.84401 60
      vertex -2.29201 -2.64512 60
      vertex -2.64983 -3.32278 60
    endloop
  endfacet
  facet normal 0 0 -1
    outer loop
      vertex -4.25 0 60
      vertex -3.35822 -0.986063 60
      vertex -3.82912 -1.84401 60
    endloop
  endfacet
  facet normal 0 0 -1
    outer loop
      vertex -2.29201 -2.64512 60
      vertex -3.82912 -1.84401 60
      vertex -3.35822 -0.986063 60
    endloop
  endfacet
  facet normal 0 0 -1
    outer loop
      vertex 2.94439 1.89224 60
      vertex 3.82912 1.84401 60
      vertex 3.5 0 60
    endloop
  endfacet
  facet normal 0 0 -1
    outer loop
      vertex 2.94439 1.89224 60
      vertex 2.64983 3.32278 60
      vertex 3.82912 1.84401 60
    endloop
  endfacet
  facet normal 0 0 -1
    outer loop
      vertex 1.45395 3.18371 60
      vertex 2.64983 3.32278 60
      vertex 2.94439 1.89224 60
    endloop
  endfacet
  facet normal 0 0 -1
    outer loop
      vertex 1.45395 3.18371 60
      vertex 0.945713 4.14344 60
      vertex 2.64983 3.32278 60
    endloop
  endfacet
  facet normal 0 0 -1
    outer loop
      vertex -0.498101 3.46437 60
      vertex 0.945713 4.14344 60
      vertex 1.45395 3.18371 60
    endloop
  endfacet
  facet normal 0 0 -1
    outer loop
      vertex -0.498101 3.46437 60
      vertex -0.945713 4.14344 60
      vertex 0.945713 4.14344 60
    endloop
  endfacet
  facet normal 0 0 -1
    outer loop
      vertex -2.29201 2.64512 60
      vertex -0.945713 4.14344 60
      vertex -0.498101 3.46437 60
    endloop
  endfacet
  facet normal 0 0 -1
    outer loop
      vertex -2.29201 2.64512 60
      vertex -2.64983 3.32278 60
      vertex -0.945713 4.14344 60
    endloop
  endfacet
  facet normal 0 0 -1
    outer loop
      vertex -3.82912 1.84401 60
      vertex -2.29201 2.64512 60
      vertex -3.35822 0.986063 60
    endloop
  endfacet
  facet normal -0 0 -1
    outer loop
      vertex -2.29201 2.64512 60
      vertex -3.82912 1.84401 60
      vertex -2.64983 3.32278 60
    endloop
  endfacet
  facet normal 0 0 -1
    outer loop
      vertex -3.35822 -0.986063 60
      vertex -4.25 0 60
      vertex -3.35822 0.986063 60
    endloop
  endfacet
  facet normal -0 0 -1
    outer loop
      vertex -3.35822 0.986063 60
      vertex -4.25 0 60
      vertex -3.82912 1.84401 60
    endloop
  endfacet
  facet normal -0.433884 -0.900969 0
    outer loop
      vertex -2.64983 -3.32278 60
      vertex -0.945713 -4.14344 80
      vertex -2.64983 -3.32278 80
    endloop
  endfacet
  facet normal -0.433884 -0.900969 -0
    outer loop
      vertex -0.945713 -4.14344 80
      vertex -2.64983 -3.32278 60
      vertex -0.945713 -4.14344 60
    endloop
  endfacet
  facet normal 0.781831 -0.62349 0
    outer loop
      vertex 2.64983 -3.32278 80
      vertex 3.82912 -1.84401 60
      vertex 3.82912 -1.84401 80
    endloop
  endfacet
  facet normal 0.781831 -0.62349 0
    outer loop
      vertex 3.82912 -1.84401 60
      vertex 2.64983 -3.32278 80
      vertex 2.64983 -3.32278 60
    endloop
  endfacet
  facet normal -0.781831 -0.62349 0
    outer loop
      vertex -2.64983 -3.32278 60
      vertex -3.82912 -1.84401 80
      vertex -3.82912 -1.84401 60
    endloop
  endfacet
  facet normal -0.781831 -0.62349 0
    outer loop
      vertex -3.82912 -1.84401 80
      vertex -2.64983 -3.32278 60
      vertex -2.64983 -3.32278 80
    endloop
  endfacet
  facet normal -0.974928 -0.222521 0
    outer loop
      vertex -3.82912 -1.84401 60
      vertex -4.25 0 80
      vertex -4.25 0 60
    endloop
  endfacet
  facet normal -0.974928 -0.222521 0
    outer loop
      vertex -4.25 0 80
      vertex -3.82912 -1.84401 60
      vertex -3.82912 -1.84401 80
    endloop
  endfacet
  facet normal -0.959493 -0.281733 0
    outer loop
      vertex 3.5 0 60
      vertex 2.94439 1.89224 80
      vertex 2.94439 1.89224 60
    endloop
  endfacet
  facet normal -0.959493 -0.281733 0
    outer loop
      vertex 2.94439 1.89224 80
      vertex 3.5 0 60
      vertex 3.5 0 80
    endloop
  endfacet
  facet normal 1 -0 0
    outer loop
      vertex -3.35822 -0.986063 80
      vertex -3.35822 0.986063 60
      vertex -3.35822 0.986063 80
    endloop
  endfacet
  facet normal 1 0 0
    outer loop
      vertex -3.35822 0.986063 60
      vertex -3.35822 -0.986063 80
      vertex -3.35822 -0.986063 60
    endloop
  endfacet
  facet normal 0.415415 -0.909632 0
    outer loop
      vertex -2.29201 2.64512 60
      vertex -0.498101 3.46437 80
      vertex -2.29201 2.64512 80
    endloop
  endfacet
  facet normal 0.415415 -0.909632 0
    outer loop
      vertex -0.498101 3.46437 80
      vertex -2.29201 2.64512 60
      vertex -0.498101 3.46437 60
    endloop
  endfacet
  facet normal 0.841254 -0.540641 0
    outer loop
      vertex -3.35822 0.986063 80
      vertex -2.29201 2.64512 60
      vertex -2.29201 2.64512 80
    endloop
  endfacet
  facet normal 0.841254 -0.540641 0
    outer loop
      vertex -2.29201 2.64512 60
      vertex -3.35822 0.986063 80
      vertex -3.35822 0.986063 60
    endloop
  endfacet
  facet normal -0.142315 0.989821 0
    outer loop
      vertex 1.45395 -3.18371 60
      vertex -0.498101 -3.46437 80
      vertex 1.45395 -3.18371 80
    endloop
  endfacet
  facet normal -0.142315 0.989821 0
    outer loop
      vertex -0.498101 -3.46437 80
      vertex 1.45395 -3.18371 60
      vertex -0.498101 -3.46437 60
    endloop
  endfacet
  facet normal -0.654861 0.75575 0
    outer loop
      vertex 2.94439 -1.89224 60
      vertex 1.45395 -3.18371 80
      vertex 2.94439 -1.89224 80
    endloop
  endfacet
  facet normal -0.654861 0.75575 0
    outer loop
      vertex 1.45395 -3.18371 80
      vertex 2.94439 -1.89224 60
      vertex 1.45395 -3.18371 60
    endloop
  endfacet
  facet normal -0.142315 -0.989821 0
    outer loop
      vertex -0.498101 3.46437 60
      vertex 1.45395 3.18371 80
      vertex -0.498101 3.46437 80
    endloop
  endfacet
  facet normal -0.142315 -0.989821 -0
    outer loop
      vertex 1.45395 3.18371 80
      vertex -0.498101 3.46437 60
      vertex 1.45395 3.18371 60
    endloop
  endfacet
  facet normal -0.654861 -0.75575 0
    outer loop
      vertex 1.45395 3.18371 60
      vertex 2.94439 1.89224 80
      vertex 1.45395 3.18371 80
    endloop
  endfacet
  facet normal -0.654861 -0.75575 -0
    outer loop
      vertex 2.94439 1.89224 80
      vertex 1.45395 3.18371 60
      vertex 2.94439 1.89224 60
    endloop
  endfacet
  facet normal -0.959493 0.281733 0
    outer loop
      vertex 2.94439 -1.89224 60
      vertex 3.5 0 80
      vertex 3.5 0 60
    endloop
  endfacet
  facet normal -0.959493 0.281733 0
    outer loop
      vertex 3.5 0 80
      vertex 2.94439 -1.89224 60
      vertex 2.94439 -1.89224 80
    endloop
  endfacet
  facet normal 0.415415 0.909632 -0
    outer loop
      vertex -0.498101 -3.46437 60
      vertex -2.29201 -2.64512 80
      vertex -0.498101 -3.46437 80
    endloop
  endfacet
  facet normal 0.415415 0.909632 0
    outer loop
      vertex -2.29201 -2.64512 80
      vertex -0.498101 -3.46437 60
      vertex -2.29201 -2.64512 60
    endloop
  endfacet
  facet normal 0.841254 0.540641 0
    outer loop
      vertex -2.29201 -2.64512 80
      vertex -3.35822 -0.986063 60
      vertex -3.35822 -0.986063 80
    endloop
  endfacet
  facet normal 0.841254 0.540641 0
    outer loop
      vertex -3.35822 -0.986063 60
      vertex -2.29201 -2.64512 80
      vertex -2.29201 -2.64512 60
    endloop
  endfacet
  facet normal 0.986361 0.164595 0
    outer loop
      vertex 6 0 60
      vertex 5.6749 1.9482 0
      vertex 5.6749 1.9482 60
    endloop
  endfacet
  facet normal 0.986361 0.164595 0
    outer loop
      vertex 5.6749 1.9482 0
      vertex 6 0 60
      vertex 6 0 0
    endloop
  endfacet
  facet normal -1 0 0
    outer loop
      vertex -5.91817 -0.987567 0
      vertex -5.91817 0.987567 60
      vertex -5.91817 0.987567 0
    endloop
  endfacet
  facet normal -1 -0 0
    outer loop
      vertex -5.91817 0.987567 60
      vertex -5.91817 -0.987567 0
      vertex -5.91817 -0.987567 60
    endloop
  endfacet
  facet normal 0.0825792 0.996585 -0
    outer loop
      vertex 1.47291 5.8164 0
      vertex -0.495476 5.97951 60
      vertex 1.47291 5.8164 60
    endloop
  endfacet
  facet normal 0.0825792 0.996585 0
    outer loop
      vertex -0.495476 5.97951 60
      vertex 1.47291 5.8164 0
      vertex -0.495476 5.97951 0
    endloop
  endfacet
  facet normal 0.0825792 -0.996585 0
    outer loop
      vertex -0.495476 -5.97951 0
      vertex 1.47291 -5.8164 60
      vertex -0.495476 -5.97951 60
    endloop
  endfacet
  facet normal 0.0825792 -0.996585 0
    outer loop
      vertex 1.47291 -5.8164 60
      vertex -0.495476 -5.97951 0
      vertex 1.47291 -5.8164 0
    endloop
  endfacet
  facet normal 0.401695 -0.915773 0
    outer loop
      vertex 1.47291 -5.8164 0
      vertex 3.28169 -5.023 60
      vertex 1.47291 -5.8164 60
    endloop
  endfacet
  facet normal 0.401695 -0.915773 0
    outer loop
      vertex 3.28169 -5.023 60
      vertex 1.47291 -5.8164 0
      vertex 3.28169 -5.023 0
    endloop
  endfacet
  facet normal 0 0 -1
    outer loop
      vertex 4.25 0 0
      vertex 6 0 0
      vertex 5.6749 -1.9482 0
    endloop
  endfacet
  facet normal 0 0 -1
    outer loop
      vertex 3.82912 -1.84401 0
      vertex 5.6749 -1.9482 0
      vertex 4.73484 -3.68528 0
    endloop
  endfacet
  facet normal 0 0 -1
    outer loop
      vertex 6 0 0
      vertex 4.25 0 0
      vertex 5.6749 1.9482 0
    endloop
  endfacet
  facet normal 0 0 -1
    outer loop
      vertex 3.82912 1.84401 0
      vertex 5.6749 1.9482 0
      vertex 4.25 0 0
    endloop
  endfacet
  facet normal 0 0 -1
    outer loop
      vertex 5.6749 -1.9482 0
      vertex 3.82912 -1.84401 0
      vertex 4.25 0 0
    endloop
  endfacet
  facet normal 0 0 -1
    outer loop
      vertex 2.64983 -3.32278 0
      vertex 4.73484 -3.68528 0
      vertex 3.28169 -5.023 0
    endloop
  endfacet
  facet normal 0 0 -1
    outer loop
      vertex 4.73484 -3.68528 0
      vertex 2.64983 -3.32278 0
      vertex 3.82912 -1.84401 0
    endloop
  endfacet
  facet normal 0 0 -1
    outer loop
      vertex 0.945713 -4.14344 0
      vertex 3.28169 -5.023 0
      vertex 1.47291 -5.8164 0
    endloop
  endfacet
  facet normal 0 0 -1
    outer loop
      vertex 3.28169 -5.023 0
      vertex 0.945713 -4.14344 0
      vertex 2.64983 -3.32278 0
    endloop
  endfacet
  facet normal 0 0 -1
    outer loop
      vertex -0.495476 -5.97951 0
      vertex 0.945713 -4.14344 0
      vertex 1.47291 -5.8164 0
    endloop
  endfacet
  facet normal 0 0 -1
    outer loop
      vertex -0.495476 -5.97951 0
      vertex -0.945713 -4.14344 0
      vertex 0.945713 -4.14344 0
    endloop
  endfacet
  facet normal 0 0 -1
    outer loop
      vertex -2.41017 -5.49464 0
      vertex -0.945713 -4.14344 0
      vertex -0.495476 -5.97951 0
    endloop
  endfacet
  facet normal 0 0 -1
    outer loop
      vertex -2.41017 -5.49464 0
      vertex -2.64983 -3.32278 0
      vertex -0.945713 -4.14344 0
    endloop
  endfacet
  facet normal 0 0 -1
    outer loop
      vertex -4.06369 -4.41434 0
      vertex -2.64983 -3.32278 0
      vertex -2.41017 -5.49464 0
    endloop
  endfacet
  facet normal -0 0 -1
    outer loop
      vertex -2.64983 -3.32278 0
      vertex -4.06369 -4.41434 0
      vertex -3.82912 -1.84401 0
    endloop
  endfacet
  facet normal 0 0 -1
    outer loop
      vertex -5.27684 -2.85568 0
      vertex -3.82912 -1.84401 0
      vertex -4.06369 -4.41434 0
    endloop
  endfacet
  facet normal 0 0 -1
    outer loop
      vertex -5.91817 -0.987567 0
      vertex -3.82912 -1.84401 0
      vertex -5.27684 -2.85568 0
    endloop
  endfacet
  facet normal -0 0 -1
    outer loop
      vertex 5.6749 1.9482 0
      vertex 3.82912 1.84401 0
      vertex 4.73484 3.68528 0
    endloop
  endfacet
  facet normal 0 0 -1
    outer loop
      vertex 2.64983 3.32278 0
      vertex 4.73484 3.68528 0
      vertex 3.82912 1.84401 0
    endloop
  endfacet
  facet normal -0 0 -1
    outer loop
      vertex 4.73484 3.68528 0
      vertex 2.64983 3.32278 0
      vertex 3.28169 5.023 0
    endloop
  endfacet
  facet normal 0 0 -1
    outer loop
      vertex 0.945713 4.14344 0
      vertex 3.28169 5.023 0
      vertex 2.64983 3.32278 0
    endloop
  endfacet
  facet normal -0 0 -1
    outer loop
      vertex 3.28169 5.023 0
      vertex 0.945713 4.14344 0
      vertex 1.47291 5.8164 0
    endloop
  endfacet
  facet normal 0 0 -1
    outer loop
      vertex 0.945713 4.14344 0
      vertex -0.495476 5.97951 0
      vertex 1.47291 5.8164 0
    endloop
  endfacet
  facet normal 0 0 -1
    outer loop
      vertex -0.945713 4.14344 0
      vertex -0.495476 5.97951 0
      vertex 0.945713 4.14344 0
    endloop
  endfacet
  facet normal 0 0 -1
    outer loop
      vertex -0.945713 4.14344 0
      vertex -2.41017 5.49464 0
      vertex -0.495476 5.97951 0
    endloop
  endfacet
  facet normal 0 0 -1
    outer loop
      vertex -2.64983 3.32278 0
      vertex -2.41017 5.49464 0
      vertex -0.945713 4.14344 0
    endloop
  endfacet
  facet normal 0 0 -1
    outer loop
      vertex -4.06369 4.41434 0
      vertex -2.64983 3.32278 0
      vertex -3.82912 1.84401 0
    endloop
  endfacet
  facet normal 0 0 -1
    outer loop
      vertex -2.64983 3.32278 0
      vertex -4.06369 4.41434 0
      vertex -2.41017 5.49464 0
    endloop
  endfacet
  facet normal 0 0 -1
    outer loop
      vertex -5.91817 0.987567 0
      vertex -3.82912 1.84401 0
      vertex -4.25 0 0
    endloop
  endfacet
  facet normal 0 0 -1
    outer loop
      vertex -3.82912 -1.84401 0
      vertex -5.91817 -0.987567 0
      vertex -4.25 0 0
    endloop
  endfacet
  facet normal 0 0 -1
    outer loop
      vertex -3.82912 1.84401 0
      vertex -5.27684 2.85568 0
      vertex -4.06369 4.41434 0
    endloop
  endfacet
  facet normal 0 0 -1
    outer loop
      vertex -5.91817 0.987567 0
      vertex -4.25 0 0
      vertex -5.91817 -0.987567 0
    endloop
  endfacet
  facet normal -0 0 -1
    outer loop
      vertex -3.82912 1.84401 0
      vertex -5.91817 0.987567 0
      vertex -5.27684 2.85568 0
    endloop
  endfacet
  facet normal 0.677282 0.735724 -0
    outer loop
      vertex 4.73484 3.68528 0
      vertex 3.28169 5.023 60
      vertex 4.73484 3.68528 60
    endloop
  endfacet
  facet normal 0.677282 0.735724 0
    outer loop
      vertex 3.28169 5.023 60
      vertex 4.73484 3.68528 0
      vertex 3.28169 5.023 0
    endloop
  endfacet
  facet normal 0.879474 0.475947 0
    outer loop
      vertex 5.6749 1.9482 60
      vertex 4.73484 3.68528 0
      vertex 4.73484 3.68528 60
    endloop
  endfacet
  facet normal 0.879474 0.475947 0
    outer loop
      vertex 4.73484 3.68528 0
      vertex 5.6749 1.9482 60
      vertex 5.6749 1.9482 0
    endloop
  endfacet
  facet normal 0.401695 0.915773 -0
    outer loop
      vertex 3.28169 5.023 0
      vertex 1.47291 5.8164 60
      vertex 3.28169 5.023 60
    endloop
  endfacet
  facet normal 0.401695 0.915773 0
    outer loop
      vertex 1.47291 5.8164 60
      vertex 3.28169 5.023 0
      vertex 1.47291 5.8164 0
    endloop
  endfacet
  facet normal -0.78914 0.614213 0
    outer loop
      vertex -5.27684 2.85568 0
      vertex -4.06369 4.41434 60
      vertex -4.06369 4.41434 0
    endloop
  endfacet
  facet normal -0.78914 0.614213 0
    outer loop
      vertex -4.06369 4.41434 60
      vertex -5.27684 2.85568 0
      vertex -5.27684 2.85568 60
    endloop
  endfacet
  facet normal -0.945817 0.324699 0
    outer loop
      vertex -5.91817 0.987567 0
      vertex -5.27684 2.85568 60
      vertex -5.27684 2.85568 0
    endloop
  endfacet
  facet normal -0.945817 0.324699 0
    outer loop
      vertex -5.27684 2.85568 60
      vertex -5.91817 0.987567 0
      vertex -5.91817 0.987567 60
    endloop
  endfacet
  facet normal 0 0 1
    outer loop
      vertex 4.25 0 60
      vertex 6 0 60
      vertex 5.6749 1.9482 60
    endloop
  endfacet
  facet normal 0 0 1
    outer loop
      vertex 3.82912 1.84401 60
      vertex 5.6749 1.9482 60
      vertex 4.73484 3.68528 60
    endloop
  endfacet
  facet normal 0 0 1
    outer loop
      vertex 6 0 60
      vertex 4.25 0 60
      vertex 5.6749 -1.9482 60
    endloop
  endfacet
  facet normal -0 0 1
    outer loop
      vertex 3.82912 -1.84401 60
      vertex 5.6749 -1.9482 60
      vertex 4.25 0 60
    endloop
  endfacet
  facet normal 0 0 1
    outer loop
      vertex 5.6749 1.9482 60
      vertex 3.82912 1.84401 60
      vertex 4.25 0 60
    endloop
  endfacet
  facet normal 0 0 1
    outer loop
      vertex 2.64983 3.32278 60
      vertex 4.73484 3.68528 60
      vertex 3.28169 5.023 60
    endloop
  endfacet
  facet normal 0 0 1
    outer loop
      vertex 4.73484 3.68528 60
      vertex 2.64983 3.32278 60
      vertex 3.82912 1.84401 60
    endloop
  endfacet
  facet normal 0 0 1
    outer loop
      vertex 0.945713 4.14344 60
      vertex 3.28169 5.023 60
      vertex 1.47291 5.8164 60
    endloop
  endfacet
  facet normal 0 0 1
    outer loop
      vertex 3.28169 5.023 60
      vertex 0.945713 4.14344 60
      vertex 2.64983 3.32278 60
    endloop
  endfacet
  facet normal 0 0 1
    outer loop
      vertex -0.495476 5.97951 60
      vertex 0.945713 4.14344 60
      vertex 1.47291 5.8164 60
    endloop
  endfacet
  facet normal 0 0 1
    outer loop
      vertex -0.495476 5.97951 60
      vertex -0.945713 4.14344 60
      vertex 0.945713 4.14344 60
    endloop
  endfacet
  facet normal -0 0 1
    outer loop
      vertex -2.41017 5.49464 60
      vertex -0.945713 4.14344 60
      vertex -0.495476 5.97951 60
    endloop
  endfacet
  facet normal 0 0 1
    outer loop
      vertex -2.41017 5.49464 60
      vertex -2.64983 3.32278 60
      vertex -0.945713 4.14344 60
    endloop
  endfacet
  facet normal -0 0 1
    outer loop
      vertex -4.06369 4.41434 60
      vertex -2.64983 3.32278 60
      vertex -2.41017 5.49464 60
    endloop
  endfacet
  facet normal 0 0 1
    outer loop
      vertex -2.64983 3.32278 60
      vertex -4.06369 4.41434 60
      vertex -3.82912 1.84401 60
    endloop
  endfacet
  facet normal -0 0 1
    outer loop
      vertex -5.27684 2.85568 60
      vertex -3.82912 1.84401 60
      vertex -4.06369 4.41434 60
    endloop
  endfacet
  facet normal 0 0 1
    outer loop
      vertex -5.91817 0.987567 60
      vertex -3.82912 1.84401 60
      vertex -5.27684 2.85568 60
    endloop
  endfacet
  facet normal 0 0 1
    outer loop
      vertex 5.6749 -1.9482 60
      vertex 3.82912 -1.84401 60
      vertex 4.73484 -3.68528 60
    endloop
  endfacet
  facet normal -0 0 1
    outer loop
      vertex 2.64983 -3.32278 60
      vertex 4.73484 -3.68528 60
      vertex 3.82912 -1.84401 60
    endloop
  endfacet
  facet normal 0 0 1
    outer loop
      vertex 4.73484 -3.68528 60
      vertex 2.64983 -3.32278 60
      vertex 3.28169 -5.023 60
    endloop
  endfacet
  facet normal -0 0 1
    outer loop
      vertex 0.945713 -4.14344 60
      vertex 3.28169 -5.023 60
      vertex 2.64983 -3.32278 60
    endloop
  endfacet
  facet normal 0 0 1
    outer loop
      vertex 3.28169 -5.023 60
      vertex 0.945713 -4.14344 60
      vertex 1.47291 -5.8164 60
    endloop
  endfacet
  facet normal 0 0 1
    outer loop
      vertex 0.945713 -4.14344 60
      vertex -0.495476 -5.97951 60
      vertex 1.47291 -5.8164 60
    endloop
  endfacet
  facet normal -0 0 1
    outer loop
      vertex -0.945713 -4.14344 60
      vertex -0.495476 -5.97951 60
      vertex 0.945713 -4.14344 60
    endloop
  endfacet
  facet normal 0 0 1
    outer loop
      vertex -0.945713 -4.14344 60
      vertex -2.41017 -5.49464 60
      vertex -0.495476 -5.97951 60
    endloop
  endfacet
  facet normal 0 0 1
    outer loop
      vertex -2.64983 -3.32278 60
      vertex -2.41017 -5.49464 60
      vertex -0.945713 -4.14344 60
    endloop
  endfacet
  facet normal 0 0 1
    outer loop
      vertex -4.06369 -4.41434 60
      vertex -2.64983 -3.32278 60
      vertex -3.82912 -1.84401 60
    endloop
  endfacet
  facet normal 0 0 1
    outer loop
      vertex -2.64983 -3.32278 60
      vertex -4.06369 -4.41434 60
      vertex -2.41017 -5.49464 60
    endloop
  endfacet
  facet normal -0 0 1
    outer loop
      vertex -5.91817 -0.987567 60
      vertex -3.82912 -1.84401 60
      vertex -4.25 0 60
    endloop
  endfacet
  facet normal 0 0 1
    outer loop
      vertex -3.82912 1.84401 60
      vertex -5.91817 0.987567 60
      vertex -4.25 0 60
    endloop
  endfacet
  facet normal 0 0 1
    outer loop
      vertex -3.82912 -1.84401 60
      vertex -5.27684 -2.85568 60
      vertex -4.06369 -4.41434 60
    endloop
  endfacet
  facet normal 0 0 1
    outer loop
      vertex -5.91817 -0.987567 60
      vertex -4.25 0 60
      vertex -5.91817 0.987567 60
    endloop
  endfacet
  facet normal 0 0 1
    outer loop
      vertex -3.82912 -1.84401 60
      vertex -5.91817 -0.987567 60
      vertex -5.27684 -2.85568 60
    endloop
  endfacet
  facet normal -0.245486 0.9694 0
    outer loop
      vertex -0.495476 5.97951 0
      vertex -2.41017 5.49464 60
      vertex -0.495476 5.97951 60
    endloop
  endfacet
  facet normal -0.245486 0.9694 0
    outer loop
      vertex -2.41017 5.49464 60
      vertex -0.495476 5.97951 0
      vertex -2.41017 5.49464 0
    endloop
  endfacet
  facet normal 0.986361 -0.164595 0
    outer loop
      vertex 5.6749 -1.9482 60
      vertex 6 0 0
      vertex 6 0 60
    endloop
  endfacet
  facet normal 0.986361 -0.164595 0
    outer loop
      vertex 6 0 0
      vertex 5.6749 -1.9482 60
      vertex 5.6749 -1.9482 0
    endloop
  endfacet
  facet normal -0.546948 -0.837166 0
    outer loop
      vertex -4.06369 -4.41434 0
      vertex -2.41017 -5.49464 60
      vertex -4.06369 -4.41434 60
    endloop
  endfacet
  facet normal -0.546948 -0.837166 -0
    outer loop
      vertex -2.41017 -5.49464 60
      vertex -4.06369 -4.41434 0
      vertex -2.41017 -5.49464 0
    endloop
  endfacet
  facet normal -0.945817 -0.324699 0
    outer loop
      vertex -5.27684 -2.85568 0
      vertex -5.91817 -0.987567 60
      vertex -5.91817 -0.987567 0
    endloop
  endfacet
  facet normal -0.945817 -0.324699 0
    outer loop
      vertex -5.91817 -0.987567 60
      vertex -5.27684 -2.85568 0
      vertex -5.27684 -2.85568 60
    endloop
  endfacet
  facet normal -0.546948 0.837166 0
    outer loop
      vertex -2.41017 5.49464 0
      vertex -4.06369 4.41434 60
      vertex -2.41017 5.49464 60
    endloop
  endfacet
  facet normal -0.546948 0.837166 0
    outer loop
      vertex -4.06369 4.41434 60
      vertex -2.41017 5.49464 0
      vertex -4.06369 4.41434 0
    endloop
  endfacet
  facet normal -0.245486 -0.9694 0
    outer loop
      vertex -2.41017 -5.49464 0
      vertex -0.495476 -5.97951 60
      vertex -2.41017 -5.49464 60
    endloop
  endfacet
  facet normal -0.245486 -0.9694 -0
    outer loop
      vertex -0.495476 -5.97951 60
      vertex -2.41017 -5.49464 0
      vertex -0.495476 -5.97951 0
    endloop
  endfacet
  facet normal -0.78914 -0.614213 0
    outer loop
      vertex -4.06369 -4.41434 0
      vertex -5.27684 -2.85568 60
      vertex -5.27684 -2.85568 0
    endloop
  endfacet
  facet normal -0.78914 -0.614213 0
    outer loop
      vertex -5.27684 -2.85568 60
      vertex -4.06369 -4.41434 0
      vertex -4.06369 -4.41434 60
    endloop
  endfacet
  facet normal 0.677282 -0.735724 0
    outer loop
      vertex 3.28169 -5.023 0
      vertex 4.73484 -3.68528 60
      vertex 3.28169 -5.023 60
    endloop
  endfacet
  facet normal 0.677282 -0.735724 0
    outer loop
      vertex 4.73484 -3.68528 60
      vertex 3.28169 -5.023 0
      vertex 4.73484 -3.68528 0
    endloop
  endfacet
  facet normal 0.879474 -0.475947 0
    outer loop
      vertex 4.73484 -3.68528 60
      vertex 5.6749 -1.9482 0
      vertex 5.6749 -1.9482 60
    endloop
  endfacet
  facet normal 0.879474 -0.475947 0
    outer loop
      vertex 5.6749 -1.9482 0
      vertex 4.73484 -3.68528 60
      vertex 4.73484 -3.68528 0
    endloop
  endfacet
  facet normal -0.974928 -0.222521 0
    outer loop
      vertex 4.25 0 0
      vertex 3.82912 1.84401 60
      vertex 3.82912 1.84401 0
    endloop
  endfacet
  facet normal -0.974928 -0.222521 0
    outer loop
      vertex 3.82912 1.84401 60
      vertex 4.25 0 0
      vertex 4.25 0 60
    endloop
  endfacet
  facet normal 0.974928 -0.222521 0
    outer loop
      vertex -4.25 0 60
      vertex -3.82912 1.84401 0
      vertex -3.82912 1.84401 60
    endloop
  endfacet
  facet normal 0.974928 -0.222521 0
    outer loop
      vertex -3.82912 1.84401 0
      vertex -4.25 0 60
      vertex -4.25 0 0
    endloop
  endfacet
  facet normal 0 -1 0
    outer loop
      vertex -0.945713 4.14344 0
      vertex 0.945713 4.14344 60
      vertex -0.945713 4.14344 60
    endloop
  endfacet
  facet normal 0 -1 -0
    outer loop
      vertex 0.945713 4.14344 60
      vertex -0.945713 4.14344 0
      vertex 0.945713 4.14344 0
    endloop
  endfacet
  facet normal -0.781831 -0.62349 0
    outer loop
      vertex 3.82912 1.84401 0
      vertex 2.64983 3.32278 60
      vertex 2.64983 3.32278 0
    endloop
  endfacet
  facet normal -0.781831 -0.62349 0
    outer loop
      vertex 2.64983 3.32278 60
      vertex 3.82912 1.84401 0
      vertex 3.82912 1.84401 60
    endloop
  endfacet
  facet normal 0.433884 -0.900969 0
    outer loop
      vertex -2.64983 3.32278 0
      vertex -0.945713 4.14344 60
      vertex -2.64983 3.32278 60
    endloop
  endfacet
  facet normal 0.433884 -0.900969 0
    outer loop
      vertex -0.945713 4.14344 60
      vertex -2.64983 3.32278 0
      vertex -0.945713 4.14344 0
    endloop
  endfacet
  facet normal 0 1 -0
    outer loop
      vertex 0.945713 -4.14344 0
      vertex -0.945713 -4.14344 60
      vertex 0.945713 -4.14344 60
    endloop
  endfacet
  facet normal 0 1 0
    outer loop
      vertex -0.945713 -4.14344 60
      vertex 0.945713 -4.14344 0
      vertex -0.945713 -4.14344 0
    endloop
  endfacet
  facet normal -0.433884 0.900969 0
    outer loop
      vertex 2.64983 -3.32278 0
      vertex 0.945713 -4.14344 60
      vertex 2.64983 -3.32278 60
    endloop
  endfacet
  facet normal -0.433884 0.900969 0
    outer loop
      vertex 0.945713 -4.14344 60
      vertex 2.64983 -3.32278 0
      vertex 0.945713 -4.14344 0
    endloop
  endfacet
  facet normal -0.433884 -0.900969 0
    outer loop
      vertex 0.945713 4.14344 0
      vertex 2.64983 3.32278 60
      vertex 0.945713 4.14344 60
    endloop
  endfacet
  facet normal -0.433884 -0.900969 -0
    outer loop
      vertex 2.64983 3.32278 60
      vertex 0.945713 4.14344 0
      vertex 2.64983 3.32278 0
    endloop
  endfacet
  facet normal 0.781831 -0.62349 0
    outer loop
      vertex -3.82912 1.84401 60
      vertex -2.64983 3.32278 0
      vertex -2.64983 3.32278 60
    endloop
  endfacet
  facet normal 0.781831 -0.62349 0
    outer loop
      vertex -2.64983 3.32278 0
      vertex -3.82912 1.84401 60
      vertex -3.82912 1.84401 0
    endloop
  endfacet
  facet normal 0.433884 0.900969 -0
    outer loop
      vertex -0.945713 -4.14344 0
      vertex -2.64983 -3.32278 60
      vertex -0.945713 -4.14344 60
    endloop
  endfacet
  facet normal 0.433884 0.900969 0
    outer loop
      vertex -2.64983 -3.32278 60
      vertex -0.945713 -4.14344 0
      vertex -2.64983 -3.32278 0
    endloop
  endfacet
  facet normal 0.974928 0.222521 0
    outer loop
      vertex -3.82912 -1.84401 60
      vertex -4.25 0 0
      vertex -4.25 0 60
    endloop
  endfacet
  facet normal 0.974928 0.222521 0
    outer loop
      vertex -4.25 0 0
      vertex -3.82912 -1.84401 60
      vertex -3.82912 -1.84401 0
    endloop
  endfacet
  facet normal -0.781831 0.62349 0
    outer loop
      vertex 2.64983 -3.32278 0
      vertex 3.82912 -1.84401 60
      vertex 3.82912 -1.84401 0
    endloop
  endfacet
  facet normal -0.781831 0.62349 0
    outer loop
      vertex 3.82912 -1.84401 60
      vertex 2.64983 -3.32278 0
      vertex 2.64983 -3.32278 60
    endloop
  endfacet
  facet normal -0.974928 0.222521 0
    outer loop
      vertex 3.82912 -1.84401 0
      vertex 4.25 0 60
      vertex 4.25 0 0
    endloop
  endfacet
  facet normal -0.974928 0.222521 0
    outer loop
      vertex 4.25 0 60
      vertex 3.82912 -1.84401 0
      vertex 3.82912 -1.84401 60
    endloop
  endfacet
  facet normal 0.781831 0.62349 0
    outer loop
      vertex -2.64983 -3.32278 60
      vertex -3.82912 -1.84401 0
      vertex -3.82912 -1.84401 60
    endloop
  endfacet
  facet normal 0.781831 0.62349 0
    outer loop
      vertex -3.82912 -1.84401 0
      vertex -2.64983 -3.32278 60
      vertex -2.64983 -3.32278 0
    endloop
  endfacet
endsolid OpenSCAD_Model
