solid OpenSCAD_Model
  facet normal -1 0 0
    outer loop
      vertex 0 11.174 0
      vertex 0 120 8
      vertex 0 120 0
    endloop
  endfacet
  facet normal -1 -0 0
    outer loop
      vertex 0 120 8
      vertex 0 11.174 0
      vertex 0 11.174 8
    endloop
  endfacet
  facet normal -0 0 1
    outer loop
      vertex 3 35 8
      vertex 17 30 8
      vertex 17 35 8
    endloop
  endfacet
  facet normal 0 0 1
    outer loop
      vertex 17 30 8
      vertex 3 35 8
      vertex 3 30 8
    endloop
  endfacet
  facet normal -0 0 1
    outer loop
      vertex 3 55 8
      vertex 17 50 8
      vertex 17 55 8
    endloop
  endfacet
  facet normal 0 0 1
    outer loop
      vertex 17 50 8
      vertex 3 55 8
      vertex 3 50 8
    endloop
  endfacet
  facet normal -0 0 1
    outer loop
      vertex 3 75 8
      vertex 17 70 8
      vertex 17 75 8
    endloop
  endfacet
  facet normal 0 0 1
    outer loop
      vertex 17 70 8
      vertex 3 75 8
      vertex 3 70 8
    endloop
  endfacet
  facet normal -0 0 1
    outer loop
      vertex 3 95 8
      vertex 17 90 8
      vertex 17 95 8
    endloop
  endfacet
  facet normal 0 0 1
    outer loop
      vertex 17 90 8
      vertex 3 95 8
      vertex 3 90 8
    endloop
  endfacet
  facet normal 0 0 1
    outer loop
      vertex 40 125 8
      vertex 20 120 8
      vertex 40 120 8
    endloop
  endfacet
  facet normal -0 0 1
    outer loop
      vertex 17 55 8
      vertex 20 11.174 8
      vertex 20 120 8
    endloop
  endfacet
  facet normal -0 0 1
    outer loop
      vertex 17 30 8
      vertex 20 11.174 8
      vertex 17 35 8
    endloop
  endfacet
  facet normal 0 0 1
    outer loop
      vertex 17 95 8
      vertex 20 120 8
      vertex 17 110 8
    endloop
  endfacet
  facet normal 0 0 1
    outer loop
      vertex 20 120 8
      vertex 3 110 8
      vertex 17 110 8
    endloop
  endfacet
  facet normal 0 0 1
    outer loop
      vertex 0 120 8
      vertex 3 95 8
      vertex 3 110 8
    endloop
  endfacet
  facet normal 0 0 1
    outer loop
      vertex 3 95 8
      vertex 0 120 8
      vertex 3 90 8
    endloop
  endfacet
  facet normal 0 0 1
    outer loop
      vertex 3 90 8
      vertex 0 120 8
      vertex 3 75 8
    endloop
  endfacet
  facet normal 0 0 1
    outer loop
      vertex 3 75 8
      vertex 0 120 8
      vertex 3 70 8
    endloop
  endfacet
  facet normal 0 0 1
    outer loop
      vertex 3 70 8
      vertex 0 120 8
      vertex 3 55 8
    endloop
  endfacet
  facet normal 0 0 1
    outer loop
      vertex 0 11.174 8
      vertex 3 55 8
      vertex 0 120 8
    endloop
  endfacet
  facet normal 0 0 1
    outer loop
      vertex 3 55 8
      vertex 0 11.174 8
      vertex 3 50 8
    endloop
  endfacet
  facet normal 0 0 1
    outer loop
      vertex 3 50 8
      vertex 0 11.174 8
      vertex 3 35 8
    endloop
  endfacet
  facet normal 0 0 1
    outer loop
      vertex 3 30 8
      vertex 0 11.174 8
      vertex 3 15 8
    endloop
  endfacet
  facet normal 0 0 1
    outer loop
      vertex 3 15 8
      vertex 0 11.174 8
      vertex 2.75556 1.94114 8
    endloop
  endfacet
  facet normal -0 0 1
    outer loop
      vertex -0.0369587 11.1472 8
      vertex 2.75556 1.94114 8
      vertex 0 11.174 8
    endloop
  endfacet
  facet normal 0 0 1
    outer loop
      vertex 3 35 8
      vertex 0 11.174 8
      vertex 3 30 8
    endloop
  endfacet
  facet normal 0 0 1
    outer loop
      vertex 20 120 8
      vertex 0 120 8
      vertex 3 110 8
    endloop
  endfacet
  facet normal 0 0 1
    outer loop
      vertex 40 125 8
      vertex 0 120 8
      vertex 20 120 8
    endloop
  endfacet
  facet normal -0 0 1
    outer loop
      vertex -20 125 8
      vertex 0 120 8
      vertex 40 125 8
    endloop
  endfacet
  facet normal 0 0 1
    outer loop
      vertex 0 120 8
      vertex -20 125 8
      vertex -20 120 8
    endloop
  endfacet
  facet normal 0 0 1
    outer loop
      vertex 17.5 0 8
      vertex 25 0 8
      vertex 24.6722 3.11868 8
    endloop
  endfacet
  facet normal 0 0 1
    outer loop
      vertex 17.5 0 8
      vertex 24.6722 3.11868 8
      vertex 23.7032 6.10105 8
    endloop
  endfacet
  facet normal 0 0 1
    outer loop
      vertex 25 0 8
      vertex 17.5 0 8
      vertex 24.6722 -3.11868 8
    endloop
  endfacet
  facet normal 0 0 1
    outer loop
      vertex 17.5 0 8
      vertex 23.7032 6.10105 8
      vertex 22.1353 8.81678 8
    endloop
  endfacet
  facet normal -0 0 1
    outer loop
      vertex 17.2444 -1.94114 8
      vertex 24.6722 -3.11868 8
      vertex 17.5 0 8
    endloop
  endfacet
  facet normal 0 0 1
    outer loop
      vertex 17.5 0 8
      vertex 22.1353 8.81678 8
      vertex 20.037 11.1472 8
    endloop
  endfacet
  facet normal 0 0 1
    outer loop
      vertex 24.6722 -3.11868 8
      vertex 17.2444 -1.94114 8
      vertex 23.7032 -6.10105 8
    endloop
  endfacet
  facet normal 0 0 1
    outer loop
      vertex 17.5 0 8
      vertex 20.037 11.1472 8
      vertex 20 11.174 8
    endloop
  endfacet
  facet normal -0 0 1
    outer loop
      vertex 16.4952 -3.75 8
      vertex 23.7032 -6.10105 8
      vertex 17.2444 -1.94114 8
    endloop
  endfacet
  facet normal 0 0 1
    outer loop
      vertex 23.7032 -6.10105 8
      vertex 16.4952 -3.75 8
      vertex 22.1353 -8.81678 8
    endloop
  endfacet
  facet normal -0 0 1
    outer loop
      vertex 15.3033 -5.3033 8
      vertex 22.1353 -8.81678 8
      vertex 16.4952 -3.75 8
    endloop
  endfacet
  facet normal 0 0 1
    outer loop
      vertex 22.1353 -8.81678 8
      vertex 15.3033 -5.3033 8
      vertex 20.037 -11.1472 8
    endloop
  endfacet
  facet normal -0 0 1
    outer loop
      vertex 13.75 -6.49519 8
      vertex 20.037 -11.1472 8
      vertex 15.3033 -5.3033 8
    endloop
  endfacet
  facet normal 0 0 1
    outer loop
      vertex 20.037 -11.1472 8
      vertex 13.75 -6.49519 8
      vertex 17.5 -12.9904 8
    endloop
  endfacet
  facet normal 0 0 1
    outer loop
      vertex 17.5 -12.9904 8
      vertex 13.75 -6.49519 8
      vertex 14.6353 -14.2658 8
    endloop
  endfacet
  facet normal -0 0 1
    outer loop
      vertex 11.9411 -7.24444 8
      vertex 14.6353 -14.2658 8
      vertex 13.75 -6.49519 8
    endloop
  endfacet
  facet normal 0 0 1
    outer loop
      vertex 11.9411 -7.24444 8
      vertex 11.5679 -14.9178 8
      vertex 14.6353 -14.2658 8
    endloop
  endfacet
  facet normal -0 0 1
    outer loop
      vertex 10 -7.5 8
      vertex 11.5679 -14.9178 8
      vertex 11.9411 -7.24444 8
    endloop
  endfacet
  facet normal 0 0 1
    outer loop
      vertex 10 -7.5 8
      vertex 8.43207 -14.9178 8
      vertex 11.5679 -14.9178 8
    endloop
  endfacet
  facet normal 0 0 1
    outer loop
      vertex 8.05886 -7.24444 8
      vertex 8.43207 -14.9178 8
      vertex 10 -7.5 8
    endloop
  endfacet
  facet normal 0 0 1
    outer loop
      vertex 5.36475 -14.2658 8
      vertex 8.05886 -7.24444 8
      vertex 6.25 -6.49519 8
    endloop
  endfacet
  facet normal 0 0 1
    outer loop
      vertex 8.05886 -7.24444 8
      vertex 5.36475 -14.2658 8
      vertex 8.43207 -14.9178 8
    endloop
  endfacet
  facet normal 0 0 1
    outer loop
      vertex 2.5 -12.9904 8
      vertex 6.25 -6.49519 8
      vertex 4.6967 -5.3033 8
    endloop
  endfacet
  facet normal 0 0 1
    outer loop
      vertex 2.5 -12.9904 8
      vertex 4.6967 -5.3033 8
      vertex 3.50481 -3.75 8
    endloop
  endfacet
  facet normal 0 0 1
    outer loop
      vertex 2.5 -12.9904 8
      vertex 3.50481 -3.75 8
      vertex 2.75556 -1.94114 8
    endloop
  endfacet
  facet normal 0 0 1
    outer loop
      vertex 6.25 -6.49519 8
      vertex 2.5 -12.9904 8
      vertex 5.36475 -14.2658 8
    endloop
  endfacet
  facet normal 0 0 1
    outer loop
      vertex 2.5 -12.9904 8
      vertex 2.75556 -1.94114 8
      vertex 2.5 0 8
    endloop
  endfacet
  facet normal 0 0 1
    outer loop
      vertex 17 90 8
      vertex 20 120 8
      vertex 17 95 8
    endloop
  endfacet
  facet normal 0 0 1
    outer loop
      vertex 17 75 8
      vertex 20 120 8
      vertex 17 90 8
    endloop
  endfacet
  facet normal 0 0 1
    outer loop
      vertex 17 70 8
      vertex 20 120 8
      vertex 17 75 8
    endloop
  endfacet
  facet normal 0 0 1
    outer loop
      vertex 17 55 8
      vertex 20 120 8
      vertex 17 70 8
    endloop
  endfacet
  facet normal 0 0 1
    outer loop
      vertex 20 11.174 8
      vertex 17 55 8
      vertex 17 50 8
    endloop
  endfacet
  facet normal 0 0 1
    outer loop
      vertex 20 11.174 8
      vertex 17 50 8
      vertex 17 35 8
    endloop
  endfacet
  facet normal -0 0 1
    outer loop
      vertex 17 15 8
      vertex 20 11.174 8
      vertex 17 30 8
    endloop
  endfacet
  facet normal 0 0 1
    outer loop
      vertex 13.75 6.49519 8
      vertex 20 11.174 8
      vertex 17 15 8
    endloop
  endfacet
  facet normal 0 0 1
    outer loop
      vertex 20 11.174 8
      vertex 17.2444 1.94114 8
      vertex 17.5 0 8
    endloop
  endfacet
  facet normal 0 0 1
    outer loop
      vertex 20 11.174 8
      vertex 16.4952 3.75 8
      vertex 17.2444 1.94114 8
    endloop
  endfacet
  facet normal 0 0 1
    outer loop
      vertex 20 11.174 8
      vertex 15.3033 5.3033 8
      vertex 16.4952 3.75 8
    endloop
  endfacet
  facet normal 0 0 1
    outer loop
      vertex 20 11.174 8
      vertex 13.75 6.49519 8
      vertex 15.3033 5.3033 8
    endloop
  endfacet
  facet normal 0 0 1
    outer loop
      vertex 17 15 8
      vertex 11.9411 7.24444 8
      vertex 13.75 6.49519 8
    endloop
  endfacet
  facet normal 0 0 1
    outer loop
      vertex 17 15 8
      vertex 10 7.5 8
      vertex 11.9411 7.24444 8
    endloop
  endfacet
  facet normal -0 0 1
    outer loop
      vertex 3 15 8
      vertex 10 7.5 8
      vertex 17 15 8
    endloop
  endfacet
  facet normal 0 0 1
    outer loop
      vertex 10 7.5 8
      vertex 3 15 8
      vertex 8.05886 7.24444 8
    endloop
  endfacet
  facet normal 0 0 1
    outer loop
      vertex 8.05886 7.24444 8
      vertex 3 15 8
      vertex 6.25 6.49519 8
    endloop
  endfacet
  facet normal 0 0 1
    outer loop
      vertex 6.25 6.49519 8
      vertex 3 15 8
      vertex 4.6967 5.3033 8
    endloop
  endfacet
  facet normal 0 0 1
    outer loop
      vertex 3 15 8
      vertex 3.50481 3.75 8
      vertex 4.6967 5.3033 8
    endloop
  endfacet
  facet normal 0 0 1
    outer loop
      vertex 3.50481 3.75 8
      vertex 3 15 8
      vertex 2.75556 1.94114 8
    endloop
  endfacet
  facet normal -0 0 1
    outer loop
      vertex -2.13525 8.81678 8
      vertex 2.75556 1.94114 8
      vertex -0.0369587 11.1472 8
    endloop
  endfacet
  facet normal -0 0 1
    outer loop
      vertex -3.70318 6.10105 8
      vertex 2.75556 1.94114 8
      vertex -2.13525 8.81678 8
    endloop
  endfacet
  facet normal 0 0 1
    outer loop
      vertex 2.5 0 8
      vertex -0.0369587 -11.1472 8
      vertex 2.5 -12.9904 8
    endloop
  endfacet
  facet normal -0 0 1
    outer loop
      vertex -4.67221 3.11868 8
      vertex 2.75556 1.94114 8
      vertex -3.70318 6.10105 8
    endloop
  endfacet
  facet normal 0 0 1
    outer loop
      vertex 2.5 0 8
      vertex -2.13525 -8.81678 8
      vertex -0.0369587 -11.1472 8
    endloop
  endfacet
  facet normal 0 0 1
    outer loop
      vertex 2.75556 1.94114 8
      vertex -4.67221 3.11868 8
      vertex 2.5 0 8
    endloop
  endfacet
  facet normal 0 0 1
    outer loop
      vertex 2.5 0 8
      vertex -3.70318 -6.10105 8
      vertex -2.13525 -8.81678 8
    endloop
  endfacet
  facet normal 0 0 1
    outer loop
      vertex -5 0 8
      vertex 2.5 0 8
      vertex -4.67221 3.11868 8
    endloop
  endfacet
  facet normal 0 0 1
    outer loop
      vertex 2.5 0 8
      vertex -4.67221 -3.11868 8
      vertex -3.70318 -6.10105 8
    endloop
  endfacet
  facet normal 0 0 1
    outer loop
      vertex 2.5 0 8
      vertex -5 0 8
      vertex -4.67221 -3.11868 8
    endloop
  endfacet
  facet normal 1 -0 0
    outer loop
      vertex 20 11.174 8
      vertex 20 120 0
      vertex 20 120 8
    endloop
  endfacet
  facet normal 1 0 0
    outer loop
      vertex 20 120 0
      vertex 20 11.174 8
      vertex 20 11.174 0
    endloop
  endfacet
  facet normal 0 -1 0
    outer loop
      vertex -13.753 120 5.56366
      vertex -20 120 8
      vertex -15.445 120 5.94986
    endloop
  endfacet
  facet normal 0 -1 0
    outer loop
      vertex -20 120 8
      vertex -16.8019 120 4.86777
      vertex -15.445 120 5.94986
    endloop
  endfacet
  facet normal 0 -1 0
    outer loop
      vertex -20 120 8
      vertex -16.8019 120 3.13223
      vertex -16.8019 120 4.86777
    endloop
  endfacet
  facet normal 0 -1 -0
    outer loop
      vertex -16.8019 120 3.13223
      vertex -20 120 0
      vertex -15.445 120 2.05014
    endloop
  endfacet
  facet normal 0 -1 0
    outer loop
      vertex -20 120 0
      vertex -16.8019 120 3.13223
      vertex -20 120 8
    endloop
  endfacet
  facet normal 0 -1 0
    outer loop
      vertex -20 120 8
      vertex -13.753 120 5.56366
      vertex 0 120 8
    endloop
  endfacet
  facet normal 0 -1 0
    outer loop
      vertex -13 120 4
      vertex 0 120 8
      vertex -13.753 120 5.56366
    endloop
  endfacet
  facet normal 0 -1 0
    outer loop
      vertex 0 120 0
      vertex -13 120 4
      vertex -13.753 120 2.43634
    endloop
  endfacet
  facet normal 0 -1 0
    outer loop
      vertex -20 120 0
      vertex -13.753 120 2.43634
      vertex -15.445 120 2.05014
    endloop
  endfacet
  facet normal 0 -1 0
    outer loop
      vertex -13 120 4
      vertex 0 120 0
      vertex 0 120 8
    endloop
  endfacet
  facet normal 0 -1 0
    outer loop
      vertex 0 120 0
      vertex -13.753 120 2.43634
      vertex -20 120 0
    endloop
  endfacet
  facet normal 0 -1 0
    outer loop
      vertex 20 120 8
      vertex 34.555 120 5.94986
      vertex 40 120 8
    endloop
  endfacet
  facet normal 0 -1 0
    outer loop
      vertex 20 120 8
      vertex 33.1981 120 4.86777
      vertex 34.555 120 5.94986
    endloop
  endfacet
  facet normal 0 -1 0
    outer loop
      vertex 20 120 8
      vertex 33.1981 120 3.13223
      vertex 33.1981 120 4.86777
    endloop
  endfacet
  facet normal 0 -1 0
    outer loop
      vertex 20 120 0
      vertex 33.1981 120 3.13223
      vertex 20 120 8
    endloop
  endfacet
  facet normal 0 -1 -0
    outer loop
      vertex 33.1981 120 3.13223
      vertex 20 120 0
      vertex 34.555 120 2.05014
    endloop
  endfacet
  facet normal 0 -1 0
    outer loop
      vertex 36.247 120 5.56366
      vertex 40 120 8
      vertex 34.555 120 5.94986
    endloop
  endfacet
  facet normal 0 -1 0
    outer loop
      vertex 37 120 4
      vertex 40 120 8
      vertex 36.247 120 5.56366
    endloop
  endfacet
  facet normal 0 -1 0
    outer loop
      vertex 40 120 0
      vertex 37 120 4
      vertex 36.247 120 2.43634
    endloop
  endfacet
  facet normal 0 -1 0
    outer loop
      vertex 37 120 4
      vertex 40 120 0
      vertex 40 120 8
    endloop
  endfacet
  facet normal 0 -1 0
    outer loop
      vertex 34.555 120 2.05014
      vertex 40 120 0
      vertex 36.247 120 2.43634
    endloop
  endfacet
  facet normal 0 -1 0
    outer loop
      vertex 40 120 0
      vertex 34.555 120 2.05014
      vertex 20 120 0
    endloop
  endfacet
  facet normal 0 0 -1
    outer loop
      vertex 17.5 0 0
      vertex 25 0 0
      vertex 24.6722 -3.11868 0
    endloop
  endfacet
  facet normal 0 0 -1
    outer loop
      vertex 17.5 0 0
      vertex 24.6722 -3.11868 0
      vertex 23.7032 -6.10105 0
    endloop
  endfacet
  facet normal 0 0 -1
    outer loop
      vertex 25 0 0
      vertex 17.5 0 0
      vertex 24.6722 3.11868 0
    endloop
  endfacet
  facet normal 0 0 -1
    outer loop
      vertex 17.5 0 0
      vertex 23.7032 -6.10105 0
      vertex 22.1353 -8.81678 0
    endloop
  endfacet
  facet normal 0 0 -1
    outer loop
      vertex 17.2444 1.94114 0
      vertex 24.6722 3.11868 0
      vertex 17.5 0 0
    endloop
  endfacet
  facet normal 0 0 -1
    outer loop
      vertex 17.5 0 0
      vertex 22.1353 -8.81678 0
      vertex 20.037 -11.1472 0
    endloop
  endfacet
  facet normal -0 0 -1
    outer loop
      vertex 24.6722 3.11868 0
      vertex 17.2444 1.94114 0
      vertex 23.7032 6.10105 0
    endloop
  endfacet
  facet normal 0 0 -1
    outer loop
      vertex 16.4952 3.75 0
      vertex 23.7032 6.10105 0
      vertex 17.2444 1.94114 0
    endloop
  endfacet
  facet normal -0 0 -1
    outer loop
      vertex 23.7032 6.10105 0
      vertex 16.4952 3.75 0
      vertex 22.1353 8.81678 0
    endloop
  endfacet
  facet normal 0 0 -1
    outer loop
      vertex 17.5 0 0
      vertex 20.037 -11.1472 0
      vertex 17.5 -12.9904 0
    endloop
  endfacet
  facet normal 0 0 -1
    outer loop
      vertex 20 120 0
      vertex 40 125 0
      vertex 40 120 0
    endloop
  endfacet
  facet normal 0 0 -1
    outer loop
      vertex 15.3033 5.3033 0
      vertex 22.1353 8.81678 0
      vertex 16.4952 3.75 0
    endloop
  endfacet
  facet normal -0 0 -1
    outer loop
      vertex 22.1353 8.81678 0
      vertex 15.3033 5.3033 0
      vertex 20.037 11.1472 0
    endloop
  endfacet
  facet normal 0 0 -1
    outer loop
      vertex 20 11.174 0
      vertex 17 15 0
      vertex 17 30 0
    endloop
  endfacet
  facet normal 0 0 -1
    outer loop
      vertex 17 35 0
      vertex 20 11.174 0
      vertex 17 30 0
    endloop
  endfacet
  facet normal 0 0 -1
    outer loop
      vertex 17 50 0
      vertex 20 11.174 0
      vertex 17 35 0
    endloop
  endfacet
  facet normal 0 0 -1
    outer loop
      vertex 17 55 0
      vertex 20 11.174 0
      vertex 17 50 0
    endloop
  endfacet
  facet normal 0 0 -1
    outer loop
      vertex 20 11.174 0
      vertex 17 55 0
      vertex 20 120 0
    endloop
  endfacet
  facet normal 0 0 -1
    outer loop
      vertex 17 70 0
      vertex 20 120 0
      vertex 17 55 0
    endloop
  endfacet
  facet normal 0 0 -1
    outer loop
      vertex 17 75 0
      vertex 20 120 0
      vertex 17 70 0
    endloop
  endfacet
  facet normal 0 0 -1
    outer loop
      vertex 17 90 0
      vertex 20 120 0
      vertex 17 75 0
    endloop
  endfacet
  facet normal 0 0 -1
    outer loop
      vertex 17 95 0
      vertex 20 120 0
      vertex 17 90 0
    endloop
  endfacet
  facet normal 0 0 -1
    outer loop
      vertex 17 110 0
      vertex 20 120 0
      vertex 17 95 0
    endloop
  endfacet
  facet normal 0 0 -1
    outer loop
      vertex 3 110 0
      vertex 20 120 0
      vertex 17 110 0
    endloop
  endfacet
  facet normal 0 0 -1
    outer loop
      vertex 3 75 0
      vertex 0 120 0
      vertex 3 90 0
    endloop
  endfacet
  facet normal 0 0 -1
    outer loop
      vertex 3 90 0
      vertex 0 120 0
      vertex 3 95 0
    endloop
  endfacet
  facet normal 0 0 -1
    outer loop
      vertex 3 95 0
      vertex 0 120 0
      vertex 3 110 0
    endloop
  endfacet
  facet normal 0 0 -1
    outer loop
      vertex 0 120 0
      vertex 20 120 0
      vertex 3 110 0
    endloop
  endfacet
  facet normal 0 0 -1
    outer loop
      vertex 0 120 0
      vertex 40 125 0
      vertex 20 120 0
    endloop
  endfacet
  facet normal 0 0 -1
    outer loop
      vertex -20 125 0
      vertex 0 120 0
      vertex -20 120 0
    endloop
  endfacet
  facet normal 0 0 -1
    outer loop
      vertex 0 120 0
      vertex -20 125 0
      vertex 40 125 0
    endloop
  endfacet
  facet normal 0 0 -1
    outer loop
      vertex 3 90 0
      vertex 17 95 0
      vertex 17 90 0
    endloop
  endfacet
  facet normal -0 0 -1
    outer loop
      vertex 17 95 0
      vertex 3 90 0
      vertex 3 95 0
    endloop
  endfacet
  facet normal 0 0 -1
    outer loop
      vertex 3 70 0
      vertex 17 75 0
      vertex 17 70 0
    endloop
  endfacet
  facet normal -0 0 -1
    outer loop
      vertex 17 75 0
      vertex 3 70 0
      vertex 3 75 0
    endloop
  endfacet
  facet normal 0 0 -1
    outer loop
      vertex 3 50 0
      vertex 17 55 0
      vertex 17 50 0
    endloop
  endfacet
  facet normal -0 0 -1
    outer loop
      vertex 17 55 0
      vertex 3 50 0
      vertex 3 55 0
    endloop
  endfacet
  facet normal 0 0 -1
    outer loop
      vertex 3 30 0
      vertex 17 35 0
      vertex 17 30 0
    endloop
  endfacet
  facet normal -0 0 -1
    outer loop
      vertex 17 35 0
      vertex 3 30 0
      vertex 3 35 0
    endloop
  endfacet
  facet normal -0 0 -1
    outer loop
      vertex 20.037 11.1472 0
      vertex 15.3033 5.3033 0
      vertex 20 11.174 0
    endloop
  endfacet
  facet normal 0 0 -1
    outer loop
      vertex 13.75 6.49519 0
      vertex 20 11.174 0
      vertex 15.3033 5.3033 0
    endloop
  endfacet
  facet normal -0 0 -1
    outer loop
      vertex 20 11.174 0
      vertex 13.75 6.49519 0
      vertex 17 15 0
    endloop
  endfacet
  facet normal 0 0 -1
    outer loop
      vertex 11.9411 7.24444 0
      vertex 17 15 0
      vertex 13.75 6.49519 0
    endloop
  endfacet
  facet normal 0 0 -1
    outer loop
      vertex 10 7.5 0
      vertex 17 15 0
      vertex 11.9411 7.24444 0
    endloop
  endfacet
  facet normal 0 0 -1
    outer loop
      vertex 3 15 0
      vertex 10 7.5 0
      vertex 8.05886 7.24444 0
    endloop
  endfacet
  facet normal 0 0 -1
    outer loop
      vertex 3 15 0
      vertex 8.05886 7.24444 0
      vertex 6.25 6.49519 0
    endloop
  endfacet
  facet normal 0 0 -1
    outer loop
      vertex 0 11.174 0
      vertex 6.25 6.49519 0
      vertex 4.6967 5.3033 0
    endloop
  endfacet
  facet normal 0 0 -1
    outer loop
      vertex 10 7.5 0
      vertex 3 15 0
      vertex 17 15 0
    endloop
  endfacet
  facet normal 0 0 -1
    outer loop
      vertex 0 11.174 0
      vertex 4.6967 5.3033 0
      vertex 3.50481 3.75 0
    endloop
  endfacet
  facet normal 0 0 -1
    outer loop
      vertex 0 11.174 0
      vertex 2.75556 1.94114 0
      vertex 2.5 0 0
    endloop
  endfacet
  facet normal 0 0 -1
    outer loop
      vertex 6.25 6.49519 0
      vertex 0 11.174 0
      vertex 3 15 0
    endloop
  endfacet
  facet normal -0 0 -1
    outer loop
      vertex 3 15 0
      vertex 0 11.174 0
      vertex 3 30 0
    endloop
  endfacet
  facet normal -0 0 -1
    outer loop
      vertex 3 30 0
      vertex 0 11.174 0
      vertex 3 35 0
    endloop
  endfacet
  facet normal -0 0 -1
    outer loop
      vertex 3 35 0
      vertex 0 11.174 0
      vertex 3 50 0
    endloop
  endfacet
  facet normal -0 0 -1
    outer loop
      vertex 3 50 0
      vertex 0 11.174 0
      vertex 3 55 0
    endloop
  endfacet
  facet normal -0 0 -1
    outer loop
      vertex 3 55 0
      vertex 0 11.174 0
      vertex 3 70 0
    endloop
  endfacet
  facet normal 0 0 -1
    outer loop
      vertex 0 120 0
      vertex 3 70 0
      vertex 0 11.174 0
    endloop
  endfacet
  facet normal 0 0 -1
    outer loop
      vertex 3 70 0
      vertex 0 120 0
      vertex 3 75 0
    endloop
  endfacet
  facet normal 0 0 -1
    outer loop
      vertex 0 11.174 0
      vertex 3.50481 3.75 0
      vertex 2.75556 1.94114 0
    endloop
  endfacet
  facet normal 0 0 -1
    outer loop
      vertex 17.5 -12.9904 0
      vertex 17.2444 -1.94114 0
      vertex 17.5 0 0
    endloop
  endfacet
  facet normal 0 0 -1
    outer loop
      vertex 17.5 -12.9904 0
      vertex 16.4952 -3.75 0
      vertex 17.2444 -1.94114 0
    endloop
  endfacet
  facet normal 0 0 -1
    outer loop
      vertex 17.5 -12.9904 0
      vertex 15.3033 -5.3033 0
      vertex 16.4952 -3.75 0
    endloop
  endfacet
  facet normal 0 0 -1
    outer loop
      vertex 13.75 -6.49519 0
      vertex 17.5 -12.9904 0
      vertex 14.6353 -14.2658 0
    endloop
  endfacet
  facet normal 0 0 -1
    outer loop
      vertex 17.5 -12.9904 0
      vertex 13.75 -6.49519 0
      vertex 15.3033 -5.3033 0
    endloop
  endfacet
  facet normal 0 0 -1
    outer loop
      vertex 14.6353 -14.2658 0
      vertex 11.9411 -7.24444 0
      vertex 13.75 -6.49519 0
    endloop
  endfacet
  facet normal 0 0 -1
    outer loop
      vertex 11.5679 -14.9178 0
      vertex 11.9411 -7.24444 0
      vertex 14.6353 -14.2658 0
    endloop
  endfacet
  facet normal 0 0 -1
    outer loop
      vertex 11.5679 -14.9178 0
      vertex 10 -7.5 0
      vertex 11.9411 -7.24444 0
    endloop
  endfacet
  facet normal 0 0 -1
    outer loop
      vertex 8.43207 -14.9178 0
      vertex 10 -7.5 0
      vertex 11.5679 -14.9178 0
    endloop
  endfacet
  facet normal 0 0 -1
    outer loop
      vertex 8.43207 -14.9178 0
      vertex 8.05886 -7.24444 0
      vertex 10 -7.5 0
    endloop
  endfacet
  facet normal 0 0 -1
    outer loop
      vertex 5.36475 -14.2658 0
      vertex 8.05886 -7.24444 0
      vertex 8.43207 -14.9178 0
    endloop
  endfacet
  facet normal -0 0 -1
    outer loop
      vertex 8.05886 -7.24444 0
      vertex 5.36475 -14.2658 0
      vertex 6.25 -6.49519 0
    endloop
  endfacet
  facet normal 0 0 -1
    outer loop
      vertex 2.5 -12.9904 0
      vertex 6.25 -6.49519 0
      vertex 5.36475 -14.2658 0
    endloop
  endfacet
  facet normal 0 0 -1
    outer loop
      vertex -0.0369587 -11.1472 0
      vertex 6.25 -6.49519 0
      vertex 2.5 -12.9904 0
    endloop
  endfacet
  facet normal -0 0 -1
    outer loop
      vertex 6.25 -6.49519 0
      vertex -0.0369587 -11.1472 0
      vertex 4.6967 -5.3033 0
    endloop
  endfacet
  facet normal 0 0 -1
    outer loop
      vertex -2.13525 -8.81678 0
      vertex 4.6967 -5.3033 0
      vertex -0.0369587 -11.1472 0
    endloop
  endfacet
  facet normal -0 0 -1
    outer loop
      vertex 4.6967 -5.3033 0
      vertex -2.13525 -8.81678 0
      vertex 3.50481 -3.75 0
    endloop
  endfacet
  facet normal 0 0 -1
    outer loop
      vertex -3.70318 -6.10105 0
      vertex 3.50481 -3.75 0
      vertex -2.13525 -8.81678 0
    endloop
  endfacet
  facet normal -0 0 -1
    outer loop
      vertex 3.50481 -3.75 0
      vertex -3.70318 -6.10105 0
      vertex 2.75556 -1.94114 0
    endloop
  endfacet
  facet normal 0 0 -1
    outer loop
      vertex -4.67221 -3.11868 0
      vertex 2.75556 -1.94114 0
      vertex -3.70318 -6.10105 0
    endloop
  endfacet
  facet normal 0 -0 -1
    outer loop
      vertex -0.0369587 11.1472 0
      vertex 2.5 0 0
      vertex -2.13525 8.81678 0
    endloop
  endfacet
  facet normal 0 0 -1
    outer loop
      vertex 2.5 0 0
      vertex -0.0369587 11.1472 0
      vertex 0 11.174 0
    endloop
  endfacet
  facet normal -0 0 -1
    outer loop
      vertex 2.75556 -1.94114 0
      vertex -4.67221 -3.11868 0
      vertex 2.5 0 0
    endloop
  endfacet
  facet normal 0 0 -1
    outer loop
      vertex 2.5 0 0
      vertex -3.70318 6.10105 0
      vertex -2.13525 8.81678 0
    endloop
  endfacet
  facet normal 0 0 -1
    outer loop
      vertex -5 0 0
      vertex 2.5 0 0
      vertex -4.67221 -3.11868 0
    endloop
  endfacet
  facet normal 0 0 -1
    outer loop
      vertex 2.5 0 0
      vertex -4.67221 3.11868 0
      vertex -3.70318 6.10105 0
    endloop
  endfacet
  facet normal 0 0 -1
    outer loop
      vertex 2.5 0 0
      vertex -5 0 0
      vertex -4.67221 3.11868 0
    endloop
  endfacet
  facet normal 1 -0 0
    outer loop
      vertex 3 15 8
      vertex 3 30 0
      vertex 3 30 8
    endloop
  endfacet
  facet normal 1 0 0
    outer loop
      vertex 3 30 0
      vertex 3 15 8
      vertex 3 15 0
    endloop
  endfacet
  facet normal 1 -0 0
    outer loop
      vertex 3 95 8
      vertex 3 110 0
      vertex 3 110 8
    endloop
  endfacet
  facet normal 1 0 0
    outer loop
      vertex 3 110 0
      vertex 3 95 8
      vertex 3 95 0
    endloop
  endfacet
  facet normal 1 -0 0
    outer loop
      vertex 3 75 8
      vertex 3 90 0
      vertex 3 90 8
    endloop
  endfacet
  facet normal 1 0 0
    outer loop
      vertex 3 90 0
      vertex 3 75 8
      vertex 3 75 0
    endloop
  endfacet
  facet normal 1 -0 0
    outer loop
      vertex 3 55 8
      vertex 3 70 0
      vertex 3 70 8
    endloop
  endfacet
  facet normal 1 0 0
    outer loop
      vertex 3 70 0
      vertex 3 55 8
      vertex 3 55 0
    endloop
  endfacet
  facet normal 1 -0 0
    outer loop
      vertex 3 35 8
      vertex 3 50 0
      vertex 3 50 8
    endloop
  endfacet
  facet normal 1 0 0
    outer loop
      vertex 3 50 0
      vertex 3 35 8
      vertex 3 35 0
    endloop
  endfacet
  facet normal -1 0 0
    outer loop
      vertex 17 15 0
      vertex 17 30 8
      vertex 17 30 0
    endloop
  endfacet
  facet normal -1 -0 0
    outer loop
      vertex 17 30 8
      vertex 17 15 0
      vertex 17 15 8
    endloop
  endfacet
  facet normal -1 0 0
    outer loop
      vertex 17 95 0
      vertex 17 110 8
      vertex 17 110 0
    endloop
  endfacet
  facet normal -1 -0 0
    outer loop
      vertex 17 110 8
      vertex 17 95 0
      vertex 17 95 8
    endloop
  endfacet
  facet normal -1 0 0
    outer loop
      vertex 17 75 0
      vertex 17 90 8
      vertex 17 90 0
    endloop
  endfacet
  facet normal -1 -0 0
    outer loop
      vertex 17 90 8
      vertex 17 75 0
      vertex 17 75 8
    endloop
  endfacet
  facet normal -1 0 0
    outer loop
      vertex 17 55 0
      vertex 17 70 8
      vertex 17 70 0
    endloop
  endfacet
  facet normal -1 -0 0
    outer loop
      vertex 17 70 8
      vertex 17 55 0
      vertex 17 55 8
    endloop
  endfacet
  facet normal -1 0 0
    outer loop
      vertex 17 35 0
      vertex 17 50 8
      vertex 17 50 0
    endloop
  endfacet
  facet normal -1 -0 0
    outer loop
      vertex 17 50 8
      vertex 17 35 0
      vertex 17 35 8
    endloop
  endfacet
  facet normal 0 1 -0
    outer loop
      vertex 17 15 0
      vertex 3 15 8
      vertex 17 15 8
    endloop
  endfacet
  facet normal 0 1 0
    outer loop
      vertex 3 15 8
      vertex 17 15 0
      vertex 3 15 0
    endloop
  endfacet
  facet normal 0 -1 0
    outer loop
      vertex 3 30 0
      vertex 17 30 8
      vertex 3 30 8
    endloop
  endfacet
  facet normal 0 -1 -0
    outer loop
      vertex 17 30 8
      vertex 3 30 0
      vertex 17 30 0
    endloop
  endfacet
  facet normal 0 1 -0
    outer loop
      vertex 17 35 0
      vertex 3 35 8
      vertex 17 35 8
    endloop
  endfacet
  facet normal 0 1 0
    outer loop
      vertex 3 35 8
      vertex 17 35 0
      vertex 3 35 0
    endloop
  endfacet
  facet normal 0 -1 0
    outer loop
      vertex 3 50 0
      vertex 17 50 8
      vertex 3 50 8
    endloop
  endfacet
  facet normal 0 -1 -0
    outer loop
      vertex 17 50 8
      vertex 3 50 0
      vertex 17 50 0
    endloop
  endfacet
  facet normal 0 1 -0
    outer loop
      vertex 17 55 0
      vertex 3 55 8
      vertex 17 55 8
    endloop
  endfacet
  facet normal 0 1 0
    outer loop
      vertex 3 55 8
      vertex 17 55 0
      vertex 3 55 0
    endloop
  endfacet
  facet normal 0 1 -0
    outer loop
      vertex 17 75 0
      vertex 3 75 8
      vertex 17 75 8
    endloop
  endfacet
  facet normal 0 1 0
    outer loop
      vertex 3 75 8
      vertex 17 75 0
      vertex 3 75 0
    endloop
  endfacet
  facet normal 0 -1 0
    outer loop
      vertex 3 70 0
      vertex 17 70 8
      vertex 3 70 8
    endloop
  endfacet
  facet normal 0 -1 -0
    outer loop
      vertex 17 70 8
      vertex 3 70 0
      vertex 17 70 0
    endloop
  endfacet
  facet normal 0 -1 0
    outer loop
      vertex 3 90 0
      vertex 17 90 8
      vertex 3 90 8
    endloop
  endfacet
  facet normal 0 -1 -0
    outer loop
      vertex 17 90 8
      vertex 3 90 0
      vertex 17 90 0
    endloop
  endfacet
  facet normal 0 1 -0
    outer loop
      vertex 17 95 0
      vertex 3 95 8
      vertex 17 95 8
    endloop
  endfacet
  facet normal 0 1 0
    outer loop
      vertex 3 95 8
      vertex 17 95 0
      vertex 3 95 0
    endloop
  endfacet
  facet normal 0 -1 0
    outer loop
      vertex 3 110 0
      vertex 17 110 8
      vertex 3 110 8
    endloop
  endfacet
  facet normal 0 -1 -0
    outer loop
      vertex 17 110 8
      vertex 3 110 0
      vertex 17 110 0
    endloop
  endfacet
  facet normal 0.994522 0.104528 0
    outer loop
      vertex 25 0 8
      vertex 24.6722 3.11868 0
      vertex 24.6722 3.11868 8
    endloop
  endfacet
  facet normal 0.994522 0.104528 0
    outer loop
      vertex 24.6722 3.11868 0
      vertex 25 0 8
      vertex 25 0 0
    endloop
  endfacet
  facet normal -0.994522 0.104529 0
    outer loop
      vertex -5 0 0
      vertex -4.67221 3.11868 8
      vertex -4.67221 3.11868 0
    endloop
  endfacet
  facet normal -0.994522 0.104529 0
    outer loop
      vertex -4.67221 3.11868 8
      vertex -5 0 0
      vertex -5 0 8
    endloop
  endfacet
  facet normal 0 -1 0
    outer loop
      vertex 8.43207 -14.9178 0
      vertex 11.5679 -14.9178 8
      vertex 8.43207 -14.9178 8
    endloop
  endfacet
  facet normal 0 -1 -0
    outer loop
      vertex 11.5679 -14.9178 8
      vertex 8.43207 -14.9178 0
      vertex 11.5679 -14.9178 0
    endloop
  endfacet
  facet normal 0.743145 0.66913 0
    outer loop
      vertex 22.1353 8.81678 8
      vertex 20.037 11.1472 0
      vertex 20.037 11.1472 8
    endloop
  endfacet
  facet normal 0.743145 0.66913 0
    outer loop
      vertex 20.037 11.1472 0
      vertex 22.1353 8.81678 8
      vertex 22.1353 8.81678 0
    endloop
  endfacet
  facet normal -0.587779 0.809021 0
    outer loop
      vertex 0 11.174 0
      vertex -0.0369587 11.1472 8
      vertex 0 11.174 8
    endloop
  endfacet
  facet normal -0.587779 0.809021 0
    outer loop
      vertex -0.0369587 11.1472 8
      vertex 0 11.174 0
      vertex -0.0369587 11.1472 0
    endloop
  endfacet
  facet normal 0.866025 0.5 0
    outer loop
      vertex 23.7032 6.10105 8
      vertex 22.1353 8.81678 0
      vertex 22.1353 8.81678 8
    endloop
  endfacet
  facet normal 0.866025 0.5 0
    outer loop
      vertex 22.1353 8.81678 0
      vertex 23.7032 6.10105 8
      vertex 23.7032 6.10105 0
    endloop
  endfacet
  facet normal 0.951057 0.309017 0
    outer loop
      vertex 24.6722 3.11868 8
      vertex 23.7032 6.10105 0
      vertex 23.7032 6.10105 8
    endloop
  endfacet
  facet normal 0.951057 0.309017 0
    outer loop
      vertex 23.7032 6.10105 0
      vertex 24.6722 3.11868 8
      vertex 24.6722 3.11868 0
    endloop
  endfacet
  facet normal 0.587779 0.809021 -0
    outer loop
      vertex 20.037 11.1472 0
      vertex 20 11.174 8
      vertex 20.037 11.1472 8
    endloop
  endfacet
  facet normal 0.587779 0.809021 0
    outer loop
      vertex 20 11.174 8
      vertex 20.037 11.1472 0
      vertex 20 11.174 0
    endloop
  endfacet
  facet normal -0.866025 0.5 0
    outer loop
      vertex -3.70318 6.10105 0
      vertex -2.13525 8.81678 8
      vertex -2.13525 8.81678 0
    endloop
  endfacet
  facet normal -0.866025 0.5 0
    outer loop
      vertex -2.13525 8.81678 8
      vertex -3.70318 6.10105 0
      vertex -3.70318 6.10105 8
    endloop
  endfacet
  facet normal -0.743145 0.669131 0
    outer loop
      vertex -2.13525 8.81678 0
      vertex -0.0369587 11.1472 8
      vertex -0.0369587 11.1472 0
    endloop
  endfacet
  facet normal -0.743145 0.669131 0
    outer loop
      vertex -0.0369587 11.1472 8
      vertex -2.13525 8.81678 0
      vertex -2.13525 8.81678 8
    endloop
  endfacet
  facet normal -0.951057 0.309017 0
    outer loop
      vertex -4.67221 3.11868 0
      vertex -3.70318 6.10105 8
      vertex -3.70318 6.10105 0
    endloop
  endfacet
  facet normal -0.951057 0.309017 0
    outer loop
      vertex -3.70318 6.10105 8
      vertex -4.67221 3.11868 0
      vertex -4.67221 3.11868 8
    endloop
  endfacet
  facet normal 0.994522 -0.104528 0
    outer loop
      vertex 24.6722 -3.11868 8
      vertex 25 0 0
      vertex 25 0 8
    endloop
  endfacet
  facet normal 0.994522 -0.104528 0
    outer loop
      vertex 25 0 0
      vertex 24.6722 -3.11868 8
      vertex 24.6722 -3.11868 0
    endloop
  endfacet
  facet normal 0.207912 -0.978148 0
    outer loop
      vertex 11.5679 -14.9178 0
      vertex 14.6353 -14.2658 8
      vertex 11.5679 -14.9178 8
    endloop
  endfacet
  facet normal 0.207912 -0.978148 0
    outer loop
      vertex 14.6353 -14.2658 8
      vertex 11.5679 -14.9178 0
      vertex 14.6353 -14.2658 0
    endloop
  endfacet
  facet normal 0.866025 -0.5 0
    outer loop
      vertex 22.1353 -8.81678 8
      vertex 23.7032 -6.10105 0
      vertex 23.7032 -6.10105 8
    endloop
  endfacet
  facet normal 0.866025 -0.5 0
    outer loop
      vertex 23.7032 -6.10105 0
      vertex 22.1353 -8.81678 8
      vertex 22.1353 -8.81678 0
    endloop
  endfacet
  facet normal -0.587785 -0.809017 0
    outer loop
      vertex -0.0369587 -11.1472 0
      vertex 2.5 -12.9904 8
      vertex -0.0369587 -11.1472 8
    endloop
  endfacet
  facet normal -0.587785 -0.809017 -0
    outer loop
      vertex 2.5 -12.9904 8
      vertex -0.0369587 -11.1472 0
      vertex 2.5 -12.9904 0
    endloop
  endfacet
  facet normal -0.866025 -0.5 0
    outer loop
      vertex -2.13525 -8.81678 0
      vertex -3.70318 -6.10105 8
      vertex -3.70318 -6.10105 0
    endloop
  endfacet
  facet normal -0.866025 -0.5 0
    outer loop
      vertex -3.70318 -6.10105 8
      vertex -2.13525 -8.81678 0
      vertex -2.13525 -8.81678 8
    endloop
  endfacet
  facet normal -0.743145 -0.669131 0
    outer loop
      vertex -0.0369587 -11.1472 0
      vertex -2.13525 -8.81678 8
      vertex -2.13525 -8.81678 0
    endloop
  endfacet
  facet normal -0.743145 -0.669131 0
    outer loop
      vertex -2.13525 -8.81678 8
      vertex -0.0369587 -11.1472 0
      vertex -0.0369587 -11.1472 8
    endloop
  endfacet
  facet normal 0.587785 -0.809017 0
    outer loop
      vertex 17.5 -12.9904 0
      vertex 20.037 -11.1472 8
      vertex 17.5 -12.9904 8
    endloop
  endfacet
  facet normal 0.587785 -0.809017 0
    outer loop
      vertex 20.037 -11.1472 8
      vertex 17.5 -12.9904 0
      vertex 20.037 -11.1472 0
    endloop
  endfacet
  facet normal 0.406737 -0.913545 0
    outer loop
      vertex 14.6353 -14.2658 0
      vertex 17.5 -12.9904 8
      vertex 14.6353 -14.2658 8
    endloop
  endfacet
  facet normal 0.406737 -0.913545 0
    outer loop
      vertex 17.5 -12.9904 8
      vertex 14.6353 -14.2658 0
      vertex 17.5 -12.9904 0
    endloop
  endfacet
  facet normal 0.951057 -0.309017 0
    outer loop
      vertex 23.7032 -6.10105 8
      vertex 24.6722 -3.11868 0
      vertex 24.6722 -3.11868 8
    endloop
  endfacet
  facet normal 0.951057 -0.309017 0
    outer loop
      vertex 24.6722 -3.11868 0
      vertex 23.7032 -6.10105 8
      vertex 23.7032 -6.10105 0
    endloop
  endfacet
  facet normal -0.207912 -0.978148 0
    outer loop
      vertex 5.36475 -14.2658 0
      vertex 8.43207 -14.9178 8
      vertex 5.36475 -14.2658 8
    endloop
  endfacet
  facet normal -0.207912 -0.978148 -0
    outer loop
      vertex 8.43207 -14.9178 8
      vertex 5.36475 -14.2658 0
      vertex 8.43207 -14.9178 0
    endloop
  endfacet
  facet normal -0.951057 -0.309017 0
    outer loop
      vertex -3.70318 -6.10105 0
      vertex -4.67221 -3.11868 8
      vertex -4.67221 -3.11868 0
    endloop
  endfacet
  facet normal -0.951057 -0.309017 0
    outer loop
      vertex -4.67221 -3.11868 8
      vertex -3.70318 -6.10105 0
      vertex -3.70318 -6.10105 8
    endloop
  endfacet
  facet normal -0.994522 -0.104529 0
    outer loop
      vertex -4.67221 -3.11868 0
      vertex -5 0 8
      vertex -5 0 0
    endloop
  endfacet
  facet normal -0.994522 -0.104529 0
    outer loop
      vertex -5 0 8
      vertex -4.67221 -3.11868 0
      vertex -4.67221 -3.11868 8
    endloop
  endfacet
  facet normal 0.743145 -0.66913 0
    outer loop
      vertex 20.037 -11.1472 8
      vertex 22.1353 -8.81678 0
      vertex 22.1353 -8.81678 8
    endloop
  endfacet
  facet normal 0.743145 -0.66913 0
    outer loop
      vertex 22.1353 -8.81678 0
      vertex 20.037 -11.1472 8
      vertex 20.037 -11.1472 0
    endloop
  endfacet
  facet normal -0.406737 -0.913545 0
    outer loop
      vertex 2.5 -12.9904 0
      vertex 5.36475 -14.2658 8
      vertex 2.5 -12.9904 8
    endloop
  endfacet
  facet normal -0.406737 -0.913545 -0
    outer loop
      vertex 5.36475 -14.2658 8
      vertex 2.5 -12.9904 0
      vertex 5.36475 -14.2658 0
    endloop
  endfacet
  facet normal -0.991445 -0.130527 0
    outer loop
      vertex 17.5 0 0
      vertex 17.2444 1.94114 8
      vertex 17.2444 1.94114 0
    endloop
  endfacet
  facet normal -0.991445 -0.130527 0
    outer loop
      vertex 17.2444 1.94114 8
      vertex 17.5 0 0
      vertex 17.5 0 8
    endloop
  endfacet
  facet normal 0.991445 -0.130527 0
    outer loop
      vertex 2.5 0 8
      vertex 2.75556 1.94114 0
      vertex 2.75556 1.94114 8
    endloop
  endfacet
  facet normal 0.991445 -0.130527 0
    outer loop
      vertex 2.75556 1.94114 0
      vertex 2.5 0 8
      vertex 2.5 0 0
    endloop
  endfacet
  facet normal -0.130527 -0.991445 0
    outer loop
      vertex 10 7.5 0
      vertex 11.9411 7.24444 8
      vertex 10 7.5 8
    endloop
  endfacet
  facet normal -0.130527 -0.991445 -0
    outer loop
      vertex 11.9411 7.24444 8
      vertex 10 7.5 0
      vertex 11.9411 7.24444 0
    endloop
  endfacet
  facet normal 0.130527 0.991445 -0
    outer loop
      vertex 10 -7.5 0
      vertex 8.05886 -7.24444 8
      vertex 10 -7.5 8
    endloop
  endfacet
  facet normal 0.130527 0.991445 0
    outer loop
      vertex 8.05886 -7.24444 8
      vertex 10 -7.5 0
      vertex 8.05886 -7.24444 0
    endloop
  endfacet
  facet normal 0.793354 0.608761 0
    outer loop
      vertex 4.6967 -5.3033 8
      vertex 3.50481 -3.75 0
      vertex 3.50481 -3.75 8
    endloop
  endfacet
  facet normal 0.793354 0.608761 0
    outer loop
      vertex 3.50481 -3.75 0
      vertex 4.6967 -5.3033 8
      vertex 4.6967 -5.3033 0
    endloop
  endfacet
  facet normal -0.793354 -0.608761 0
    outer loop
      vertex 16.4952 3.75 0
      vertex 15.3033 5.3033 8
      vertex 15.3033 5.3033 0
    endloop
  endfacet
  facet normal -0.793354 -0.608761 0
    outer loop
      vertex 15.3033 5.3033 8
      vertex 16.4952 3.75 0
      vertex 16.4952 3.75 8
    endloop
  endfacet
  facet normal -0.92388 -0.382683 0
    outer loop
      vertex 17.2444 1.94114 0
      vertex 16.4952 3.75 8
      vertex 16.4952 3.75 0
    endloop
  endfacet
  facet normal -0.92388 -0.382683 0
    outer loop
      vertex 16.4952 3.75 8
      vertex 17.2444 1.94114 0
      vertex 17.2444 1.94114 8
    endloop
  endfacet
  facet normal -0.608761 -0.793354 0
    outer loop
      vertex 13.75 6.49519 0
      vertex 15.3033 5.3033 8
      vertex 13.75 6.49519 8
    endloop
  endfacet
  facet normal -0.608761 -0.793354 -0
    outer loop
      vertex 15.3033 5.3033 8
      vertex 13.75 6.49519 0
      vertex 15.3033 5.3033 0
    endloop
  endfacet
  facet normal 0.608761 -0.793354 0
    outer loop
      vertex 4.6967 5.3033 0
      vertex 6.25 6.49519 8
      vertex 4.6967 5.3033 8
    endloop
  endfacet
  facet normal 0.608761 -0.793354 0
    outer loop
      vertex 6.25 6.49519 8
      vertex 4.6967 5.3033 0
      vertex 6.25 6.49519 0
    endloop
  endfacet
  facet normal 0.130527 -0.991445 0
    outer loop
      vertex 8.05886 7.24444 0
      vertex 10 7.5 8
      vertex 8.05886 7.24444 8
    endloop
  endfacet
  facet normal 0.130527 -0.991445 0
    outer loop
      vertex 10 7.5 8
      vertex 8.05886 7.24444 0
      vertex 10 7.5 0
    endloop
  endfacet
  facet normal -0.793354 0.608761 0
    outer loop
      vertex 15.3033 -5.3033 0
      vertex 16.4952 -3.75 8
      vertex 16.4952 -3.75 0
    endloop
  endfacet
  facet normal -0.793354 0.608761 0
    outer loop
      vertex 16.4952 -3.75 8
      vertex 15.3033 -5.3033 0
      vertex 15.3033 -5.3033 8
    endloop
  endfacet
  facet normal 0.608761 0.793354 -0
    outer loop
      vertex 6.25 -6.49519 0
      vertex 4.6967 -5.3033 8
      vertex 6.25 -6.49519 8
    endloop
  endfacet
  facet normal 0.608761 0.793354 0
    outer loop
      vertex 4.6967 -5.3033 8
      vertex 6.25 -6.49519 0
      vertex 4.6967 -5.3033 0
    endloop
  endfacet
  facet normal 0.991445 0.130527 0
    outer loop
      vertex 2.75556 -1.94114 8
      vertex 2.5 0 0
      vertex 2.5 0 8
    endloop
  endfacet
  facet normal 0.991445 0.130527 0
    outer loop
      vertex 2.5 0 0
      vertex 2.75556 -1.94114 8
      vertex 2.75556 -1.94114 0
    endloop
  endfacet
  facet normal -0.382683 -0.92388 0
    outer loop
      vertex 11.9411 7.24444 0
      vertex 13.75 6.49519 8
      vertex 11.9411 7.24444 8
    endloop
  endfacet
  facet normal -0.382683 -0.92388 -0
    outer loop
      vertex 13.75 6.49519 8
      vertex 11.9411 7.24444 0
      vertex 13.75 6.49519 0
    endloop
  endfacet
  facet normal 0.793354 -0.608761 0
    outer loop
      vertex 3.50481 3.75 8
      vertex 4.6967 5.3033 0
      vertex 4.6967 5.3033 8
    endloop
  endfacet
  facet normal 0.793354 -0.608761 0
    outer loop
      vertex 4.6967 5.3033 0
      vertex 3.50481 3.75 8
      vertex 3.50481 3.75 0
    endloop
  endfacet
  facet normal 0.923879 -0.382684 0
    outer loop
      vertex 2.75556 1.94114 8
      vertex 3.50481 3.75 0
      vertex 3.50481 3.75 8
    endloop
  endfacet
  facet normal 0.923879 -0.382684 0
    outer loop
      vertex 3.50481 3.75 0
      vertex 2.75556 1.94114 8
      vertex 2.75556 1.94114 0
    endloop
  endfacet
  facet normal 0.382684 -0.923879 0
    outer loop
      vertex 6.25 6.49519 0
      vertex 8.05886 7.24444 8
      vertex 6.25 6.49519 8
    endloop
  endfacet
  facet normal 0.382684 -0.923879 0
    outer loop
      vertex 8.05886 7.24444 8
      vertex 6.25 6.49519 0
      vertex 8.05886 7.24444 0
    endloop
  endfacet
  facet normal -0.130527 0.991445 0
    outer loop
      vertex 11.9411 -7.24444 0
      vertex 10 -7.5 8
      vertex 11.9411 -7.24444 8
    endloop
  endfacet
  facet normal -0.130527 0.991445 0
    outer loop
      vertex 10 -7.5 8
      vertex 11.9411 -7.24444 0
      vertex 10 -7.5 0
    endloop
  endfacet
  facet normal -0.608761 0.793354 0
    outer loop
      vertex 15.3033 -5.3033 0
      vertex 13.75 -6.49519 8
      vertex 15.3033 -5.3033 8
    endloop
  endfacet
  facet normal -0.608761 0.793354 0
    outer loop
      vertex 13.75 -6.49519 8
      vertex 15.3033 -5.3033 0
      vertex 13.75 -6.49519 0
    endloop
  endfacet
  facet normal 0.382683 0.92388 -0
    outer loop
      vertex 8.05886 -7.24444 0
      vertex 6.25 -6.49519 8
      vertex 8.05886 -7.24444 8
    endloop
  endfacet
  facet normal 0.382683 0.92388 0
    outer loop
      vertex 6.25 -6.49519 8
      vertex 8.05886 -7.24444 0
      vertex 6.25 -6.49519 0
    endloop
  endfacet
  facet normal 0.923879 0.382684 0
    outer loop
      vertex 3.50481 -3.75 8
      vertex 2.75556 -1.94114 0
      vertex 2.75556 -1.94114 8
    endloop
  endfacet
  facet normal 0.923879 0.382684 0
    outer loop
      vertex 2.75556 -1.94114 0
      vertex 3.50481 -3.75 8
      vertex 3.50481 -3.75 0
    endloop
  endfacet
  facet normal -0.382683 0.92388 0
    outer loop
      vertex 13.75 -6.49519 0
      vertex 11.9411 -7.24444 8
      vertex 13.75 -6.49519 8
    endloop
  endfacet
  facet normal -0.382683 0.92388 0
    outer loop
      vertex 11.9411 -7.24444 8
      vertex 13.75 -6.49519 0
      vertex 11.9411 -7.24444 0
    endloop
  endfacet
  facet normal -0.92388 0.382683 0
    outer loop
      vertex 16.4952 -3.75 0
      vertex 17.2444 -1.94114 8
      vertex 17.2444 -1.94114 0
    endloop
  endfacet
  facet normal -0.92388 0.382683 0
    outer loop
      vertex 17.2444 -1.94114 8
      vertex 16.4952 -3.75 0
      vertex 16.4952 -3.75 8
    endloop
  endfacet
  facet normal -0.991445 0.130527 0
    outer loop
      vertex 17.2444 -1.94114 0
      vertex 17.5 0 8
      vertex 17.5 0 0
    endloop
  endfacet
  facet normal -0.991445 0.130527 0
    outer loop
      vertex 17.5 0 8
      vertex 17.2444 -1.94114 0
      vertex 17.2444 -1.94114 8
    endloop
  endfacet
  facet normal -1 0 0
    outer loop
      vertex -20 120 0
      vertex -20 125 8
      vertex -20 125 0
    endloop
  endfacet
  facet normal -1 -0 0
    outer loop
      vertex -20 125 8
      vertex -20 120 0
      vertex -20 120 8
    endloop
  endfacet
  facet normal 1 -0 0
    outer loop
      vertex 40 120 8
      vertex 40 125 0
      vertex 40 125 8
    endloop
  endfacet
  facet normal 1 0 0
    outer loop
      vertex 40 125 0
      vertex 40 120 8
      vertex 40 120 0
    endloop
  endfacet
  facet normal 0 1 0
    outer loop
      vertex -20 125 8
      vertex -13.753 125 5.56366
      vertex -15.445 125 5.94986
    endloop
  endfacet
  facet normal 0 1 -0
    outer loop
      vertex 33.1981 125 4.86777
      vertex -13.753 125 5.56366
      vertex 34.555 125 5.94986
    endloop
  endfacet
  facet normal 0 1 0
    outer loop
      vertex 33.1981 125 4.86777
      vertex -13 125 4
      vertex -13.753 125 5.56366
    endloop
  endfacet
  facet normal 0 1 -0
    outer loop
      vertex 33.1981 125 3.13223
      vertex -13 125 4
      vertex 33.1981 125 4.86777
    endloop
  endfacet
  facet normal 0 1 0
    outer loop
      vertex 33.1981 125 3.13223
      vertex -13.753 125 2.43634
      vertex -13 125 4
    endloop
  endfacet
  facet normal 0 1 0
    outer loop
      vertex 34.555 125 2.05014
      vertex -13.753 125 2.43634
      vertex 33.1981 125 3.13223
    endloop
  endfacet
  facet normal 0 1 0
    outer loop
      vertex -20 125 0
      vertex -13.753 125 2.43634
      vertex 34.555 125 2.05014
    endloop
  endfacet
  facet normal 0 1 0
    outer loop
      vertex 40 125 8
      vertex 34.555 125 5.94986
      vertex -20 125 8
    endloop
  endfacet
  facet normal 0 1 0
    outer loop
      vertex 40 125 8
      vertex 36.247 125 5.56366
      vertex 34.555 125 5.94986
    endloop
  endfacet
  facet normal 0 1 0
    outer loop
      vertex 40 125 8
      vertex 37 125 4
      vertex 36.247 125 5.56366
    endloop
  endfacet
  facet normal 0 1 -0
    outer loop
      vertex 40 125 0
      vertex 37 125 4
      vertex 40 125 8
    endloop
  endfacet
  facet normal 0 1 0
    outer loop
      vertex -20 125 0
      vertex 34.555 125 2.05014
      vertex 40 125 0
    endloop
  endfacet
  facet normal 0 1 0
    outer loop
      vertex 36.247 125 2.43634
      vertex 40 125 0
      vertex 34.555 125 2.05014
    endloop
  endfacet
  facet normal 0 1 0
    outer loop
      vertex 37 125 4
      vertex 40 125 0
      vertex 36.247 125 2.43634
    endloop
  endfacet
  facet normal 0 1 -0
    outer loop
      vertex -13.753 125 5.56366
      vertex -20 125 8
      vertex 34.555 125 5.94986
    endloop
  endfacet
  facet normal 0 1 -0
    outer loop
      vertex -16.8019 125 4.86777
      vertex -20 125 8
      vertex -15.445 125 5.94986
    endloop
  endfacet
  facet normal 0 1 -0
    outer loop
      vertex -16.8019 125 3.13223
      vertex -20 125 8
      vertex -16.8019 125 4.86777
    endloop
  endfacet
  facet normal 0 1 0
    outer loop
      vertex -16.8019 125 3.13223
      vertex -20 125 0
      vertex -20 125 8
    endloop
  endfacet
  facet normal 0 1 0
    outer loop
      vertex -15.445 125 2.05014
      vertex -20 125 0
      vertex -16.8019 125 3.13223
    endloop
  endfacet
  facet normal 0 1 0
    outer loop
      vertex -13.753 125 2.43634
      vertex -20 125 0
      vertex -15.445 125 2.05014
    endloop
  endfacet
  facet normal -0.900969 0 -0.433884
    outer loop
      vertex -13 120 4
      vertex -13.753 125 5.56366
      vertex -13 125 4
    endloop
  endfacet
  facet normal -0.900969 -0 -0.433884
    outer loop
      vertex -13.753 125 5.56366
      vertex -13 120 4
      vertex -13.753 120 5.56366
    endloop
  endfacet
  facet normal -0.222521 0 -0.974928
    outer loop
      vertex -15.445 120 5.94986
      vertex -13.753 125 5.56366
      vertex -13.753 120 5.56366
    endloop
  endfacet
  facet normal -0.222521 0 -0.974928
    outer loop
      vertex -13.753 125 5.56366
      vertex -15.445 120 5.94986
      vertex -15.445 125 5.94986
    endloop
  endfacet
  facet normal 0.62349 0 0.781831
    outer loop
      vertex -16.8019 125 3.13223
      vertex -15.445 120 2.05014
      vertex -15.445 125 2.05014
    endloop
  endfacet
  facet normal 0.62349 0 0.781831
    outer loop
      vertex -15.445 120 2.05014
      vertex -16.8019 125 3.13223
      vertex -16.8019 120 3.13223
    endloop
  endfacet
  facet normal 0.62349 0 -0.781831
    outer loop
      vertex -16.8019 120 4.86777
      vertex -15.445 125 5.94986
      vertex -15.445 120 5.94986
    endloop
  endfacet
  facet normal 0.62349 0 -0.781831
    outer loop
      vertex -15.445 125 5.94986
      vertex -16.8019 120 4.86777
      vertex -16.8019 125 4.86777
    endloop
  endfacet
  facet normal 1 -0 0
    outer loop
      vertex -16.8019 120 4.86777
      vertex -16.8019 125 3.13223
      vertex -16.8019 125 4.86777
    endloop
  endfacet
  facet normal 1 0 0
    outer loop
      vertex -16.8019 125 3.13223
      vertex -16.8019 120 4.86777
      vertex -16.8019 120 3.13223
    endloop
  endfacet
  facet normal -0.222521 0 0.974928
    outer loop
      vertex -15.445 125 2.05014
      vertex -13.753 120 2.43634
      vertex -13.753 125 2.43634
    endloop
  endfacet
  facet normal -0.222521 0 0.974928
    outer loop
      vertex -13.753 120 2.43634
      vertex -15.445 125 2.05014
      vertex -15.445 120 2.05014
    endloop
  endfacet
  facet normal -0.900969 0 0.433884
    outer loop
      vertex -13.753 120 2.43634
      vertex -13 125 4
      vertex -13.753 125 2.43634
    endloop
  endfacet
  facet normal -0.900969 0 0.433884
    outer loop
      vertex -13 125 4
      vertex -13.753 120 2.43634
      vertex -13 120 4
    endloop
  endfacet
  facet normal -0.900969 0 -0.433884
    outer loop
      vertex 37 120 4
      vertex 36.247 125 5.56366
      vertex 37 125 4
    endloop
  endfacet
  facet normal -0.900969 -0 -0.433884
    outer loop
      vertex 36.247 125 5.56366
      vertex 37 120 4
      vertex 36.247 120 5.56366
    endloop
  endfacet
  facet normal -0.222521 0 -0.974928
    outer loop
      vertex 34.555 120 5.94986
      vertex 36.247 125 5.56366
      vertex 36.247 120 5.56366
    endloop
  endfacet
  facet normal -0.222521 0 -0.974928
    outer loop
      vertex 36.247 125 5.56366
      vertex 34.555 120 5.94986
      vertex 34.555 125 5.94986
    endloop
  endfacet
  facet normal 1 -0 0
    outer loop
      vertex 33.1981 120 4.86777
      vertex 33.1981 125 3.13223
      vertex 33.1981 125 4.86777
    endloop
  endfacet
  facet normal 1 0 0
    outer loop
      vertex 33.1981 125 3.13223
      vertex 33.1981 120 4.86777
      vertex 33.1981 120 3.13223
    endloop
  endfacet
  facet normal 0.62349 0 0.781831
    outer loop
      vertex 33.1981 125 3.13223
      vertex 34.555 120 2.05014
      vertex 34.555 125 2.05014
    endloop
  endfacet
  facet normal 0.62349 0 0.781831
    outer loop
      vertex 34.555 120 2.05014
      vertex 33.1981 125 3.13223
      vertex 33.1981 120 3.13223
    endloop
  endfacet
  facet normal 0.62349 0 -0.781831
    outer loop
      vertex 33.1981 120 4.86777
      vertex 34.555 125 5.94986
      vertex 34.555 120 5.94986
    endloop
  endfacet
  facet normal 0.62349 0 -0.781831
    outer loop
      vertex 34.555 125 5.94986
      vertex 33.1981 120 4.86777
      vertex 33.1981 125 4.86777
    endloop
  endfacet
  facet normal -0.222521 0 0.974928
    outer loop
      vertex 34.555 125 2.05014
      vertex 36.247 120 2.43634
      vertex 36.247 125 2.43634
    endloop
  endfacet
  facet normal -0.222521 0 0.974928
    outer loop
      vertex 36.247 120 2.43634
      vertex 34.555 125 2.05014
      vertex 34.555 120 2.05014
    endloop
  endfacet
  facet normal -0.900969 0 0.433884
    outer loop
      vertex 36.247 120 2.43634
      vertex 37 125 4
      vertex 36.247 125 2.43634
    endloop
  endfacet
  facet normal -0.900969 0 0.433884
    outer loop
      vertex 37 125 4
      vertex 36.247 120 2.43634
      vertex 37 120 4
    endloop
  endfacet
endsolid OpenSCAD_Model
