solid OpenSCAD_Model
  facet normal 0.866025 0.5 0
    outer loop
      vertex 14.5619 6.48338 16
      vertex 12.8957 9.3693 0
      vertex 12.8957 9.3693 16
    endloop
  endfacet
  facet normal 0.866025 0.5 0
    outer loop
      vertex 12.8957 9.3693 0
      vertex 14.5619 6.48338 16
      vertex 14.5619 6.48338 0
    endloop
  endfacet
  facet normal 0.951057 0.309017 0
    outer loop
      vertex 15.5917 3.31411 16
      vertex 14.5619 6.48338 0
      vertex 14.5619 6.48338 16
    endloop
  endfacet
  facet normal 0.951057 0.309017 0
    outer loop
      vertex 14.5619 6.48338 0
      vertex 15.5917 3.31411 16
      vertex 15.5917 3.31411 0
    endloop
  endfacet
  facet normal 0.406737 0.913545 -0
    outer loop
      vertex 7.97 13.8044 0
      vertex 4.92573 15.1598 16
      vertex 7.97 13.8044 16
    endloop
  endfacet
  facet normal 0.406737 0.913545 0
    outer loop
      vertex 4.92573 15.1598 16
      vertex 7.97 13.8044 0
      vertex 4.92573 15.1598 0
    endloop
  endfacet
  facet normal -0.207912 0.978148 0
    outer loop
      vertex -1.66618 15.8527 0
      vertex -4.92573 15.1598 16
      vertex -1.66618 15.8527 16
    endloop
  endfacet
  facet normal -0.207912 0.978148 0
    outer loop
      vertex -4.92573 15.1598 16
      vertex -1.66618 15.8527 0
      vertex -4.92573 15.1598 0
    endloop
  endfacet
  facet normal -0.866025 0.5 0
    outer loop
      vertex -14.5619 6.48338 0
      vertex -12.8957 9.3693 16
      vertex -12.8957 9.3693 0
    endloop
  endfacet
  facet normal -0.866025 0.5 0
    outer loop
      vertex -12.8957 9.3693 16
      vertex -14.5619 6.48338 0
      vertex -14.5619 6.48338 16
    endloop
  endfacet
  facet normal 0.994522 -0.104529 0
    outer loop
      vertex 15.5917 -3.31411 16
      vertex 15.94 0 0
      vertex 15.94 0 16
    endloop
  endfacet
  facet normal 0.994522 -0.104529 0
    outer loop
      vertex 15.94 0 0
      vertex 15.5917 -3.31411 16
      vertex 15.5917 -3.31411 0
    endloop
  endfacet
  facet normal 0.743145 0.669131 0
    outer loop
      vertex 12.8957 9.3693 16
      vertex 10.6659 11.8457 0
      vertex 10.6659 11.8457 16
    endloop
  endfacet
  facet normal 0.743145 0.669131 0
    outer loop
      vertex 10.6659 11.8457 0
      vertex 12.8957 9.3693 16
      vertex 12.8957 9.3693 0
    endloop
  endfacet
  facet normal 0 1 -0
    outer loop
      vertex 1.66618 15.8527 0
      vertex -1.66618 15.8527 16
      vertex 1.66618 15.8527 16
    endloop
  endfacet
  facet normal 0 1 0
    outer loop
      vertex -1.66618 15.8527 16
      vertex 1.66618 15.8527 0
      vertex -1.66618 15.8527 0
    endloop
  endfacet
  facet normal 0.587785 0.809017 -0
    outer loop
      vertex 10.6659 11.8457 0
      vertex 7.97 13.8044 16
      vertex 10.6659 11.8457 16
    endloop
  endfacet
  facet normal 0.587785 0.809017 0
    outer loop
      vertex 7.97 13.8044 16
      vertex 10.6659 11.8457 0
      vertex 7.97 13.8044 0
    endloop
  endfacet
  facet normal -0.994522 0.104529 0
    outer loop
      vertex -15.94 0 0
      vertex -15.5917 3.31411 16
      vertex -15.5917 3.31411 0
    endloop
  endfacet
  facet normal -0.994522 0.104529 0
    outer loop
      vertex -15.5917 3.31411 16
      vertex -15.94 0 0
      vertex -15.94 0 16
    endloop
  endfacet
  facet normal -0.743145 0.669131 0
    outer loop
      vertex -12.8957 9.3693 0
      vertex -10.6659 11.8457 16
      vertex -10.6659 11.8457 0
    endloop
  endfacet
  facet normal -0.743145 0.669131 0
    outer loop
      vertex -10.6659 11.8457 16
      vertex -12.8957 9.3693 0
      vertex -12.8957 9.3693 16
    endloop
  endfacet
  facet normal -0.406737 0.913545 0
    outer loop
      vertex -4.92573 15.1598 0
      vertex -7.97 13.8044 16
      vertex -4.92573 15.1598 16
    endloop
  endfacet
  facet normal -0.406737 0.913545 0
    outer loop
      vertex -7.97 13.8044 16
      vertex -4.92573 15.1598 0
      vertex -7.97 13.8044 0
    endloop
  endfacet
  facet normal -0.587785 0.809017 0
    outer loop
      vertex -7.97 13.8044 0
      vertex -10.6659 11.8457 16
      vertex -7.97 13.8044 16
    endloop
  endfacet
  facet normal -0.587785 0.809017 0
    outer loop
      vertex -10.6659 11.8457 16
      vertex -7.97 13.8044 0
      vertex -10.6659 11.8457 0
    endloop
  endfacet
  facet normal 0.994522 0.104529 0
    outer loop
      vertex 15.94 0 16
      vertex 15.5917 3.31411 0
      vertex 15.5917 3.31411 16
    endloop
  endfacet
  facet normal 0.994522 0.104529 0
    outer loop
      vertex 15.5917 3.31411 0
      vertex 15.94 0 16
      vertex 15.94 0 0
    endloop
  endfacet
  facet normal 0.951057 -0.309017 0
    outer loop
      vertex 14.5619 -6.48338 16
      vertex 15.5917 -3.31411 0
      vertex 15.5917 -3.31411 16
    endloop
  endfacet
  facet normal 0.951057 -0.309017 0
    outer loop
      vertex 15.5917 -3.31411 0
      vertex 14.5619 -6.48338 16
      vertex 14.5619 -6.48338 0
    endloop
  endfacet
  facet normal -0.587785 -0.809017 0
    outer loop
      vertex -10.6659 -11.8457 0
      vertex -7.97 -13.8044 16
      vertex -10.6659 -11.8457 16
    endloop
  endfacet
  facet normal -0.587785 -0.809017 -0
    outer loop
      vertex -7.97 -13.8044 16
      vertex -10.6659 -11.8457 0
      vertex -7.97 -13.8044 0
    endloop
  endfacet
  facet normal -0.866025 -0.5 0
    outer loop
      vertex -12.8957 -9.3693 0
      vertex -14.5619 -6.48338 16
      vertex -14.5619 -6.48338 0
    endloop
  endfacet
  facet normal -0.866025 -0.5 0
    outer loop
      vertex -14.5619 -6.48338 16
      vertex -12.8957 -9.3693 0
      vertex -12.8957 -9.3693 16
    endloop
  endfacet
  facet normal 0.207912 0.978148 -0
    outer loop
      vertex 4.92573 15.1598 0
      vertex 1.66618 15.8527 16
      vertex 4.92573 15.1598 16
    endloop
  endfacet
  facet normal 0.207912 0.978148 0
    outer loop
      vertex 1.66618 15.8527 16
      vertex 4.92573 15.1598 0
      vertex 1.66618 15.8527 0
    endloop
  endfacet
  facet normal 0 0 1
    outer loop
      vertex 14.3 0 16
      vertex 15.94 0 16
      vertex 15.5917 3.31411 16
    endloop
  endfacet
  facet normal 0 0 1
    outer loop
      vertex 13.9875 2.97314 16
      vertex 15.5917 3.31411 16
      vertex 14.5619 6.48338 16
    endloop
  endfacet
  facet normal 0 0 1
    outer loop
      vertex 15.94 0 16
      vertex 14.3 0 16
      vertex 15.5917 -3.31411 16
    endloop
  endfacet
  facet normal -0 0 1
    outer loop
      vertex 13.9875 -2.97314 16
      vertex 15.5917 -3.31411 16
      vertex 14.3 0 16
    endloop
  endfacet
  facet normal 0 0 1
    outer loop
      vertex 15.5917 3.31411 16
      vertex 13.9875 2.97314 16
      vertex 14.3 0 16
    endloop
  endfacet
  facet normal 0 0 1
    outer loop
      vertex 14.5619 6.48338 16
      vertex 13.0637 5.81633 16
      vertex 13.9875 2.97314 16
    endloop
  endfacet
  facet normal 0 0 1
    outer loop
      vertex 12.8957 9.3693 16
      vertex 13.0637 5.81633 16
      vertex 14.5619 6.48338 16
    endloop
  endfacet
  facet normal 0 0 1
    outer loop
      vertex 12.8957 9.3693 16
      vertex 11.5689 8.40533 16
      vertex 13.0637 5.81633 16
    endloop
  endfacet
  facet normal 0 0 1
    outer loop
      vertex 10.6659 11.8457 16
      vertex 11.5689 8.40533 16
      vertex 12.8957 9.3693 16
    endloop
  endfacet
  facet normal 0 0 1
    outer loop
      vertex 10.6659 11.8457 16
      vertex 9.56857 10.627 16
      vertex 11.5689 8.40533 16
    endloop
  endfacet
  facet normal 0 0 1
    outer loop
      vertex 7.97 13.8044 16
      vertex 9.56857 10.627 16
      vertex 10.6659 11.8457 16
    endloop
  endfacet
  facet normal 0 0 1
    outer loop
      vertex 7.97 13.8044 16
      vertex 7.15 12.3842 16
      vertex 9.56857 10.627 16
    endloop
  endfacet
  facet normal 0 0 1
    outer loop
      vertex 4.92573 15.1598 16
      vertex 7.15 12.3842 16
      vertex 7.97 13.8044 16
    endloop
  endfacet
  facet normal 0 0 1
    outer loop
      vertex 4.92573 15.1598 16
      vertex 4.41894 13.6001 16
      vertex 7.15 12.3842 16
    endloop
  endfacet
  facet normal 0 0 1
    outer loop
      vertex 1.66618 15.8527 16
      vertex 4.41894 13.6001 16
      vertex 4.92573 15.1598 16
    endloop
  endfacet
  facet normal 0 0 1
    outer loop
      vertex 1.66618 15.8527 16
      vertex 1.49476 14.2217 16
      vertex 4.41894 13.6001 16
    endloop
  endfacet
  facet normal 0 0 1
    outer loop
      vertex 1.66618 15.8527 16
      vertex -1.49476 14.2217 16
      vertex 1.49476 14.2217 16
    endloop
  endfacet
  facet normal -0 0 1
    outer loop
      vertex -1.66618 15.8527 16
      vertex -1.49476 14.2217 16
      vertex 1.66618 15.8527 16
    endloop
  endfacet
  facet normal 0 0 1
    outer loop
      vertex -1.66618 15.8527 16
      vertex -4.41894 13.6001 16
      vertex -1.49476 14.2217 16
    endloop
  endfacet
  facet normal -0 0 1
    outer loop
      vertex -4.92573 15.1598 16
      vertex -4.41894 13.6001 16
      vertex -1.66618 15.8527 16
    endloop
  endfacet
  facet normal 0 0 1
    outer loop
      vertex -4.92573 15.1598 16
      vertex -7.15 12.3842 16
      vertex -4.41894 13.6001 16
    endloop
  endfacet
  facet normal -0 0 1
    outer loop
      vertex -7.97 13.8044 16
      vertex -7.15 12.3842 16
      vertex -4.92573 15.1598 16
    endloop
  endfacet
  facet normal 0 0 1
    outer loop
      vertex -7.97 13.8044 16
      vertex -9.56857 10.627 16
      vertex -7.15 12.3842 16
    endloop
  endfacet
  facet normal -0 0 1
    outer loop
      vertex -10.6659 11.8457 16
      vertex -9.56857 10.627 16
      vertex -7.97 13.8044 16
    endloop
  endfacet
  facet normal 0 0 1
    outer loop
      vertex -10.6659 11.8457 16
      vertex -11.5689 8.40533 16
      vertex -9.56857 10.627 16
    endloop
  endfacet
  facet normal -0 0 1
    outer loop
      vertex -12.8957 9.3693 16
      vertex -11.5689 8.40533 16
      vertex -10.6659 11.8457 16
    endloop
  endfacet
  facet normal 0 0 1
    outer loop
      vertex -12.8957 9.3693 16
      vertex -13.0637 5.81633 16
      vertex -11.5689 8.40533 16
    endloop
  endfacet
  facet normal -0 0 1
    outer loop
      vertex -14.5619 6.48338 16
      vertex -13.0637 5.81633 16
      vertex -12.8957 9.3693 16
    endloop
  endfacet
  facet normal -0 0 1
    outer loop
      vertex -15.5917 3.31411 16
      vertex -13.9875 2.97314 16
      vertex -14.5619 6.48338 16
    endloop
  endfacet
  facet normal 0 0 1
    outer loop
      vertex -13.0637 5.81633 16
      vertex -14.5619 6.48338 16
      vertex -13.9875 2.97314 16
    endloop
  endfacet
  facet normal 0 0 1
    outer loop
      vertex 15.5917 -3.31411 16
      vertex 13.9875 -2.97314 16
      vertex 14.5619 -6.48338 16
    endloop
  endfacet
  facet normal -0 0 1
    outer loop
      vertex 13.0637 -5.81633 16
      vertex 14.5619 -6.48338 16
      vertex 13.9875 -2.97314 16
    endloop
  endfacet
  facet normal 0 0 1
    outer loop
      vertex 13.0637 -5.81633 16
      vertex 12.8957 -9.3693 16
      vertex 14.5619 -6.48338 16
    endloop
  endfacet
  facet normal -0 0 1
    outer loop
      vertex 11.5689 -8.40533 16
      vertex 12.8957 -9.3693 16
      vertex 13.0637 -5.81633 16
    endloop
  endfacet
  facet normal 0 0 1
    outer loop
      vertex 11.5689 -8.40533 16
      vertex 10.6659 -11.8457 16
      vertex 12.8957 -9.3693 16
    endloop
  endfacet
  facet normal -0 0 1
    outer loop
      vertex 9.56857 -10.627 16
      vertex 10.6659 -11.8457 16
      vertex 11.5689 -8.40533 16
    endloop
  endfacet
  facet normal 0 0 1
    outer loop
      vertex 9.56857 -10.627 16
      vertex 7.97 -13.8044 16
      vertex 10.6659 -11.8457 16
    endloop
  endfacet
  facet normal -0 0 1
    outer loop
      vertex 7.15 -12.3842 16
      vertex 7.97 -13.8044 16
      vertex 9.56857 -10.627 16
    endloop
  endfacet
  facet normal 0 0 1
    outer loop
      vertex 7.15 -12.3842 16
      vertex 4.92573 -15.1598 16
      vertex 7.97 -13.8044 16
    endloop
  endfacet
  facet normal -0 0 1
    outer loop
      vertex 4.41894 -13.6001 16
      vertex 4.92573 -15.1598 16
      vertex 7.15 -12.3842 16
    endloop
  endfacet
  facet normal 0 0 1
    outer loop
      vertex 4.41894 -13.6001 16
      vertex 1.66618 -15.8527 16
      vertex 4.92573 -15.1598 16
    endloop
  endfacet
  facet normal -0 0 1
    outer loop
      vertex 1.49476 -14.2217 16
      vertex 1.66618 -15.8527 16
      vertex 4.41894 -13.6001 16
    endloop
  endfacet
  facet normal -0 0 1
    outer loop
      vertex -1.49476 -14.2217 16
      vertex 1.66618 -15.8527 16
      vertex 1.49476 -14.2217 16
    endloop
  endfacet
  facet normal 0 0 1
    outer loop
      vertex -1.49476 -14.2217 16
      vertex -1.66618 -15.8527 16
      vertex 1.66618 -15.8527 16
    endloop
  endfacet
  facet normal 0 0 1
    outer loop
      vertex -4.41894 -13.6001 16
      vertex -1.66618 -15.8527 16
      vertex -1.49476 -14.2217 16
    endloop
  endfacet
  facet normal 0 0 1
    outer loop
      vertex -4.41894 -13.6001 16
      vertex -4.92573 -15.1598 16
      vertex -1.66618 -15.8527 16
    endloop
  endfacet
  facet normal 0 0 1
    outer loop
      vertex -7.15 -12.3842 16
      vertex -4.92573 -15.1598 16
      vertex -4.41894 -13.6001 16
    endloop
  endfacet
  facet normal 0 0 1
    outer loop
      vertex -7.15 -12.3842 16
      vertex -7.97 -13.8044 16
      vertex -4.92573 -15.1598 16
    endloop
  endfacet
  facet normal 0 0 1
    outer loop
      vertex -9.56857 -10.627 16
      vertex -7.97 -13.8044 16
      vertex -7.15 -12.3842 16
    endloop
  endfacet
  facet normal 0 0 1
    outer loop
      vertex -9.56857 -10.627 16
      vertex -10.6659 -11.8457 16
      vertex -7.97 -13.8044 16
    endloop
  endfacet
  facet normal 0 0 1
    outer loop
      vertex -11.5689 -8.40533 16
      vertex -10.6659 -11.8457 16
      vertex -9.56857 -10.627 16
    endloop
  endfacet
  facet normal 0 0 1
    outer loop
      vertex -11.5689 -8.40533 16
      vertex -12.8957 -9.3693 16
      vertex -10.6659 -11.8457 16
    endloop
  endfacet
  facet normal 0 0 1
    outer loop
      vertex -13.0637 -5.81633 16
      vertex -12.8957 -9.3693 16
      vertex -11.5689 -8.40533 16
    endloop
  endfacet
  facet normal 0 0 1
    outer loop
      vertex -14.5619 -6.48338 16
      vertex -13.0637 -5.81633 16
      vertex -13.9875 -2.97314 16
    endloop
  endfacet
  facet normal 0 0 1
    outer loop
      vertex -13.0637 -5.81633 16
      vertex -14.5619 -6.48338 16
      vertex -12.8957 -9.3693 16
    endloop
  endfacet
  facet normal 0 0 1
    outer loop
      vertex -15.5917 -3.31411 16
      vertex -13.9875 -2.97314 16
      vertex -14.3 0 16
    endloop
  endfacet
  facet normal 0 0 1
    outer loop
      vertex -13.9875 2.97314 16
      vertex -15.5917 3.31411 16
      vertex -14.3 0 16
    endloop
  endfacet
  facet normal 0 0 1
    outer loop
      vertex -15.94 0 16
      vertex -14.3 0 16
      vertex -15.5917 3.31411 16
    endloop
  endfacet
  facet normal 0 0 1
    outer loop
      vertex -13.9875 -2.97314 16
      vertex -15.5917 -3.31411 16
      vertex -14.5619 -6.48338 16
    endloop
  endfacet
  facet normal 0 0 1
    outer loop
      vertex -14.3 0 16
      vertex -15.94 0 16
      vertex -15.5917 -3.31411 16
    endloop
  endfacet
  facet normal -0.951057 0.309017 0
    outer loop
      vertex -15.5917 3.31411 0
      vertex -14.5619 6.48338 16
      vertex -14.5619 6.48338 0
    endloop
  endfacet
  facet normal -0.951057 0.309017 0
    outer loop
      vertex -14.5619 6.48338 16
      vertex -15.5917 3.31411 0
      vertex -15.5917 3.31411 16
    endloop
  endfacet
  facet normal -0.994522 -0.104529 0
    outer loop
      vertex -15.5917 -3.31411 0
      vertex -15.94 0 16
      vertex -15.94 0 0
    endloop
  endfacet
  facet normal -0.994522 -0.104529 0
    outer loop
      vertex -15.94 0 16
      vertex -15.5917 -3.31411 0
      vertex -15.5917 -3.31411 16
    endloop
  endfacet
  facet normal -0.743145 -0.669131 0
    outer loop
      vertex -10.6659 -11.8457 0
      vertex -12.8957 -9.3693 16
      vertex -12.8957 -9.3693 0
    endloop
  endfacet
  facet normal -0.743145 -0.669131 0
    outer loop
      vertex -12.8957 -9.3693 16
      vertex -10.6659 -11.8457 0
      vertex -10.6659 -11.8457 16
    endloop
  endfacet
  facet normal 0.207912 -0.978148 0
    outer loop
      vertex 1.66618 -15.8527 0
      vertex 4.92573 -15.1598 16
      vertex 1.66618 -15.8527 16
    endloop
  endfacet
  facet normal 0.207912 -0.978148 0
    outer loop
      vertex 4.92573 -15.1598 16
      vertex 1.66618 -15.8527 0
      vertex 4.92573 -15.1598 0
    endloop
  endfacet
  facet normal 0.406737 -0.913545 0
    outer loop
      vertex 4.92573 -15.1598 0
      vertex 7.97 -13.8044 16
      vertex 4.92573 -15.1598 16
    endloop
  endfacet
  facet normal 0.406737 -0.913545 0
    outer loop
      vertex 7.97 -13.8044 16
      vertex 4.92573 -15.1598 0
      vertex 7.97 -13.8044 0
    endloop
  endfacet
  facet normal 0.743145 -0.669131 0
    outer loop
      vertex 10.6659 -11.8457 16
      vertex 12.8957 -9.3693 0
      vertex 12.8957 -9.3693 16
    endloop
  endfacet
  facet normal 0.743145 -0.669131 0
    outer loop
      vertex 12.8957 -9.3693 0
      vertex 10.6659 -11.8457 16
      vertex 10.6659 -11.8457 0
    endloop
  endfacet
  facet normal 0.587785 -0.809017 0
    outer loop
      vertex 7.97 -13.8044 0
      vertex 10.6659 -11.8457 16
      vertex 7.97 -13.8044 16
    endloop
  endfacet
  facet normal 0.587785 -0.809017 0
    outer loop
      vertex 10.6659 -11.8457 16
      vertex 7.97 -13.8044 0
      vertex 10.6659 -11.8457 0
    endloop
  endfacet
  facet normal 0.866025 -0.5 0
    outer loop
      vertex 12.8957 -9.3693 16
      vertex 14.5619 -6.48338 0
      vertex 14.5619 -6.48338 16
    endloop
  endfacet
  facet normal 0.866025 -0.5 0
    outer loop
      vertex 14.5619 -6.48338 0
      vertex 12.8957 -9.3693 16
      vertex 12.8957 -9.3693 0
    endloop
  endfacet
  facet normal 0 -1 0
    outer loop
      vertex -1.66618 -15.8527 0
      vertex 1.66618 -15.8527 16
      vertex -1.66618 -15.8527 16
    endloop
  endfacet
  facet normal 0 -1 -0
    outer loop
      vertex 1.66618 -15.8527 16
      vertex -1.66618 -15.8527 0
      vertex 1.66618 -15.8527 0
    endloop
  endfacet
  facet normal -0.207912 -0.978148 0
    outer loop
      vertex -4.92573 -15.1598 0
      vertex -1.66618 -15.8527 16
      vertex -4.92573 -15.1598 16
    endloop
  endfacet
  facet normal -0.207912 -0.978148 -0
    outer loop
      vertex -1.66618 -15.8527 16
      vertex -4.92573 -15.1598 0
      vertex -1.66618 -15.8527 0
    endloop
  endfacet
  facet normal 0 0 -1
    outer loop
      vertex 14.3 0 0
      vertex 15.94 0 0
      vertex 15.5917 -3.31411 0
    endloop
  endfacet
  facet normal 0 0 -1
    outer loop
      vertex 13.9875 -2.97314 0
      vertex 15.5917 -3.31411 0
      vertex 14.5619 -6.48338 0
    endloop
  endfacet
  facet normal 0 0 -1
    outer loop
      vertex 15.94 0 0
      vertex 14.3 0 0
      vertex 15.5917 3.31411 0
    endloop
  endfacet
  facet normal 0 0 -1
    outer loop
      vertex 13.9875 2.97314 0
      vertex 15.5917 3.31411 0
      vertex 14.3 0 0
    endloop
  endfacet
  facet normal 0 0 -1
    outer loop
      vertex 15.5917 -3.31411 0
      vertex 13.9875 -2.97314 0
      vertex 14.3 0 0
    endloop
  endfacet
  facet normal 0 0 -1
    outer loop
      vertex 14.5619 -6.48338 0
      vertex 13.0637 -5.81633 0
      vertex 13.9875 -2.97314 0
    endloop
  endfacet
  facet normal 0 0 -1
    outer loop
      vertex 12.8957 -9.3693 0
      vertex 13.0637 -5.81633 0
      vertex 14.5619 -6.48338 0
    endloop
  endfacet
  facet normal 0 0 -1
    outer loop
      vertex 12.8957 -9.3693 0
      vertex 11.5689 -8.40533 0
      vertex 13.0637 -5.81633 0
    endloop
  endfacet
  facet normal 0 0 -1
    outer loop
      vertex 10.6659 -11.8457 0
      vertex 11.5689 -8.40533 0
      vertex 12.8957 -9.3693 0
    endloop
  endfacet
  facet normal 0 0 -1
    outer loop
      vertex 10.6659 -11.8457 0
      vertex 9.56857 -10.627 0
      vertex 11.5689 -8.40533 0
    endloop
  endfacet
  facet normal 0 0 -1
    outer loop
      vertex 7.97 -13.8044 0
      vertex 9.56857 -10.627 0
      vertex 10.6659 -11.8457 0
    endloop
  endfacet
  facet normal 0 0 -1
    outer loop
      vertex 7.97 -13.8044 0
      vertex 7.15 -12.3842 0
      vertex 9.56857 -10.627 0
    endloop
  endfacet
  facet normal 0 0 -1
    outer loop
      vertex 4.92573 -15.1598 0
      vertex 7.15 -12.3842 0
      vertex 7.97 -13.8044 0
    endloop
  endfacet
  facet normal 0 0 -1
    outer loop
      vertex 4.92573 -15.1598 0
      vertex 4.41894 -13.6001 0
      vertex 7.15 -12.3842 0
    endloop
  endfacet
  facet normal 0 0 -1
    outer loop
      vertex 1.66618 -15.8527 0
      vertex 4.41894 -13.6001 0
      vertex 4.92573 -15.1598 0
    endloop
  endfacet
  facet normal 0 0 -1
    outer loop
      vertex 1.66618 -15.8527 0
      vertex 1.49476 -14.2217 0
      vertex 4.41894 -13.6001 0
    endloop
  endfacet
  facet normal 0 0 -1
    outer loop
      vertex 1.66618 -15.8527 0
      vertex -1.49476 -14.2217 0
      vertex 1.49476 -14.2217 0
    endloop
  endfacet
  facet normal 0 0 -1
    outer loop
      vertex -1.66618 -15.8527 0
      vertex -1.49476 -14.2217 0
      vertex 1.66618 -15.8527 0
    endloop
  endfacet
  facet normal 0 0 -1
    outer loop
      vertex -1.66618 -15.8527 0
      vertex -4.41894 -13.6001 0
      vertex -1.49476 -14.2217 0
    endloop
  endfacet
  facet normal 0 0 -1
    outer loop
      vertex -4.92573 -15.1598 0
      vertex -4.41894 -13.6001 0
      vertex -1.66618 -15.8527 0
    endloop
  endfacet
  facet normal 0 0 -1
    outer loop
      vertex -4.92573 -15.1598 0
      vertex -7.15 -12.3842 0
      vertex -4.41894 -13.6001 0
    endloop
  endfacet
  facet normal 0 0 -1
    outer loop
      vertex -7.97 -13.8044 0
      vertex -7.15 -12.3842 0
      vertex -4.92573 -15.1598 0
    endloop
  endfacet
  facet normal 0 0 -1
    outer loop
      vertex -7.97 -13.8044 0
      vertex -9.56857 -10.627 0
      vertex -7.15 -12.3842 0
    endloop
  endfacet
  facet normal 0 0 -1
    outer loop
      vertex -10.6659 -11.8457 0
      vertex -9.56857 -10.627 0
      vertex -7.97 -13.8044 0
    endloop
  endfacet
  facet normal 0 0 -1
    outer loop
      vertex -10.6659 -11.8457 0
      vertex -11.5689 -8.40533 0
      vertex -9.56857 -10.627 0
    endloop
  endfacet
  facet normal 0 0 -1
    outer loop
      vertex -12.8957 -9.3693 0
      vertex -11.5689 -8.40533 0
      vertex -10.6659 -11.8457 0
    endloop
  endfacet
  facet normal 0 0 -1
    outer loop
      vertex -12.8957 -9.3693 0
      vertex -13.0637 -5.81633 0
      vertex -11.5689 -8.40533 0
    endloop
  endfacet
  facet normal 0 0 -1
    outer loop
      vertex -14.5619 -6.48338 0
      vertex -13.0637 -5.81633 0
      vertex -12.8957 -9.3693 0
    endloop
  endfacet
  facet normal 0 0 -1
    outer loop
      vertex -15.5917 -3.31411 0
      vertex -13.9875 -2.97314 0
      vertex -14.5619 -6.48338 0
    endloop
  endfacet
  facet normal -0 0 -1
    outer loop
      vertex -13.0637 -5.81633 0
      vertex -14.5619 -6.48338 0
      vertex -13.9875 -2.97314 0
    endloop
  endfacet
  facet normal -0 0 -1
    outer loop
      vertex 15.5917 3.31411 0
      vertex 13.9875 2.97314 0
      vertex 14.5619 6.48338 0
    endloop
  endfacet
  facet normal 0 0 -1
    outer loop
      vertex 13.0637 5.81633 0
      vertex 14.5619 6.48338 0
      vertex 13.9875 2.97314 0
    endloop
  endfacet
  facet normal 0 0 -1
    outer loop
      vertex 13.0637 5.81633 0
      vertex 12.8957 9.3693 0
      vertex 14.5619 6.48338 0
    endloop
  endfacet
  facet normal 0 0 -1
    outer loop
      vertex 11.5689 8.40533 0
      vertex 12.8957 9.3693 0
      vertex 13.0637 5.81633 0
    endloop
  endfacet
  facet normal 0 0 -1
    outer loop
      vertex 11.5689 8.40533 0
      vertex 10.6659 11.8457 0
      vertex 12.8957 9.3693 0
    endloop
  endfacet
  facet normal 0 0 -1
    outer loop
      vertex 9.56857 10.627 0
      vertex 10.6659 11.8457 0
      vertex 11.5689 8.40533 0
    endloop
  endfacet
  facet normal 0 0 -1
    outer loop
      vertex 9.56857 10.627 0
      vertex 7.97 13.8044 0
      vertex 10.6659 11.8457 0
    endloop
  endfacet
  facet normal 0 0 -1
    outer loop
      vertex 7.15 12.3842 0
      vertex 7.97 13.8044 0
      vertex 9.56857 10.627 0
    endloop
  endfacet
  facet normal 0 0 -1
    outer loop
      vertex 7.15 12.3842 0
      vertex 4.92573 15.1598 0
      vertex 7.97 13.8044 0
    endloop
  endfacet
  facet normal 0 0 -1
    outer loop
      vertex 4.41894 13.6001 0
      vertex 4.92573 15.1598 0
      vertex 7.15 12.3842 0
    endloop
  endfacet
  facet normal 0 0 -1
    outer loop
      vertex 4.41894 13.6001 0
      vertex 1.66618 15.8527 0
      vertex 4.92573 15.1598 0
    endloop
  endfacet
  facet normal 0 0 -1
    outer loop
      vertex 1.49476 14.2217 0
      vertex 1.66618 15.8527 0
      vertex 4.41894 13.6001 0
    endloop
  endfacet
  facet normal 0 0 -1
    outer loop
      vertex -1.49476 14.2217 0
      vertex 1.66618 15.8527 0
      vertex 1.49476 14.2217 0
    endloop
  endfacet
  facet normal 0 0 -1
    outer loop
      vertex -1.49476 14.2217 0
      vertex -1.66618 15.8527 0
      vertex 1.66618 15.8527 0
    endloop
  endfacet
  facet normal 0 0 -1
    outer loop
      vertex -4.41894 13.6001 0
      vertex -1.66618 15.8527 0
      vertex -1.49476 14.2217 0
    endloop
  endfacet
  facet normal 0 0 -1
    outer loop
      vertex -4.41894 13.6001 0
      vertex -4.92573 15.1598 0
      vertex -1.66618 15.8527 0
    endloop
  endfacet
  facet normal 0 0 -1
    outer loop
      vertex -7.15 12.3842 0
      vertex -4.92573 15.1598 0
      vertex -4.41894 13.6001 0
    endloop
  endfacet
  facet normal 0 0 -1
    outer loop
      vertex -7.15 12.3842 0
      vertex -7.97 13.8044 0
      vertex -4.92573 15.1598 0
    endloop
  endfacet
  facet normal 0 0 -1
    outer loop
      vertex -9.56857 10.627 0
      vertex -7.97 13.8044 0
      vertex -7.15 12.3842 0
    endloop
  endfacet
  facet normal 0 0 -1
    outer loop
      vertex -9.56857 10.627 0
      vertex -10.6659 11.8457 0
      vertex -7.97 13.8044 0
    endloop
  endfacet
  facet normal 0 0 -1
    outer loop
      vertex -11.5689 8.40533 0
      vertex -10.6659 11.8457 0
      vertex -9.56857 10.627 0
    endloop
  endfacet
  facet normal 0 0 -1
    outer loop
      vertex -11.5689 8.40533 0
      vertex -12.8957 9.3693 0
      vertex -10.6659 11.8457 0
    endloop
  endfacet
  facet normal 0 0 -1
    outer loop
      vertex -13.0637 5.81633 0
      vertex -12.8957 9.3693 0
      vertex -11.5689 8.40533 0
    endloop
  endfacet
  facet normal 0 0 -1
    outer loop
      vertex -14.5619 6.48338 0
      vertex -13.0637 5.81633 0
      vertex -13.9875 2.97314 0
    endloop
  endfacet
  facet normal 0 0 -1
    outer loop
      vertex -13.0637 5.81633 0
      vertex -14.5619 6.48338 0
      vertex -12.8957 9.3693 0
    endloop
  endfacet
  facet normal 0 0 -1
    outer loop
      vertex -15.5917 3.31411 0
      vertex -13.9875 2.97314 0
      vertex -14.3 0 0
    endloop
  endfacet
  facet normal -0 0 -1
    outer loop
      vertex -13.9875 -2.97314 0
      vertex -15.5917 -3.31411 0
      vertex -14.3 0 0
    endloop
  endfacet
  facet normal 0 0 -1
    outer loop
      vertex -15.94 0 0
      vertex -14.3 0 0
      vertex -15.5917 -3.31411 0
    endloop
  endfacet
  facet normal 0 0 -1
    outer loop
      vertex -13.9875 2.97314 0
      vertex -15.5917 3.31411 0
      vertex -14.5619 6.48338 0
    endloop
  endfacet
  facet normal 0 0 -1
    outer loop
      vertex -14.3 0 0
      vertex -15.94 0 0
      vertex -15.5917 3.31411 0
    endloop
  endfacet
  facet normal -0.951057 -0.309017 0
    outer loop
      vertex -14.5619 -6.48338 0
      vertex -15.5917 -3.31411 16
      vertex -15.5917 -3.31411 0
    endloop
  endfacet
  facet normal -0.951057 -0.309017 0
    outer loop
      vertex -15.5917 -3.31411 16
      vertex -14.5619 -6.48338 0
      vertex -14.5619 -6.48338 16
    endloop
  endfacet
  facet normal -0.406737 -0.913545 0
    outer loop
      vertex -7.97 -13.8044 0
      vertex -4.92573 -15.1598 16
      vertex -7.97 -13.8044 16
    endloop
  endfacet
  facet normal -0.406737 -0.913545 -0
    outer loop
      vertex -4.92573 -15.1598 16
      vertex -7.97 -13.8044 0
      vertex -4.92573 -15.1598 0
    endloop
  endfacet
  facet normal -0.866025 -0.5 0
    outer loop
      vertex 13.0637 5.81633 0
      vertex 11.5689 8.40533 16
      vertex 11.5689 8.40533 0
    endloop
  endfacet
  facet normal -0.866025 -0.5 0
    outer loop
      vertex 11.5689 8.40533 16
      vertex 13.0637 5.81633 0
      vertex 13.0637 5.81633 16
    endloop
  endfacet
  facet normal 0.951056 -0.309017 0
    outer loop
      vertex -13.9875 2.97314 16
      vertex -13.0637 5.81633 0
      vertex -13.0637 5.81633 16
    endloop
  endfacet
  facet normal 0.951056 -0.309017 0
    outer loop
      vertex -13.0637 5.81633 0
      vertex -13.9875 2.97314 16
      vertex -13.9875 2.97314 0
    endloop
  endfacet
  facet normal -0.743145 -0.669131 0
    outer loop
      vertex 11.5689 8.40533 0
      vertex 9.56857 10.627 16
      vertex 9.56857 10.627 0
    endloop
  endfacet
  facet normal -0.743145 -0.669131 0
    outer loop
      vertex 9.56857 10.627 16
      vertex 11.5689 8.40533 0
      vertex 11.5689 8.40533 16
    endloop
  endfacet
  facet normal -0.207912 -0.978148 0
    outer loop
      vertex 1.49476 14.2217 0
      vertex 4.41894 13.6001 16
      vertex 1.49476 14.2217 16
    endloop
  endfacet
  facet normal -0.207912 -0.978148 -0
    outer loop
      vertex 4.41894 13.6001 16
      vertex 1.49476 14.2217 0
      vertex 4.41894 13.6001 0
    endloop
  endfacet
  facet normal -0.406737 -0.913545 0
    outer loop
      vertex 4.41894 13.6001 0
      vertex 7.15 12.3842 16
      vertex 4.41894 13.6001 16
    endloop
  endfacet
  facet normal -0.406737 -0.913545 -0
    outer loop
      vertex 7.15 12.3842 16
      vertex 4.41894 13.6001 0
      vertex 7.15 12.3842 0
    endloop
  endfacet
  facet normal 0.207912 -0.978148 0
    outer loop
      vertex -4.41894 13.6001 0
      vertex -1.49476 14.2217 16
      vertex -4.41894 13.6001 16
    endloop
  endfacet
  facet normal 0.207912 -0.978148 0
    outer loop
      vertex -1.49476 14.2217 16
      vertex -4.41894 13.6001 0
      vertex -1.49476 14.2217 0
    endloop
  endfacet
  facet normal 0.866025 -0.5 0
    outer loop
      vertex -13.0637 5.81633 16
      vertex -11.5689 8.40533 0
      vertex -11.5689 8.40533 16
    endloop
  endfacet
  facet normal 0.866025 -0.5 0
    outer loop
      vertex -11.5689 8.40533 0
      vertex -13.0637 5.81633 16
      vertex -13.0637 5.81633 0
    endloop
  endfacet
  facet normal -0.994522 0.104528 0
    outer loop
      vertex 13.9875 -2.97314 0
      vertex 14.3 0 16
      vertex 14.3 0 0
    endloop
  endfacet
  facet normal -0.994522 0.104528 0
    outer loop
      vertex 14.3 0 16
      vertex 13.9875 -2.97314 0
      vertex 13.9875 -2.97314 16
    endloop
  endfacet
  facet normal -0.951056 -0.309017 0
    outer loop
      vertex 13.9875 2.97314 0
      vertex 13.0637 5.81633 16
      vertex 13.0637 5.81633 0
    endloop
  endfacet
  facet normal -0.951056 -0.309017 0
    outer loop
      vertex 13.0637 5.81633 16
      vertex 13.9875 2.97314 0
      vertex 13.9875 2.97314 16
    endloop
  endfacet
  facet normal -0.587785 -0.809017 0
    outer loop
      vertex 7.15 12.3842 0
      vertex 9.56857 10.627 16
      vertex 7.15 12.3842 16
    endloop
  endfacet
  facet normal -0.587785 -0.809017 -0
    outer loop
      vertex 9.56857 10.627 16
      vertex 7.15 12.3842 0
      vertex 9.56857 10.627 0
    endloop
  endfacet
  facet normal 0 -1 0
    outer loop
      vertex -1.49476 14.2217 0
      vertex 1.49476 14.2217 16
      vertex -1.49476 14.2217 16
    endloop
  endfacet
  facet normal 0 -1 -0
    outer loop
      vertex 1.49476 14.2217 16
      vertex -1.49476 14.2217 0
      vertex 1.49476 14.2217 0
    endloop
  endfacet
  facet normal 0.994522 -0.104528 0
    outer loop
      vertex -14.3 0 16
      vertex -13.9875 2.97314 0
      vertex -13.9875 2.97314 16
    endloop
  endfacet
  facet normal 0.994522 -0.104528 0
    outer loop
      vertex -13.9875 2.97314 0
      vertex -14.3 0 16
      vertex -14.3 0 0
    endloop
  endfacet
  facet normal 0.743145 -0.669131 0
    outer loop
      vertex -11.5689 8.40533 16
      vertex -9.56857 10.627 0
      vertex -9.56857 10.627 16
    endloop
  endfacet
  facet normal 0.743145 -0.669131 0
    outer loop
      vertex -9.56857 10.627 0
      vertex -11.5689 8.40533 16
      vertex -11.5689 8.40533 0
    endloop
  endfacet
  facet normal 0.406737 -0.913545 0
    outer loop
      vertex -7.15 12.3842 0
      vertex -4.41894 13.6001 16
      vertex -7.15 12.3842 16
    endloop
  endfacet
  facet normal 0.406737 -0.913545 0
    outer loop
      vertex -4.41894 13.6001 16
      vertex -7.15 12.3842 0
      vertex -4.41894 13.6001 0
    endloop
  endfacet
  facet normal 0.587785 -0.809017 0
    outer loop
      vertex -9.56857 10.627 0
      vertex -7.15 12.3842 16
      vertex -9.56857 10.627 16
    endloop
  endfacet
  facet normal 0.587785 -0.809017 0
    outer loop
      vertex -7.15 12.3842 16
      vertex -9.56857 10.627 0
      vertex -7.15 12.3842 0
    endloop
  endfacet
  facet normal -0.994522 -0.104528 0
    outer loop
      vertex 14.3 0 0
      vertex 13.9875 2.97314 16
      vertex 13.9875 2.97314 0
    endloop
  endfacet
  facet normal -0.994522 -0.104528 0
    outer loop
      vertex 13.9875 2.97314 16
      vertex 14.3 0 0
      vertex 14.3 0 16
    endloop
  endfacet
  facet normal -0.587785 0.809017 0
    outer loop
      vertex 9.56857 -10.627 0
      vertex 7.15 -12.3842 16
      vertex 9.56857 -10.627 16
    endloop
  endfacet
  facet normal -0.587785 0.809017 0
    outer loop
      vertex 7.15 -12.3842 16
      vertex 9.56857 -10.627 0
      vertex 7.15 -12.3842 0
    endloop
  endfacet
  facet normal -0.951056 0.309017 0
    outer loop
      vertex 13.0637 -5.81633 0
      vertex 13.9875 -2.97314 16
      vertex 13.9875 -2.97314 0
    endloop
  endfacet
  facet normal -0.951056 0.309017 0
    outer loop
      vertex 13.9875 -2.97314 16
      vertex 13.0637 -5.81633 0
      vertex 13.0637 -5.81633 16
    endloop
  endfacet
  facet normal 0.587785 0.809017 -0
    outer loop
      vertex -7.15 -12.3842 0
      vertex -9.56857 -10.627 16
      vertex -7.15 -12.3842 16
    endloop
  endfacet
  facet normal 0.587785 0.809017 0
    outer loop
      vertex -9.56857 -10.627 16
      vertex -7.15 -12.3842 0
      vertex -9.56857 -10.627 0
    endloop
  endfacet
  facet normal 0.866025 0.5 0
    outer loop
      vertex -11.5689 -8.40533 16
      vertex -13.0637 -5.81633 0
      vertex -13.0637 -5.81633 16
    endloop
  endfacet
  facet normal 0.866025 0.5 0
    outer loop
      vertex -13.0637 -5.81633 0
      vertex -11.5689 -8.40533 16
      vertex -11.5689 -8.40533 0
    endloop
  endfacet
  facet normal 0.994522 0.104528 0
    outer loop
      vertex -13.9875 -2.97314 16
      vertex -14.3 0 0
      vertex -14.3 0 16
    endloop
  endfacet
  facet normal 0.994522 0.104528 0
    outer loop
      vertex -14.3 0 0
      vertex -13.9875 -2.97314 16
      vertex -13.9875 -2.97314 0
    endloop
  endfacet
  facet normal 0.743145 0.669131 0
    outer loop
      vertex -9.56857 -10.627 16
      vertex -11.5689 -8.40533 0
      vertex -11.5689 -8.40533 16
    endloop
  endfacet
  facet normal 0.743145 0.669131 0
    outer loop
      vertex -11.5689 -8.40533 0
      vertex -9.56857 -10.627 16
      vertex -9.56857 -10.627 0
    endloop
  endfacet
  facet normal -0.207912 0.978148 0
    outer loop
      vertex 4.41894 -13.6001 0
      vertex 1.49476 -14.2217 16
      vertex 4.41894 -13.6001 16
    endloop
  endfacet
  facet normal -0.207912 0.978148 0
    outer loop
      vertex 1.49476 -14.2217 16
      vertex 4.41894 -13.6001 0
      vertex 1.49476 -14.2217 0
    endloop
  endfacet
  facet normal -0.406737 0.913545 0
    outer loop
      vertex 7.15 -12.3842 0
      vertex 4.41894 -13.6001 16
      vertex 7.15 -12.3842 16
    endloop
  endfacet
  facet normal -0.406737 0.913545 0
    outer loop
      vertex 4.41894 -13.6001 16
      vertex 7.15 -12.3842 0
      vertex 4.41894 -13.6001 0
    endloop
  endfacet
  facet normal -0.743145 0.669131 0
    outer loop
      vertex 9.56857 -10.627 0
      vertex 11.5689 -8.40533 16
      vertex 11.5689 -8.40533 0
    endloop
  endfacet
  facet normal -0.743145 0.669131 0
    outer loop
      vertex 11.5689 -8.40533 16
      vertex 9.56857 -10.627 0
      vertex 9.56857 -10.627 16
    endloop
  endfacet
  facet normal -0.866025 0.5 0
    outer loop
      vertex 11.5689 -8.40533 0
      vertex 13.0637 -5.81633 16
      vertex 13.0637 -5.81633 0
    endloop
  endfacet
  facet normal -0.866025 0.5 0
    outer loop
      vertex 13.0637 -5.81633 16
      vertex 11.5689 -8.40533 0
      vertex 11.5689 -8.40533 16
    endloop
  endfacet
  facet normal 0 1 -0
    outer loop
      vertex 1.49476 -14.2217 0
      vertex -1.49476 -14.2217 16
      vertex 1.49476 -14.2217 16
    endloop
  endfacet
  facet normal 0 1 0
    outer loop
      vertex -1.49476 -14.2217 16
      vertex 1.49476 -14.2217 0
      vertex -1.49476 -14.2217 0
    endloop
  endfacet
  facet normal 0.207912 0.978148 -0
    outer loop
      vertex -1.49476 -14.2217 0
      vertex -4.41894 -13.6001 16
      vertex -1.49476 -14.2217 16
    endloop
  endfacet
  facet normal 0.207912 0.978148 0
    outer loop
      vertex -4.41894 -13.6001 16
      vertex -1.49476 -14.2217 0
      vertex -4.41894 -13.6001 0
    endloop
  endfacet
  facet normal 0.951056 0.309017 0
    outer loop
      vertex -13.0637 -5.81633 16
      vertex -13.9875 -2.97314 0
      vertex -13.9875 -2.97314 16
    endloop
  endfacet
  facet normal 0.951056 0.309017 0
    outer loop
      vertex -13.9875 -2.97314 0
      vertex -13.0637 -5.81633 16
      vertex -13.0637 -5.81633 0
    endloop
  endfacet
  facet normal 0.406737 0.913545 -0
    outer loop
      vertex -4.41894 -13.6001 0
      vertex -7.15 -12.3842 16
      vertex -4.41894 -13.6001 16
    endloop
  endfacet
  facet normal 0.406737 0.913545 0
    outer loop
      vertex -7.15 -12.3842 16
      vertex -4.41894 -13.6001 0
      vertex -7.15 -12.3842 0
    endloop
  endfacet
endsolid OpenSCAD_Model
