solid OpenSCAD_Model
  facet normal -1 0 0
    outer loop
      vertex 0 0 0
      vertex 0 33 7.5
      vertex 0 33 0
    endloop
  endfacet
  facet normal -1 -0 0
    outer loop
      vertex 0 33 7.5
      vertex 0 0 0
      vertex 0 0 7.5
    endloop
  endfacet
  facet normal 0 0 1
    outer loop
      vertex 17.25 33 7.5
      vertex 10.375 16.5 7.5
      vertex 17.25 0 7.5
    endloop
  endfacet
  facet normal 0 0 1
    outer loop
      vertex 17.25 33 7.5
      vertex 9.5 18.0155 7.5
      vertex 10.375 16.5 7.5
    endloop
  endfacet
  facet normal 0 0 1
    outer loop
      vertex 17.25 33 7.5
      vertex 7.75 18.0155 7.5
      vertex 9.5 18.0155 7.5
    endloop
  endfacet
  facet normal 0 0 1
    outer loop
      vertex 7.75 18.0155 7.5
      vertex 0 33 7.5
      vertex 6.875 16.5 7.5
    endloop
  endfacet
  facet normal -0 0 1
    outer loop
      vertex 0 33 7.5
      vertex 7.75 18.0155 7.5
      vertex 17.25 33 7.5
    endloop
  endfacet
  facet normal -0 0 1
    outer loop
      vertex 9.5 14.9845 7.5
      vertex 17.25 0 7.5
      vertex 10.375 16.5 7.5
    endloop
  endfacet
  facet normal -0 0 1
    outer loop
      vertex 7.75 14.9845 7.5
      vertex 17.25 0 7.5
      vertex 9.5 14.9845 7.5
    endloop
  endfacet
  facet normal 0 0 1
    outer loop
      vertex 7.75 14.9845 7.5
      vertex 0 0 7.5
      vertex 17.25 0 7.5
    endloop
  endfacet
  facet normal 0 0 1
    outer loop
      vertex 6.875 16.5 7.5
      vertex 0 0 7.5
      vertex 7.75 14.9845 7.5
    endloop
  endfacet
  facet normal 0 0 1
    outer loop
      vertex 0 0 7.5
      vertex 6.875 16.5 7.5
      vertex 0 33 7.5
    endloop
  endfacet
  facet normal 0 0 1
    outer loop
      vertex 69 33 7.5
      vertex 62.125 16.5 7.5
      vertex 69 0 7.5
    endloop
  endfacet
  facet normal 0 0 1
    outer loop
      vertex 69 33 7.5
      vertex 61.25 18.0155 7.5
      vertex 62.125 16.5 7.5
    endloop
  endfacet
  facet normal 0 0 1
    outer loop
      vertex 69 33 7.5
      vertex 59.5 18.0155 7.5
      vertex 61.25 18.0155 7.5
    endloop
  endfacet
  facet normal 0 0 1
    outer loop
      vertex 59.5 18.0155 7.5
      vertex 51.75 33 7.5
      vertex 58.625 16.5 7.5
    endloop
  endfacet
  facet normal -0 0 1
    outer loop
      vertex 51.75 33 7.5
      vertex 59.5 18.0155 7.5
      vertex 69 33 7.5
    endloop
  endfacet
  facet normal -0 0 1
    outer loop
      vertex 61.25 14.9845 7.5
      vertex 69 0 7.5
      vertex 62.125 16.5 7.5
    endloop
  endfacet
  facet normal -0 0 1
    outer loop
      vertex 59.5 14.9845 7.5
      vertex 69 0 7.5
      vertex 61.25 14.9845 7.5
    endloop
  endfacet
  facet normal 0 0 1
    outer loop
      vertex 59.5 14.9845 7.5
      vertex 51.75 0 7.5
      vertex 69 0 7.5
    endloop
  endfacet
  facet normal 0 0 1
    outer loop
      vertex 58.625 16.5 7.5
      vertex 51.75 0 7.5
      vertex 59.5 14.9845 7.5
    endloop
  endfacet
  facet normal 0 0 1
    outer loop
      vertex 51.75 0 7.5
      vertex 58.625 16.5 7.5
      vertex 51.75 33 7.5
    endloop
  endfacet
  facet normal 1 -0 0
    outer loop
      vertex 69 0 7.5
      vertex 69 33 0
      vertex 69 33 7.5
    endloop
  endfacet
  facet normal 1 0 0
    outer loop
      vertex 69 33 0
      vertex 69 0 7.5
      vertex 69 0 0
    endloop
  endfacet
  facet normal 0 0 -1
    outer loop
      vertex 69 0 0
      vertex 62.125 16.5 0
      vertex 69 33 0
    endloop
  endfacet
  facet normal 0 0 -1
    outer loop
      vertex 69 0 0
      vertex 61.25 14.9845 0
      vertex 62.125 16.5 0
    endloop
  endfacet
  facet normal 0 0 -1
    outer loop
      vertex 69 0 0
      vertex 59.5 14.9845 0
      vertex 61.25 14.9845 0
    endloop
  endfacet
  facet normal 0 0 -1
    outer loop
      vertex 59.5 14.9845 0
      vertex 10.375 16.5 0
      vertex 58.625 16.5 0
    endloop
  endfacet
  facet normal 0 0 -1
    outer loop
      vertex 9.5 14.9845 0
      vertex 59.5 14.9845 0
      vertex 69 0 0
    endloop
  endfacet
  facet normal 0 0 -1
    outer loop
      vertex 59.5 14.9845 0
      vertex 9.5 14.9845 0
      vertex 10.375 16.5 0
    endloop
  endfacet
  facet normal 0 0 -1
    outer loop
      vertex 0 0 0
      vertex 9.5 14.9845 0
      vertex 69 0 0
    endloop
  endfacet
  facet normal -0 0 -1
    outer loop
      vertex 7.75 14.9845 0
      vertex 0 0 0
      vertex 6.875 16.5 0
    endloop
  endfacet
  facet normal -0 0 -1
    outer loop
      vertex 9.5 14.9845 0
      vertex 0 0 0
      vertex 7.75 14.9845 0
    endloop
  endfacet
  facet normal 0 0 -1
    outer loop
      vertex 61.25 18.0155 0
      vertex 69 33 0
      vertex 62.125 16.5 0
    endloop
  endfacet
  facet normal 0 0 -1
    outer loop
      vertex 59.5 18.0155 0
      vertex 69 33 0
      vertex 61.25 18.0155 0
    endloop
  endfacet
  facet normal 0 0 -1
    outer loop
      vertex 10.375 16.5 0
      vertex 59.5 18.0155 0
      vertex 58.625 16.5 0
    endloop
  endfacet
  facet normal 0 0 -1
    outer loop
      vertex 9.5 18.0155 0
      vertex 59.5 18.0155 0
      vertex 10.375 16.5 0
    endloop
  endfacet
  facet normal 0 0 -1
    outer loop
      vertex 59.5 18.0155 0
      vertex 9.5 18.0155 0
      vertex 69 33 0
    endloop
  endfacet
  facet normal 0 0 -1
    outer loop
      vertex 0 33 0
      vertex 9.5 18.0155 0
      vertex 7.75 18.0155 0
    endloop
  endfacet
  facet normal 0 0 -1
    outer loop
      vertex 9.5 18.0155 0
      vertex 0 33 0
      vertex 69 33 0
    endloop
  endfacet
  facet normal 0 0 -1
    outer loop
      vertex 6.875 16.5 0
      vertex 0 33 0
      vertex 7.75 18.0155 0
    endloop
  endfacet
  facet normal 0 0 -1
    outer loop
      vertex 0 33 0
      vertex 6.875 16.5 0
      vertex 0 0 0
    endloop
  endfacet
  facet normal 0 -1 0
    outer loop
      vertex 0 0 7.5
      vertex 17.25 0 3
      vertex 17.25 0 7.5
    endloop
  endfacet
  facet normal 0 -1 -0
    outer loop
      vertex 17.25 0 3
      vertex 0 0 0
      vertex 51.75 0 3
    endloop
  endfacet
  facet normal 0 -1 0
    outer loop
      vertex 0 0 0
      vertex 17.25 0 3
      vertex 0 0 7.5
    endloop
  endfacet
  facet normal 0 -1 0
    outer loop
      vertex 51.75 0 3
      vertex 69 0 7.5
      vertex 51.75 0 7.5
    endloop
  endfacet
  facet normal 0 -1 0
    outer loop
      vertex 51.75 0 3
      vertex 69 0 0
      vertex 69 0 7.5
    endloop
  endfacet
  facet normal 0 -1 0
    outer loop
      vertex 69 0 0
      vertex 51.75 0 3
      vertex 0 0 0
    endloop
  endfacet
  facet normal 0 1 0
    outer loop
      vertex 69 33 7.5
      vertex 51.75 33 3
      vertex 51.75 33 7.5
    endloop
  endfacet
  facet normal 0 1 0
    outer loop
      vertex 51.75 33 3
      vertex 69 33 0
      vertex 17.25 33 3
    endloop
  endfacet
  facet normal 0 1 -0
    outer loop
      vertex 69 33 0
      vertex 51.75 33 3
      vertex 69 33 7.5
    endloop
  endfacet
  facet normal 0 1 -0
    outer loop
      vertex 17.25 33 3
      vertex 0 33 7.5
      vertex 17.25 33 7.5
    endloop
  endfacet
  facet normal 0 1 0
    outer loop
      vertex 17.25 33 3
      vertex 0 33 0
      vertex 0 33 7.5
    endloop
  endfacet
  facet normal 0 1 0
    outer loop
      vertex 0 33 0
      vertex 17.25 33 3
      vertex 69 33 0
    endloop
  endfacet
  facet normal 1 -0 0
    outer loop
      vertex 17.25 0 7.5
      vertex 17.25 33 3
      vertex 17.25 33 7.5
    endloop
  endfacet
  facet normal 1 0 0
    outer loop
      vertex 17.25 33 3
      vertex 17.25 0 7.5
      vertex 17.25 0 3
    endloop
  endfacet
  facet normal -1 0 0
    outer loop
      vertex 51.75 0 3
      vertex 51.75 33 7.5
      vertex 51.75 33 3
    endloop
  endfacet
  facet normal -1 -0 0
    outer loop
      vertex 51.75 33 7.5
      vertex 51.75 0 3
      vertex 51.75 0 7.5
    endloop
  endfacet
  facet normal -0 0 1
    outer loop
      vertex 17.25 33 3
      vertex 51.75 0 3
      vertex 51.75 33 3
    endloop
  endfacet
  facet normal 0 0 1
    outer loop
      vertex 51.75 0 3
      vertex 17.25 33 3
      vertex 17.25 0 3
    endloop
  endfacet
  facet normal -0.866025 -0.5 0
    outer loop
      vertex 10.375 16.5 0
      vertex 9.5 18.0155 7.5
      vertex 9.5 18.0155 0
    endloop
  endfacet
  facet normal -0.866025 -0.5 0
    outer loop
      vertex 9.5 18.0155 7.5
      vertex 10.375 16.5 0
      vertex 10.375 16.5 7.5
    endloop
  endfacet
  facet normal 0.866026 0.499999 0
    outer loop
      vertex 7.75 14.9845 7.5
      vertex 6.875 16.5 0
      vertex 6.875 16.5 7.5
    endloop
  endfacet
  facet normal 0.866026 0.499999 0
    outer loop
      vertex 6.875 16.5 0
      vertex 7.75 14.9845 7.5
      vertex 7.75 14.9845 0
    endloop
  endfacet
  facet normal 0 -1 0
    outer loop
      vertex 7.75 18.0155 0
      vertex 9.5 18.0155 7.5
      vertex 7.75 18.0155 7.5
    endloop
  endfacet
  facet normal 0 -1 -0
    outer loop
      vertex 9.5 18.0155 7.5
      vertex 7.75 18.0155 0
      vertex 9.5 18.0155 0
    endloop
  endfacet
  facet normal 0 1 -0
    outer loop
      vertex 9.5 14.9845 0
      vertex 7.75 14.9845 7.5
      vertex 9.5 14.9845 7.5
    endloop
  endfacet
  facet normal 0 1 0
    outer loop
      vertex 7.75 14.9845 7.5
      vertex 9.5 14.9845 0
      vertex 7.75 14.9845 0
    endloop
  endfacet
  facet normal 0.866025 -0.5 0
    outer loop
      vertex 6.875 16.5 7.5
      vertex 7.75 18.0155 0
      vertex 7.75 18.0155 7.5
    endloop
  endfacet
  facet normal 0.866025 -0.5 0
    outer loop
      vertex 7.75 18.0155 0
      vertex 6.875 16.5 7.5
      vertex 6.875 16.5 0
    endloop
  endfacet
  facet normal -0.866025 0.5 0
    outer loop
      vertex 9.5 14.9845 0
      vertex 10.375 16.5 7.5
      vertex 10.375 16.5 0
    endloop
  endfacet
  facet normal -0.866025 0.5 0
    outer loop
      vertex 10.375 16.5 7.5
      vertex 9.5 14.9845 0
      vertex 9.5 14.9845 7.5
    endloop
  endfacet
  facet normal -0.866025 -0.5 0
    outer loop
      vertex 62.125 16.5 0
      vertex 61.25 18.0155 7.5
      vertex 61.25 18.0155 0
    endloop
  endfacet
  facet normal -0.866025 -0.5 0
    outer loop
      vertex 61.25 18.0155 7.5
      vertex 62.125 16.5 0
      vertex 62.125 16.5 7.5
    endloop
  endfacet
  facet normal 0 1 -0
    outer loop
      vertex 61.25 14.9845 0
      vertex 59.5 14.9845 7.5
      vertex 61.25 14.9845 7.5
    endloop
  endfacet
  facet normal 0 1 0
    outer loop
      vertex 59.5 14.9845 7.5
      vertex 61.25 14.9845 0
      vertex 59.5 14.9845 0
    endloop
  endfacet
  facet normal 0.866025 -0.5 0
    outer loop
      vertex 58.625 16.5 7.5
      vertex 59.5 18.0155 0
      vertex 59.5 18.0155 7.5
    endloop
  endfacet
  facet normal 0.866025 -0.5 0
    outer loop
      vertex 59.5 18.0155 0
      vertex 58.625 16.5 7.5
      vertex 58.625 16.5 0
    endloop
  endfacet
  facet normal 0 -1 0
    outer loop
      vertex 59.5 18.0155 0
      vertex 61.25 18.0155 7.5
      vertex 59.5 18.0155 7.5
    endloop
  endfacet
  facet normal 0 -1 -0
    outer loop
      vertex 61.25 18.0155 7.5
      vertex 59.5 18.0155 0
      vertex 61.25 18.0155 0
    endloop
  endfacet
  facet normal 0.866025 0.5 0
    outer loop
      vertex 59.5 14.9845 7.5
      vertex 58.625 16.5 0
      vertex 58.625 16.5 7.5
    endloop
  endfacet
  facet normal 0.866025 0.5 0
    outer loop
      vertex 58.625 16.5 0
      vertex 59.5 14.9845 7.5
      vertex 59.5 14.9845 0
    endloop
  endfacet
  facet normal -0.866025 0.5 0
    outer loop
      vertex 61.25 14.9845 0
      vertex 62.125 16.5 7.5
      vertex 62.125 16.5 0
    endloop
  endfacet
  facet normal -0.866025 0.5 0
    outer loop
      vertex 62.125 16.5 7.5
      vertex 61.25 14.9845 0
      vertex 61.25 14.9845 7.5
    endloop
  endfacet
endsolid OpenSCAD_Model
