solid OpenSCAD_Model
  facet normal -0 0 1
    outer loop
      vertex 0 170 113
      vertex 70 0 113
      vertex 70 170 113
    endloop
  endfacet
  facet normal 0 0 1
    outer loop
      vertex 70 0 113
      vertex 0 170 113
      vertex 0 0 113
    endloop
  endfacet
  facet normal 0 0 -1
    outer loop
      vertex 0 0 0
      vertex 70 170 0
      vertex 70 0 0
    endloop
  endfacet
  facet normal -0 0 -1
    outer loop
      vertex 70 170 0
      vertex 0 0 0
      vertex 0 170 0
    endloop
  endfacet
  facet normal 0 -1 0
    outer loop
      vertex 0 0 0
      vertex 70 0 113
      vertex 0 0 113
    endloop
  endfacet
  facet normal 0 -1 -0
    outer loop
      vertex 70 0 113
      vertex 0 0 0
      vertex 70 0 0
    endloop
  endfacet
  facet normal 1 -0 0
    outer loop
      vertex 70 0 113
      vertex 70 170 0
      vertex 70 170 113
    endloop
  endfacet
  facet normal 1 0 0
    outer loop
      vertex 70 170 0
      vertex 70 0 113
      vertex 70 0 0
    endloop
  endfacet
  facet normal 0 1 -0
    outer loop
      vertex 70 170 0
      vertex 0 170 113
      vertex 70 170 113
    endloop
  endfacet
  facet normal 0 1 0
    outer loop
      vertex 0 170 113
      vertex 70 170 0
      vertex 0 170 0
    endloop
  endfacet
  facet normal -1 0 0
    outer loop
      vertex 0 0 0
      vertex 0 170 113
      vertex 0 170 0
    endloop
  endfacet
  facet normal -1 -0 0
    outer loop
      vertex 0 170 113
      vertex 0 0 0
      vertex 0 0 113
    endloop
  endfacet
endsolid OpenSCAD_Model
